{"glyphs":{"0":{"ha":888,"x_min":47,"x_max":846,"o":"m 846 468 q 747 815 846 676 q 444 953 650 953 q 144 807 240 953 q 47 464 47 663 q 144 124 47 264 q 439 -19 240 -19 q 743 124 642 -19 q 846 468 846 268 m 681 483 q 625 224 681 333 q 439 114 569 114 q 264 211 319 114 q 207 453 207 310 q 260 708 207 601 q 444 815 313 815 q 628 719 574 815 q 681 483 681 621 z "},"1":{"ha":888,"x_min":142,"x_max":746,"o":"m 746 60 q 726 110 746 93 q 649 125 704 125 l 554 121 q 529 150 536 132 q 522 192 522 171 l 522 714 q 510 861 521 789 q 458 933 500 933 l 233 933 q 178 914 197 933 q 160 867 160 896 q 174 824 160 842 q 208 804 189 804 l 339 804 q 361 794 356 804 q 367 764 367 785 q 365 743 367 756 q 364 713 364 731 l 364 240 l 364 204 q 360 157 364 176 q 338 122 354 139 q 299 118 325 118 q 271 119 293 118 q 251 121 263 121 q 238 122 244 121 q 199 124 210 124 q 158 103 175 124 q 142 60 142 82 q 171 11 142 26 q 247 -4 199 -4 q 300 1 263 -4 q 364 6 342 6 q 485 0 386 6 q 679 -6 583 -6 q 729 6 711 -6 q 746 60 746 17 z "},"2":{"ha":888,"x_min":46,"x_max":840,"o":"m 840 188 q 803 293 840 246 q 708 342 765 342 q 631 317 663 342 q 600 244 600 292 q 628 196 600 219 q 675 176 651 176 q 686 178 682 176 l 708 182 q 688 136 704 153 q 647 119 671 119 q 493 192 588 119 q 318 263 397 263 q 208 231 260 263 q 439 369 243 304 q 719 483 639 436 q 804 674 804 531 q 703 879 804 803 q 456 956 601 956 q 194 882 313 956 q 78 693 78 807 q 113 588 78 625 q 203 549 146 549 q 281 581 249 549 q 311 664 311 611 q 294 693 311 679 q 244 728 282 703 q 315 800 253 774 q 446 828 379 828 q 586 786 526 828 q 646 669 646 743 q 496 504 646 567 q 201 382 385 457 q 46 139 46 293 q 79 38 46 86 q 161 -21 110 -10 q 229 1 199 -21 q 260 58 260 24 q 250 93 260 78 q 214 110 240 110 q 239 121 217 119 q 282 124 267 124 q 456 50 349 124 q 638 -25 560 -25 q 783 40 725 -25 q 840 188 840 106 z "},"3":{"ha":888,"x_min":50,"x_max":838,"o":"m 838 317 q 761 507 838 431 q 568 594 685 585 l 779 794 q 814 836 801 817 q 829 878 829 860 q 797 921 829 904 q 694 938 767 938 l 176 936 q 124 922 146 936 q 101 885 101 908 l 101 669 q 117 617 101 639 q 164 596 132 596 q 218 613 208 596 q 229 669 229 631 l 229 696 l 229 731 q 231 756 229 746 q 232 767 232 761 q 233 776 232 774 q 251 792 240 788 q 264 794 257 793 q 276 797 271 796 l 578 797 l 335 560 q 306 506 306 531 q 314 478 306 499 q 365 456 319 456 q 432 461 392 456 q 500 467 472 467 q 639 425 596 467 q 681 314 681 382 q 613 171 681 231 q 436 110 543 110 q 283 151 357 110 q 206 251 213 192 l 206 247 q 200 242 206 243 l 215 242 q 232 243 225 242 q 243 246 233 243 q 260 249 251 247 q 290 275 276 250 q 301 333 301 300 q 271 393 301 367 q 204 419 240 419 q 94 376 138 419 q 50 249 50 332 q 164 56 50 128 q 419 -18 278 -18 q 726 75 617 -18 q 838 317 838 169 z "},"4":{"ha":888,"x_min":18,"x_max":847,"o":"m 843 61 q 824 108 843 92 q 774 125 806 125 q 747 124 764 125 l 739 124 q 706 121 714 121 q 690 122 703 121 q 679 124 685 124 q 657 140 660 126 q 653 179 653 153 l 653 210 l 653 269 l 782 269 q 831 290 813 269 q 847 338 847 311 q 831 382 847 364 q 783 401 814 401 l 653 401 l 653 836 q 631 921 653 890 q 567 951 608 951 q 485 922 531 951 q 390 831 438 890 l 43 394 q 25 361 29 372 q 18 329 18 343 q 40 286 18 303 q 108 269 64 269 l 494 269 l 494 210 q 490 149 494 169 q 468 124 486 128 l 372 125 q 317 106 336 125 q 301 68 301 90 q 303 54 301 58 q 332 10 303 22 q 407 -3 360 -3 q 490 3 433 -3 q 588 7 553 7 q 661 1 600 7 q 775 -6 738 -6 q 826 15 808 -6 q 843 61 843 35 m 504 750 l 494 401 l 224 401 l 504 750 z "},"5":{"ha":888,"x_min":67,"x_max":833,"o":"m 833 331 q 738 564 833 481 q 500 647 640 647 q 265 590 378 647 l 282 783 q 296 797 282 797 l 586 797 l 608 793 q 632 753 631 760 q 639 711 636 732 q 660 675 639 690 q 701 661 679 661 q 747 674 725 661 q 768 721 768 686 q 757 794 764 753 q 746 867 750 835 q 653 939 736 939 l 558 933 l 199 933 q 139 842 154 933 q 124 653 128 721 l 110 476 q 126 425 117 454 q 189 397 143 397 q 281 456 221 417 q 317 479 282 457 q 469 517 388 517 q 617 465 560 517 q 674 331 674 413 q 607 171 674 228 q 444 114 538 114 q 322 129 399 114 q 232 193 246 144 q 279 221 264 200 q 293 269 293 240 q 267 340 289 317 q 196 364 243 364 q 99 322 131 364 q 67 219 67 278 q 181 49 67 117 q 428 -19 292 -19 q 732 79 629 -19 q 833 331 833 176 z "},"6":{"ha":888,"x_min":53,"x_max":835,"o":"m 835 321 q 726 556 835 472 q 468 639 618 639 q 332 615 399 639 q 219 544 268 590 q 301 746 240 665 q 485 825 363 825 q 557 814 519 825 q 610 781 592 803 q 579 722 579 758 q 578 714 578 719 q 604 663 578 688 q 671 632 633 632 l 679 632 q 750 664 718 632 q 783 744 783 700 q 688 896 783 840 q 483 953 589 953 q 168 806 282 953 q 53 415 53 657 q 153 106 53 233 q 454 -24 253 -24 q 732 78 629 -24 q 835 321 835 179 m 669 313 q 614 165 669 225 q 454 106 558 106 q 290 164 343 106 q 236 311 236 221 q 300 456 236 408 q 456 503 364 503 q 608 453 546 503 q 669 313 669 400 z "},"7":{"ha":888,"x_min":88,"x_max":843,"o":"m 843 813 q 810 913 843 865 q 726 960 775 960 q 663 935 690 960 q 636 878 636 911 q 642 849 636 869 q 678 814 649 824 l 669 813 q 492 883 603 813 q 333 953 378 953 q 243 928 279 953 q 175 851 204 900 l 214 839 q 217 860 214 844 q 219 875 218 867 q 222 904 222 894 q 203 946 222 929 q 157 963 185 963 q 110 933 122 963 q 97 849 97 903 q 99 819 99 836 q 100 790 99 803 q 101 735 101 771 q 94 676 101 722 q 88 618 88 631 q 101 549 88 576 q 150 518 114 518 q 167 519 163 518 q 221 542 203 519 q 240 594 240 564 q 232 660 240 617 q 224 726 224 704 q 242 785 224 761 q 292 808 261 808 q 428 747 339 808 q 596 685 514 685 q 653 692 618 685 q 435 496 579 626 q 311 117 311 360 q 328 21 311 58 q 399 -18 344 -18 q 468 3 446 -18 q 492 86 492 22 q 553 394 492 300 q 728 604 613 486 q 843 813 843 719 z "},"8":{"ha":888,"x_min":56,"x_max":829,"o":"m 829 300 q 782 425 829 369 q 657 522 732 483 q 740 596 711 551 q 769 697 769 640 q 678 885 769 821 q 454 949 585 949 q 219 882 322 949 q 118 704 118 815 q 221 524 118 582 q 99 431 143 486 q 56 288 56 379 q 168 63 56 149 q 444 -22 278 -22 q 725 68 619 -22 q 829 300 829 158 m 611 708 q 563 624 611 649 q 443 599 515 599 q 322 624 371 599 q 275 699 275 649 q 328 786 275 753 q 444 818 381 818 q 561 790 508 818 q 611 708 611 764 m 665 286 q 610 160 665 203 q 460 114 554 114 q 286 161 350 114 q 219 289 219 207 q 289 410 219 365 q 447 454 358 454 q 601 407 538 454 q 665 286 665 360 z "},"9":{"ha":888,"x_min":68,"x_max":822,"o":"m 822 496 q 718 833 822 711 q 436 956 613 956 q 174 857 281 956 q 68 610 68 760 q 160 386 68 481 q 407 293 251 293 q 544 317 478 293 q 657 383 610 340 q 581 189 640 274 q 390 101 521 101 q 315 117 350 101 q 260 150 281 131 q 283 219 283 165 q 254 274 283 251 q 193 296 226 296 q 118 264 154 296 q 82 189 82 231 q 172 36 90 93 q 388 -19 253 -19 q 721 131 619 -19 q 822 496 822 278 m 636 626 q 586 483 636 536 q 431 431 536 431 q 279 488 329 431 q 228 628 228 543 q 288 765 228 710 q 435 821 347 821 q 579 769 522 821 q 636 626 636 717 z "},"­":{"ha":697,"x_min":-1,"x_max":693,"o":"m -1 0 l 693 0 l 693 694 l -1 694 l -1 0 m 13 14 l 13 681 l 679 681 l 679 14 l 13 14 z "}," ":{"ha":846,"x_min":0,"x_max":0,"o":""},"!":{"ha":464,"x_min":114,"x_max":331,"o":"m 303 299 l 303 871 q 281 942 303 919 q 226 965 257 965 q 174 942 197 965 q 150 872 150 917 l 150 300 q 172 231 150 253 q 226 207 196 207 q 281 232 258 207 q 303 299 303 254 m 331 93 q 299 167 331 135 q 222 197 268 197 q 146 167 176 197 q 114 93 114 135 q 146 21 114 51 q 222 -10 176 -10 q 299 21 268 -10 q 331 93 331 53 z "},"\"":{"ha":694,"x_min":154,"x_max":575,"o":"m 575 928 q 550 976 575 958 q 499 992 526 992 l 490 992 q 440 976 463 992 q 418 935 418 960 q 428 781 418 857 q 440 676 431 761 q 454 560 454 560 l 529 560 q 558 736 547 668 q 575 928 575 839 m 311 928 q 286 974 311 956 q 228 992 260 992 q 175 976 197 992 q 154 935 154 963 q 164 781 154 857 q 176 676 167 761 q 190 560 190 560 l 265 560 q 294 736 283 668 q 311 928 311 839 z "},"#":{"ha":846,"x_min":51,"x_max":785,"o":"m 785 668 l 624 668 l 689 922 l 582 922 l 522 668 l 411 668 l 472 922 l 368 922 l 306 668 l 139 668 l 113 525 l 268 525 l 235 388 l 85 388 l 51 244 l 196 244 l 133 -3 l 240 -3 l 303 244 l 414 244 l 349 -3 l 456 -3 l 518 244 l 689 244 l 722 388 l 553 388 l 588 525 l 751 525 l 785 668 m 482 522 l 449 385 l 339 385 l 374 522 l 482 522 z "},"$":{"ha":888,"x_min":47,"x_max":840,"o":"m 840 204 q 754 393 840 335 q 517 482 665 451 l 517 764 q 640 697 606 753 q 624 671 629 681 q 617 644 617 657 q 643 585 617 607 q 706 561 671 561 q 778 589 746 561 q 807 653 807 617 q 722 825 807 771 q 517 897 635 879 l 517 993 q 499 1043 517 1025 q 454 1060 481 1060 q 413 1043 429 1060 q 394 993 394 1025 l 394 897 q 178 800 260 876 q 93 611 93 724 q 178 433 93 489 q 394 356 265 376 l 394 35 q 268 69 326 42 q 199 142 210 96 q 250 167 229 146 q 269 228 269 189 q 243 294 269 272 q 174 318 215 318 q 83 279 114 318 q 47 182 54 242 q 150 -15 47 54 q 394 -100 254 -86 l 394 -203 q 413 -249 394 -235 q 456 -264 432 -264 q 500 -247 482 -264 q 517 -203 517 -233 l 517 -93 q 749 -1 654 -75 q 840 204 840 72 m 394 513 q 289 554 329 526 q 249 632 249 582 q 292 728 249 690 q 394 764 336 764 l 394 513 m 683 196 q 635 82 683 131 q 517 35 588 35 l 517 329 q 636 285 588 319 q 683 196 683 251 z "},"%":{"ha":1235,"x_min":8,"x_max":1228,"o":"m 1228 294 q 1165 519 1228 435 q 978 606 1103 606 q 786 517 857 606 q 715 294 715 428 q 785 68 715 146 q 978 -11 854 -11 q 1161 63 1092 -11 q 1228 294 1228 136 m 1104 293 q 1075 151 1104 210 q 978 92 1044 92 q 872 151 910 92 q 833 294 833 208 q 875 438 833 374 q 978 503 915 503 q 1075 439 1046 503 q 1104 293 1104 375 m 974 913 q 975 933 974 925 q 947 953 975 953 l 890 953 q 872 946 883 953 q 858 931 864 940 l 278 39 q 274 11 278 31 q 307 -6 274 -6 l 356 -6 q 376 1 369 -6 q 389 13 385 10 l 974 913 m 521 636 q 460 865 521 783 q 271 947 397 947 q 81 857 154 947 q 8 636 8 768 q 78 410 8 488 q 271 331 147 331 q 453 408 383 331 q 521 636 521 485 m 397 636 q 363 494 397 554 q 271 433 326 433 q 165 493 203 433 q 126 636 126 553 q 167 781 126 715 q 271 844 206 844 q 369 788 342 844 q 397 636 397 728 z "},"&":{"ha":1158,"x_min":50,"x_max":1163,"o":"m 1163 536 q 1107 668 1163 615 q 963 722 1051 722 q 764 640 821 722 q 614 339 710 561 l 485 524 q 625 644 576 585 q 674 789 674 706 q 607 917 674 863 q 447 971 539 971 q 281 919 344 971 q 214 778 214 868 q 228 699 214 744 q 276 576 240 651 q 94 429 139 496 q 50 281 50 360 q 139 64 50 132 q 356 -6 228 -6 q 494 24 426 -6 q 619 103 564 51 q 732 22 681 49 q 863 -4 781 -4 q 985 10 938 -4 q 1033 69 1033 25 q 1017 114 1033 92 q 976 136 999 136 l 924 136 q 799 151 851 136 q 707 218 747 167 l 799 433 q 867 550 828 503 q 954 594 903 594 q 1001 572 982 594 q 1021 517 1021 549 q 1008 488 1021 499 q 979 476 994 476 l 979 494 q 964 529 979 514 q 910 543 950 543 q 857 515 881 543 q 833 451 833 488 q 875 378 833 406 q 969 351 915 351 q 1113 407 1063 351 q 1163 536 1163 464 m 517 779 q 500 713 517 738 q 418 643 485 689 q 382 718 390 696 q 369 775 369 746 l 369 781 q 390 822 369 804 q 444 843 414 843 q 517 779 517 829 m 522 208 q 453 150 488 169 q 365 131 417 131 q 254 168 299 131 q 208 276 208 204 q 243 383 208 344 q 344 460 282 426 q 428 332 386 389 q 522 208 485 254 z "},"'":{"ha":438,"x_min":154,"x_max":311,"o":"m 311 928 q 286 974 311 956 q 228 992 260 992 q 175 976 197 992 q 154 935 154 963 q 164 781 154 857 q 176 676 167 761 q 190 560 190 560 l 265 560 q 294 736 283 668 q 311 928 311 839 z "},"(":{"ha":618,"x_min":72,"x_max":610,"o":"m 610 903 q 593 928 610 918 q 553 936 576 936 q 383 871 503 936 q 168 679 264 804 q 72 382 72 553 q 158 99 72 225 q 364 -100 242 -25 q 564 -174 483 -174 q 600 -142 583 -174 q 594 -121 600 -133 q 582 -101 589 -108 q 390 19 468 -42 q 265 168 314 79 q 217 379 217 257 q 267 600 217 513 q 396 746 315 686 q 607 876 478 804 l 610 903 z "},")":{"ha":618,"x_min":4,"x_max":542,"o":"m 542 382 q 447 679 542 553 q 233 871 351 806 q 61 936 114 936 q 21 928 36 936 q 4 903 4 918 l 7 876 q 215 746 124 813 q 349 597 299 683 q 397 379 397 508 q 350 165 397 251 q 226 19 303 79 q 32 -101 147 -43 q 19 -121 26 -107 q 14 -142 14 -132 q 50 -174 31 -174 q 253 -101 135 -174 q 457 97 374 -28 q 542 382 542 221 z "},"*":{"ha":657,"x_min":60,"x_max":581,"o":"m 508 672 l 390 707 l 390 693 l 500 732 q 560 767 543 747 q 578 807 578 785 q 560 847 578 831 q 511 863 540 863 q 433 829 474 863 l 347 757 l 357 738 l 385 851 q 389 879 389 867 q 368 935 389 914 q 317 954 344 954 q 269 936 288 954 q 249 883 249 918 q 253 851 249 868 l 278 749 l 304 747 l 192 831 q 128 857 161 857 q 82 839 100 857 q 64 796 64 821 q 78 758 64 772 q 121 732 90 742 l 247 694 l 247 707 l 142 675 q 79 642 99 663 q 60 596 60 619 q 78 556 60 569 q 122 539 94 539 q 201 571 158 539 l 292 642 l 278 649 l 256 549 l 253 524 q 274 465 253 485 q 324 446 293 446 q 372 465 350 446 q 392 518 392 485 q 388 550 392 533 l 364 651 l 349 643 l 436 576 q 479 553 461 558 q 517 544 500 544 q 564 561 546 544 q 581 600 581 576 q 564 643 581 625 q 508 672 544 663 z "},"+":{"ha":603,"x_min":7,"x_max":590,"o":"m 590 357 l 590 468 l 360 468 l 360 681 l 240 681 l 240 468 l 7 468 l 7 357 l 240 357 l 240 125 l 360 125 l 360 357 l 590 357 z "},",":{"ha":458,"x_min":124,"x_max":367,"o":"m 367 46 q 338 139 367 101 q 243 185 308 174 q 160 160 196 185 q 124 86 124 132 q 185 14 124 25 q 246 -1 246 3 q 221 -108 246 -69 q 161 -179 193 -150 q 172 -203 161 -187 q 196 -217 182 -217 q 313 -128 257 -217 q 367 46 367 -39 z "},"-":{"ha":426,"x_min":36,"x_max":404,"o":"m 331 319 q 386 335 367 319 q 404 368 404 349 q 385 404 404 389 q 331 418 367 418 l 114 418 q 57 404 75 418 q 36 368 36 390 q 57 335 36 350 q 114 319 79 319 l 331 319 z "},".":{"ha":464,"x_min":108,"x_max":328,"o":"m 328 78 q 297 142 328 115 q 219 168 267 168 q 142 142 174 168 q 108 79 108 115 q 140 15 108 43 q 217 -11 171 -11 q 294 15 263 -11 q 328 78 328 43 z "},"/":{"ha":694,"x_min":72,"x_max":632,"o":"m 622 960 q 624 964 622 961 q 628 976 626 972 q 632 996 632 988 q 624 1017 632 1011 q 589 1022 614 1022 l 549 1022 q 514 1017 525 1022 q 490 983 501 1011 l 74 -42 q 72 -61 74 -53 q 78 -82 72 -72 q 106 -94 82 -94 l 163 -94 q 194 -85 185 -94 q 210 -60 203 -78 l 622 960 z "},":":{"ha":464,"x_min":113,"x_max":332,"o":"m 329 519 q 299 590 329 560 q 222 619 268 619 q 146 590 178 619 q 115 519 115 563 q 147 449 115 479 q 222 419 179 419 q 299 449 268 419 q 329 519 329 475 m 332 92 q 300 165 332 133 q 222 194 267 194 q 144 164 175 194 q 113 92 113 132 q 146 19 113 49 q 222 -11 176 -11 q 300 19 269 -11 q 332 92 332 51 z "},";":{"ha":464,"x_min":99,"x_max":353,"o":"m 318 515 q 286 589 318 557 q 208 619 256 619 q 131 589 161 619 q 99 515 99 557 q 131 440 99 472 q 208 410 161 410 q 286 442 253 410 q 318 515 318 474 m 353 60 q 324 157 353 118 q 229 206 294 196 q 146 179 181 206 q 110 103 110 151 q 171 26 110 38 q 232 10 232 15 q 207 -103 232 -60 q 147 -176 181 -144 q 158 -201 147 -186 q 182 -217 169 -217 q 299 -124 243 -217 q 353 60 353 -31 z "},"<":{"ha":310,"x_min":4,"x_max":228,"o":"m 222 182 l 153 374 l 221 554 q 226 578 226 569 q 215 607 226 593 q 186 618 201 618 q 147 596 164 618 l 8 393 q 4 374 4 383 q 10 356 4 361 l 150 146 q 194 118 169 118 q 228 156 228 118 q 222 182 228 171 z "},"=":{"ha":413,"x_min":36,"x_max":411,"o":"m 331 433 q 392 451 372 433 q 411 493 411 468 q 390 535 411 517 q 331 553 371 553 l 114 553 q 56 536 75 553 q 36 494 36 519 q 57 451 36 468 q 114 433 75 433 l 331 433 m 331 288 q 392 306 372 288 q 411 347 411 322 q 390 389 411 371 q 331 407 371 407 l 114 407 q 57 389 76 407 q 36 346 36 371 q 57 306 36 322 q 114 288 76 288 l 331 288 z "},">":{"ha":310,"x_min":72,"x_max":294,"o":"m 289 356 q 294 372 294 361 q 289 393 294 381 l 151 596 q 113 617 138 617 q 85 607 94 617 q 72 578 72 597 q 78 554 72 564 l 146 374 l 76 182 q 72 158 72 169 q 104 118 72 118 q 149 146 129 118 l 289 356 z "},"?":{"ha":811,"x_min":32,"x_max":767,"o":"m 767 696 q 658 893 767 817 q 413 968 549 968 q 150 894 269 968 q 32 694 32 822 q 74 578 32 626 q 188 529 114 529 q 281 563 242 529 q 321 640 321 596 q 299 694 321 671 q 244 718 275 718 q 204 708 224 718 q 174 681 183 699 q 169 671 172 676 l 169 693 l 181 682 q 179 685 179 683 q 178 688 178 688 q 175 696 175 690 q 249 807 175 771 q 410 843 324 843 q 549 807 488 843 q 608 704 608 769 q 521 579 608 636 q 465 543 507 571 q 350 469 386 492 q 261 300 261 399 q 282 247 261 275 q 340 221 300 221 q 397 240 378 221 q 415 311 415 258 q 504 426 415 375 q 676 526 603 485 q 767 696 767 596 m 464 94 q 432 169 464 138 q 354 200 401 200 q 278 169 308 200 q 244 94 244 139 q 276 21 244 53 q 354 -10 307 -10 q 432 21 401 -10 q 464 94 464 53 z "},"@":{"ha":846,"x_min":-10,"x_max":786,"o":"m 786 558 q 681 831 786 728 q 425 935 575 935 q 115 790 239 935 q -10 418 -10 644 q 93 100 -10 236 q 374 -36 196 -36 q 579 18 478 -36 q 776 175 676 71 q 715 176 736 175 l 653 176 q 535 89 593 119 q 408 58 476 58 q 194 174 276 58 q 113 432 113 289 q 204 728 113 601 q 438 854 296 854 q 610 769 535 854 q 685 564 685 685 q 651 371 685 474 q 533 268 618 268 q 518 308 518 268 q 522 349 518 335 l 522 390 q 542 540 522 460 q 599 721 563 625 l 476 721 l 471 699 q 429 724 453 714 q 385 732 404 732 q 239 617 304 732 q 175 372 175 503 q 211 249 175 308 q 297 182 247 190 q 308 181 301 181 q 365 199 340 183 q 425 253 397 217 q 546 182 457 182 q 718 304 650 182 q 786 558 786 424 m 436 592 q 407 374 436 482 q 324 265 378 265 q 307 275 313 265 q 300 297 300 286 q 336 554 300 457 q 408 646 372 646 l 411 646 q 432 631 425 646 q 436 592 436 614 z "},"A":{"ha":1097,"x_min":-1,"x_max":1088,"o":"m 1051 -3 q 1079 11 1069 -3 q 1088 46 1088 26 q 1075 96 1088 74 q 1042 118 1061 118 l 942 118 q 914 147 926 118 q 890 206 897 186 l 640 864 q 594 922 618 910 q 535 933 569 933 q 471 914 499 933 q 432 863 443 894 l 154 154 q 149 139 153 151 l 144 131 q 126 115 138 115 q 92 117 106 115 q 56 118 78 118 q 17 99 33 118 q -1 53 -1 79 q 22 8 -1 25 q 75 -10 44 -10 q 144 -1 117 -4 q 190 3 172 1 l 321 3 q 356 -1 335 3 q 390 -6 376 -6 q 464 6 426 -6 q 499 36 499 15 q 490 94 499 74 q 457 115 481 115 l 336 121 q 318 144 318 121 q 319 156 318 149 l 321 158 l 363 263 l 364 268 q 372 290 369 281 q 392 306 381 306 l 682 306 l 682 296 q 683 289 682 290 l 743 131 q 744 125 744 129 q 732 115 744 118 l 708 115 l 633 121 q 588 108 607 121 q 568 61 568 96 q 567 53 567 58 q 583 14 567 31 q 642 -7 603 -7 l 653 -7 q 699 -4 675 -6 q 769 0 749 -3 l 936 0 l 982 -6 q 1018 -4 1006 -6 q 1051 -3 1042 -4 m 633 433 l 426 431 l 532 735 l 633 433 z "},"B":{"ha":965,"x_min":6,"x_max":913,"o":"m 913 269 q 868 419 913 350 q 744 513 825 485 q 839 590 807 549 q 869 703 869 629 q 769 878 869 822 q 539 933 671 933 q 438 926 521 933 l 429 926 q 296 918 344 918 q 197 924 251 918 q 111 929 143 929 q 28 914 47 929 q 7 861 7 900 q 19 822 7 842 q 51 803 32 803 l 160 804 q 178 783 174 804 q 182 729 182 763 l 182 194 q 175 138 182 161 q 142 115 167 115 q 138 115 142 115 q 108 118 128 117 l 100 118 q 50 121 67 121 q 19 99 33 119 q 6 61 6 76 q 21 17 6 36 q 60 -3 36 -3 q 113 -1 92 -3 q 169 3 133 0 q 318 -1 179 3 q 517 -7 442 -7 q 797 60 683 -7 q 913 269 913 125 m 703 694 q 646 592 703 617 q 529 561 592 568 q 451 556 475 556 q 422 557 429 556 l 399 557 l 379 557 q 344 564 358 557 q 331 592 331 569 l 331 763 q 332 771 331 764 l 333 779 q 340 792 336 792 q 403 804 365 799 q 518 810 436 810 q 651 786 597 810 q 703 694 703 764 m 751 283 q 688 151 751 190 q 525 111 622 111 q 426 118 492 111 q 356 126 367 125 q 339 143 343 129 q 333 178 333 156 l 333 404 q 350 431 333 426 q 404 433 369 433 l 521 433 q 688 399 624 433 q 751 283 751 364 z "},"C":{"ha":888,"x_min":26,"x_max":847,"o":"m 847 311 q 835 372 847 350 q 774 393 821 393 q 721 375 739 393 q 701 333 701 356 q 628 154 701 207 q 471 103 556 103 q 261 203 324 103 q 199 449 199 301 q 258 718 199 608 q 467 826 317 826 q 663 729 644 826 q 679 590 679 640 l 679 583 q 701 529 685 550 q 750 510 717 510 q 804 524 789 510 q 821 585 821 536 l 821 601 l 818 653 q 817 710 818 683 q 815 771 815 735 q 818 833 815 790 l 818 842 q 819 874 819 853 q 821 904 819 894 q 804 939 821 922 q 754 956 788 956 q 715 940 735 956 q 694 901 694 924 l 694 875 q 590 936 644 915 q 464 957 535 957 q 143 811 258 957 q 26 461 26 664 q 140 115 26 258 q 461 -28 254 -28 q 750 67 651 -28 q 847 311 847 160 z "},"D":{"ha":1004,"x_min":4,"x_max":978,"o":"m 978 463 q 858 800 978 671 q 510 928 738 928 q 404 922 476 928 q 288 917 331 917 q 192 924 269 917 l 185 924 q 71 931 99 931 q 19 911 35 931 q 4 861 4 889 q 18 822 4 838 q 51 804 31 804 l 144 804 q 178 788 172 804 q 182 728 182 769 l 182 194 q 175 138 182 163 q 146 115 169 115 q 101 119 129 117 q 51 121 85 121 q 17 100 28 121 q 4 63 4 79 q 25 11 4 28 q 103 -6 46 -6 q 232 3 168 1 l 347 3 q 368 0 356 3 q 396 -3 389 -3 q 444 -6 429 -6 q 704 29 588 -6 q 900 165 821 63 q 978 463 978 268 m 815 468 q 736 211 815 303 q 496 118 656 118 q 429 124 468 118 q 364 132 389 128 q 342 154 342 135 q 343 181 342 168 l 343 742 q 363 788 343 776 q 467 797 381 797 q 739 710 663 797 q 815 468 815 624 z "},"E":{"ha":888,"x_min":6,"x_max":865,"o":"m 865 64 q 858 154 865 89 q 851 250 851 219 q 853 275 851 257 l 854 286 q 856 297 856 294 q 857 321 857 314 q 836 382 857 353 q 785 411 815 411 q 735 394 756 411 q 714 354 714 378 l 717 265 q 721 250 719 257 q 722 219 722 243 q 708 158 722 181 q 656 133 694 133 l 361 124 q 344 138 346 124 q 340 175 340 150 l 340 386 q 376 417 340 417 l 461 417 q 482 415 475 417 q 493 411 488 414 q 497 410 496 410 l 504 265 q 528 232 507 246 q 567 218 547 218 q 625 243 611 218 q 639 313 639 265 q 628 397 631 368 q 624 460 624 439 q 628 508 624 464 q 631 549 629 524 q 639 660 636 624 q 621 708 639 686 q 571 733 603 732 q 518 704 539 733 q 500 647 500 678 l 500 639 l 506 561 q 492 547 506 551 q 453 542 479 542 l 364 542 q 340 560 340 542 l 340 742 q 365 792 340 786 q 435 797 388 797 l 644 793 q 699 768 689 793 q 708 706 708 744 l 706 571 q 726 528 706 540 q 776 514 746 514 q 829 536 810 514 q 849 611 849 560 l 843 675 q 850 765 843 696 q 857 861 857 832 q 831 914 857 896 q 772 931 804 931 q 607 925 721 928 l 586 925 q 461 921 556 925 q 378 918 422 919 q 247 926 347 918 q 106 933 136 933 q 32 919 56 933 q 6 860 6 906 q 19 825 6 844 q 51 804 35 804 l 144 807 q 181 790 175 807 q 185 729 185 772 l 185 197 q 178 140 185 164 q 146 118 172 118 q 100 122 125 121 q 53 124 83 124 q 19 103 32 122 q 6 64 6 85 q 31 11 6 24 q 104 -3 53 -3 q 236 7 151 1 q 257 7 243 7 q 354 10 331 10 q 629 0 447 6 l 646 0 q 775 -6 771 -4 l 781 -6 q 829 11 796 -6 q 865 64 865 31 z "},"F":{"ha":888,"x_min":6,"x_max":857,"o":"m 857 863 q 833 911 857 890 q 763 931 807 931 l 378 918 q 250 926 349 918 q 108 933 139 933 q 33 917 61 933 q 6 860 6 897 q 29 828 6 850 q 74 806 51 806 l 144 807 q 178 796 171 807 q 185 758 185 782 l 185 729 l 185 197 q 176 142 185 165 q 142 118 165 118 q 138 118 142 118 q 108 121 128 119 l 104 121 q 51 124 65 124 q 19 104 35 124 q 6 64 6 86 q 21 13 6 28 q 103 -3 36 -3 l 203 8 q 310 3 226 8 q 454 -4 414 -4 q 519 14 497 -4 q 536 47 536 26 q 535 61 536 57 q 511 111 535 96 q 458 125 489 125 q 439 124 450 124 q 419 122 428 124 q 382 121 407 121 q 360 124 371 121 q 344 138 346 124 q 340 175 340 153 l 340 386 q 376 417 340 417 l 461 417 q 497 408 496 417 l 506 265 q 525 231 507 243 q 565 218 540 218 q 621 242 604 218 q 638 303 638 265 l 626 483 q 631 556 626 501 q 638 658 632 593 q 621 710 638 688 q 571 733 601 733 q 518 704 539 733 q 500 647 500 678 l 500 639 q 507 617 504 626 l 507 613 q 510 586 510 594 q 506 569 510 574 q 493 546 506 550 q 453 542 479 542 l 364 542 q 340 560 340 542 l 340 742 q 353 783 340 769 q 404 797 365 797 l 436 797 l 549 797 l 596 797 q 681 781 654 797 q 708 707 708 764 q 707 632 707 683 q 706 571 706 606 q 726 528 706 540 q 776 514 746 514 q 832 538 813 514 q 849 594 849 561 q 847 615 849 600 q 846 632 846 631 l 844 644 q 843 674 843 667 q 850 769 843 704 q 857 863 857 835 z "},"G":{"ha":965,"x_min":31,"x_max":986,"o":"m 986 440 q 963 488 986 468 q 903 506 939 506 q 821 497 875 506 q 740 489 767 489 q 657 497 722 489 q 567 504 585 504 q 501 490 529 504 q 471 444 471 476 q 494 386 471 401 q 558 372 517 372 l 578 372 l 654 374 q 668 340 668 374 q 672 318 672 339 q 671 301 671 311 l 671 289 q 613 158 671 211 q 464 107 556 107 q 260 221 319 107 q 197 492 197 336 q 268 721 197 619 q 457 821 338 821 q 632 756 586 821 q 676 579 676 688 q 699 540 676 557 q 746 522 718 522 q 796 540 774 522 q 818 594 818 558 q 817 624 818 601 l 815 649 q 811 711 811 689 q 815 774 811 728 q 825 864 821 835 q 757 950 825 950 q 707 932 725 950 q 689 876 689 914 l 689 882 q 593 933 656 910 q 461 956 535 956 q 150 811 269 956 q 31 457 31 667 q 139 119 31 264 q 453 -25 247 -25 q 696 57 606 -25 l 696 46 q 715 -3 696 10 q 761 -17 733 -17 q 814 -1 788 -17 q 838 43 838 14 q 836 64 838 46 q 835 97 836 71 q 833 124 835 100 q 832 158 832 149 l 832 267 q 835 303 832 278 l 835 310 q 838 333 836 319 q 840 356 839 346 q 853 374 840 368 q 857 375 857 375 q 865 376 863 376 l 868 376 l 917 374 q 968 396 950 374 q 986 440 986 415 z "},"H":{"ha":1079,"x_min":4,"x_max":1074,"o":"m 1074 43 q 1064 97 1074 78 q 1025 118 1054 118 q 1021 118 1024 118 q 1000 115 1010 117 q 961 111 975 111 q 940 117 946 111 q 903 132 910 117 q 894 178 894 147 l 894 194 l 894 729 l 894 747 q 901 792 894 775 q 933 807 908 807 l 1025 804 q 1064 821 1060 804 q 1074 871 1067 831 l 1074 875 l 1074 881 q 1057 910 1074 896 q 1017 928 1039 928 q 879 924 965 928 q 743 919 794 919 l 635 931 q 581 913 606 929 q 558 872 558 896 q 571 829 558 853 q 606 804 583 804 l 694 807 q 728 793 719 807 q 736 754 736 779 l 736 729 l 736 554 l 340 554 l 340 731 q 378 810 340 810 l 471 804 q 511 826 503 804 q 518 861 518 850 q 496 918 518 904 q 433 932 474 932 q 357 928 415 932 q 271 922 306 922 q 179 928 244 922 q 92 933 114 933 q 28 919 50 933 q 4 868 4 904 q 18 828 4 847 q 51 807 31 807 l 144 810 q 178 790 174 810 q 182 731 182 769 l 182 194 q 176 136 182 153 q 146 115 171 115 l 64 121 q 24 106 43 121 q 4 61 4 89 q 31 6 4 15 q 104 -6 60 -6 q 181 4 132 -1 l 193 6 q 244 7 229 7 q 332 1 260 7 q 464 -6 422 -6 q 503 15 489 -6 q 517 61 517 35 q 504 100 517 82 q 471 118 490 118 l 379 115 q 347 135 354 115 q 340 194 340 156 l 340 422 l 736 422 l 736 194 q 726 140 736 164 q 696 115 717 115 l 619 121 q 571 106 586 121 q 556 57 556 90 q 572 24 556 39 q 606 -1 588 7 q 740 4 661 -1 q 860 8 831 8 q 921 1 869 8 q 985 -6 972 -6 q 1049 6 1019 -6 q 1074 43 1074 17 z "},"I":{"ha":540,"x_min":4,"x_max":524,"o":"m 522 858 q 524 869 524 863 q 499 913 524 896 q 419 931 471 931 q 324 922 372 925 q 247 918 276 918 q 214 921 243 918 l 176 925 q 85 933 113 932 q 28 908 51 928 q 4 861 4 889 q 15 824 4 843 q 50 804 26 804 q 96 806 76 804 q 118 807 108 807 q 140 808 136 808 q 178 779 169 808 q 185 725 179 761 l 185 196 q 183 171 183 183 q 182 144 182 150 q 160 118 181 118 l 51 118 q 18 100 31 118 q 6 60 6 82 q 31 6 6 17 q 103 -6 56 -6 l 247 3 q 357 -1 285 3 q 467 -6 431 -6 q 508 11 499 -6 q 519 54 519 26 q 507 99 519 81 q 472 118 494 118 l 382 115 q 349 131 356 115 q 340 175 340 146 l 340 194 l 340 729 q 349 786 340 764 q 385 808 357 808 l 471 804 q 506 821 492 804 q 522 858 521 836 z "},"J":{"ha":811,"x_min":-43,"x_max":832,"o":"m 831 874 q 817 918 831 903 q 753 933 801 933 q 700 926 739 933 q 643 919 661 919 q 533 928 600 919 q 435 936 467 936 q 382 921 406 936 q 360 872 360 904 q 435 804 360 804 l 479 807 q 510 790 504 807 q 517 750 517 769 l 517 388 q 504 249 517 306 q 447 149 492 192 q 379 117 410 125 q 297 107 346 107 q 156 150 204 107 q 106 260 106 192 q 104 271 104 264 q 118 313 104 294 q 156 338 135 338 q 158 336 157 336 q 161 335 160 336 q 132 332 156 332 q 144 342 140 338 q 143 338 144 340 q 142 332 143 335 q 140 317 140 328 q 165 263 140 283 q 222 242 190 242 q 300 274 276 242 q 322 349 322 304 q 271 438 322 407 q 153 468 219 468 q 7 394 56 468 q -43 246 -43 322 q 57 42 -43 115 q 290 -32 158 -32 q 557 53 439 -32 q 675 269 675 136 l 675 728 q 681 783 675 763 q 706 804 688 804 l 774 804 q 819 825 801 804 q 832 860 832 840 q 831 874 832 869 z "},"K":{"ha":1079,"x_min":-21,"x_max":1101,"o":"m 1101 64 q 1083 103 1101 85 q 1039 121 1065 121 l 974 121 q 908 144 936 121 q 889 165 900 154 q 869 186 878 176 l 528 510 l 875 757 q 904 789 885 767 q 942 806 919 806 q 969 810 944 810 l 1001 810 q 1015 808 1008 808 q 1028 807 1025 807 q 1061 828 1049 807 q 1074 869 1074 847 q 1057 918 1067 904 q 1010 933 1046 933 q 935 926 997 933 q 857 918 879 918 q 757 928 829 918 q 643 936 681 936 q 593 918 615 936 q 571 868 571 900 q 592 819 571 835 q 643 804 611 804 l 703 808 q 710 811 706 810 q 729 817 721 814 q 728 813 728 815 l 333 535 l 333 782 q 340 796 333 789 q 347 801 343 799 q 354 807 351 804 l 465 803 q 513 822 493 803 q 531 869 531 840 q 508 917 531 899 q 438 933 486 933 l 363 925 q 289 921 324 921 q 265 922 288 921 q 200 928 251 924 q 63 933 124 933 q 15 918 35 933 q -6 869 -6 901 q 18 822 -6 846 q 67 803 40 803 l 72 803 l 121 807 q 172 800 156 807 q 188 774 188 792 l 188 147 q 172 126 188 133 q 117 119 156 119 l 29 121 q -3 101 13 121 q -19 63 -19 81 q -21 51 -21 58 q -8 19 -21 35 q 24 -3 7 -1 q 50 -7 39 -4 q 68 -8 57 -8 q 131 0 83 -8 q 204 7 183 7 q 329 1 244 7 q 472 -6 436 -6 q 507 11 493 -6 q 525 49 521 26 q 526 63 526 53 q 517 97 526 83 q 474 121 501 119 q 456 122 464 121 q 424 121 438 122 q 393 119 408 119 q 372 124 375 119 q 339 133 349 124 q 329 167 329 143 l 329 376 l 410 432 l 726 131 q 729 129 728 129 q 736 122 733 125 q 718 118 736 118 q 699 108 718 108 q 668 113 688 108 q 635 121 650 117 q 596 99 613 121 q 581 64 581 79 l 581 58 q 604 6 581 21 q 674 -8 626 -8 q 751 0 693 -8 q 833 7 814 7 q 924 1 851 7 q 1047 -6 1014 -6 q 1085 15 1068 -6 q 1101 64 1101 36 z "},"L":{"ha":849,"x_min":4,"x_max":867,"o":"m 867 350 q 847 390 867 371 q 796 407 826 407 q 740 379 756 407 q 725 310 725 351 q 726 271 725 288 q 728 235 728 254 q 693 146 728 175 q 550 115 658 115 q 526 114 544 114 l 485 114 q 456 115 471 114 l 443 117 q 432 118 432 117 q 363 131 382 118 q 343 186 343 142 l 343 729 q 351 785 343 763 q 385 807 360 807 l 475 804 q 508 824 496 804 q 521 864 521 843 q 507 915 521 897 q 435 933 493 933 q 365 928 410 933 q 254 921 310 921 q 157 925 201 921 q 83 933 113 928 q 26 918 49 933 q 4 864 4 904 q 18 825 4 844 q 51 804 33 804 l 144 807 q 176 788 169 807 q 182 729 182 769 l 182 194 q 175 136 182 161 q 146 113 168 113 q 108 117 132 115 q 50 118 92 118 q 18 101 31 118 q 6 61 6 85 q 28 6 6 18 q 93 -7 49 -7 l 119 -7 l 421 -3 l 789 -4 q 843 10 825 -4 q 863 65 863 22 q 861 83 863 75 l 857 146 q 861 226 857 158 q 864 300 863 263 q 867 350 867 347 z "},"M":{"ha":1275,"x_min":4,"x_max":1267,"o":"m 1267 64 q 1253 104 1265 82 q 1221 121 1240 121 l 1126 118 q 1096 139 1103 118 q 1090 197 1090 157 l 1090 735 q 1094 785 1090 764 q 1110 804 1097 804 l 1221 804 q 1254 831 1242 804 q 1265 874 1265 860 q 1239 919 1265 907 q 1171 931 1210 931 q 1125 926 1150 929 q 1049 924 1092 924 q 964 928 1000 924 q 918 932 947 929 q 908 933 910 933 l 903 933 q 864 914 886 933 q 831 861 840 890 l 635 210 l 458 818 q 424 897 446 864 q 371 931 401 931 q 308 926 349 929 q 219 925 282 925 q 156 929 200 925 q 86 933 113 933 l 78 933 q 28 917 49 933 q 4 867 4 897 q 18 828 4 850 q 51 804 33 804 l 144 807 q 175 789 169 807 q 182 729 182 768 l 182 197 q 183 165 182 181 q 178 132 183 142 q 156 121 171 121 l 51 121 q 14 97 21 121 q 6 60 6 72 q 26 6 6 17 q 86 -6 46 -6 l 104 -6 l 114 -4 q 174 6 153 3 q 222 10 210 10 q 319 4 247 10 q 389 -1 336 3 q 436 -6 422 -4 q 472 15 454 -1 q 503 53 493 32 q 490 103 503 81 q 444 124 476 124 q 418 119 438 124 q 392 115 400 115 q 376 119 381 115 q 339 136 346 119 q 333 197 333 151 l 333 703 l 536 51 q 574 -3 547 14 q 633 -21 600 -21 q 693 -1 665 -21 q 731 51 721 18 l 939 714 l 939 211 q 935 147 939 171 q 911 124 931 124 q 893 122 906 122 l 869 122 l 849 122 q 831 124 836 122 q 786 101 804 124 q 767 56 767 78 q 786 4 767 15 q 853 -6 804 -6 q 940 1 875 -6 q 1022 8 1003 8 q 1060 7 1029 8 q 1085 6 1071 7 q 1168 -3 1129 1 q 1239 15 1211 -3 q 1267 64 1267 32 z "},"N":{"ha":1042,"x_min":4,"x_max":1029,"o":"m 1029 864 q 1010 918 1029 907 q 949 926 989 926 q 867 922 924 926 q 785 918 811 918 q 694 922 726 918 q 653 928 674 924 q 650 928 651 928 q 578 913 606 928 q 549 860 549 899 q 568 821 549 838 q 614 803 586 803 l 689 804 q 722 785 710 804 q 733 715 733 763 l 733 690 q 732 682 732 686 q 731 674 732 675 l 731 201 l 425 858 q 390 911 403 896 q 331 932 374 932 q 317 931 326 932 q 283 926 299 928 q 213 924 244 924 q 129 926 165 924 q 83 933 107 928 q 28 908 51 932 q 4 861 4 885 q 15 822 4 844 q 50 801 26 801 q 99 803 81 801 q 147 804 133 803 q 175 785 167 804 q 182 726 182 761 l 182 193 q 175 133 182 158 q 147 113 169 113 l 142 113 q 125 115 140 113 q 103 118 110 117 q 92 119 97 118 q 56 121 67 121 q 19 99 32 121 q 6 61 6 76 q 32 7 6 21 q 104 -8 58 -8 q 143 -3 122 -6 q 176 3 174 3 q 225 8 208 8 q 333 1 253 8 q 442 -6 414 -6 q 493 14 471 -6 q 513 61 513 33 q 494 106 513 92 q 451 121 475 121 q 440 121 450 121 q 411 118 424 119 l 392 117 q 376 115 381 115 l 372 115 q 339 131 346 115 q 331 163 331 146 l 331 717 l 624 82 q 688 1 650 28 q 764 -28 725 -28 q 843 13 811 -28 q 875 124 875 53 l 875 726 q 894 801 875 801 q 929 800 904 800 q 968 799 942 799 q 1013 813 997 799 q 1029 864 1029 828 z "},"O":{"ha":888,"x_min":26,"x_max":875,"o":"m 875 464 q 767 819 875 681 q 458 957 658 957 q 139 814 249 957 q 26 464 26 671 q 136 113 26 251 q 446 -28 247 -28 q 771 117 667 -28 q 875 464 875 261 m 708 469 q 644 215 708 321 q 446 108 579 108 q 257 210 321 108 q 193 449 193 311 q 256 719 193 610 q 456 829 318 829 q 650 724 592 829 q 708 469 708 618 z "},"P":{"ha":888,"x_min":4,"x_max":876,"o":"m 876 672 q 769 875 876 814 q 507 933 661 933 q 397 928 485 933 q 246 921 289 921 l 89 931 q 25 915 47 926 q 4 861 4 903 q 17 826 4 847 q 51 804 26 804 q 97 806 74 804 q 144 807 121 807 q 176 786 168 807 q 185 729 185 764 l 185 197 l 185 178 q 181 136 185 151 q 158 121 174 121 l 117 121 l 51 121 q 19 101 32 121 q 6 65 6 83 q 25 13 6 29 q 104 -6 43 -6 l 206 8 q 303 3 222 8 q 321 1 311 3 q 453 -6 418 -6 q 503 15 485 -6 q 519 67 519 36 q 506 103 519 85 q 475 121 492 121 l 382 118 q 350 143 361 118 q 340 197 340 164 l 340 381 q 358 385 340 385 l 513 385 q 772 454 667 385 q 876 672 876 524 m 719 658 q 672 546 719 583 q 471 507 625 507 q 429 508 443 507 l 388 508 l 356 511 q 340 515 340 514 l 340 768 q 363 799 340 793 q 426 804 383 804 l 514 807 q 664 775 607 807 q 719 658 719 742 z "},"Q":{"ha":888,"x_min":28,"x_max":883,"o":"m 883 -92 q 868 -25 878 -43 q 808 -8 858 -8 q 765 -28 788 -8 q 744 -71 744 -47 q 746 -76 746 -72 l 746 -87 q 735 -133 746 -114 q 690 -154 722 -154 q 647 -135 658 -154 q 636 -81 636 -115 l 636 18 q 799 203 746 90 q 849 450 849 314 q 746 818 849 679 q 450 956 642 956 q 143 824 258 956 q 28 450 28 692 q 133 104 28 244 q 450 -37 240 -37 l 492 -35 l 492 -114 q 554 -236 501 -196 q 693 -275 606 -275 q 832 -222 779 -275 q 883 -92 883 -171 m 692 450 q 676 318 692 386 q 629 200 663 256 q 579 336 629 278 q 450 393 529 393 q 303 346 360 393 q 243 221 243 299 l 243 208 q 201 321 213 265 q 189 450 189 378 q 250 719 189 606 q 446 831 311 831 q 633 726 575 831 q 692 450 692 621 m 494 100 q 450 93 467 93 q 381 111 408 93 q 351 160 351 128 q 368 243 351 217 q 436 269 385 269 q 478 243 460 269 q 494 185 494 217 l 494 100 z "},"R":{"ha":1004,"x_min":4,"x_max":1014,"o":"m 1014 64 q 1003 108 1014 90 q 965 125 990 125 q 910 126 942 125 q 846 128 878 128 q 828 138 832 128 q 824 167 824 149 l 824 183 l 824 276 q 799 410 824 367 q 724 475 771 454 q 832 554 793 503 q 869 690 869 607 q 781 874 869 811 q 538 936 692 936 q 485 933 510 935 q 369 926 401 928 l 338 925 q 251 919 282 921 q 181 928 235 919 q 104 935 121 935 q 26 915 50 935 q 4 864 4 897 q 18 826 4 849 q 50 804 31 804 l 53 804 l 142 810 q 175 789 167 810 q 182 729 182 764 l 182 197 q 174 135 182 150 q 146 118 164 118 q 97 122 131 119 q 53 124 79 124 q 24 104 40 124 q 6 71 6 85 q 26 13 6 24 q 88 0 46 0 l 108 0 q 164 4 126 0 q 225 8 201 8 q 333 3 263 8 q 453 -3 404 -3 q 506 19 488 -3 q 522 64 522 39 l 522 71 q 506 107 518 90 q 472 124 493 124 l 465 124 q 447 122 461 124 q 438 121 443 121 q 404 117 411 117 q 386 122 392 117 q 349 142 356 122 q 340 199 340 161 l 340 381 q 351 407 340 400 q 381 414 363 414 l 404 414 q 453 418 435 417 q 508 419 471 419 q 561 413 554 419 q 639 376 611 413 q 665 288 665 342 l 665 172 q 710 40 665 89 q 889 -7 753 -7 q 981 6 946 -7 q 1014 64 1014 18 m 714 685 q 489 539 714 539 l 358 539 l 349 539 l 344 539 q 340 540 340 539 l 340 750 q 379 804 340 792 q 483 815 419 815 q 496 817 486 817 q 524 815 511 817 q 665 781 618 815 q 714 685 714 744 z "},"S":{"ha":774,"x_min":28,"x_max":764,"o":"m 764 271 q 699 439 764 365 q 542 528 635 511 l 338 565 q 246 604 283 575 q 211 683 211 631 q 264 788 211 746 q 381 828 317 828 q 517 797 458 828 q 576 707 576 767 q 576 699 576 706 q 574 678 574 685 q 572 663 574 669 q 571 639 571 644 q 588 561 571 589 q 656 535 601 535 q 708 561 694 535 q 721 636 721 586 q 721 640 721 638 q 718 661 719 651 q 717 672 718 667 q 715 692 715 688 q 719 785 715 729 q 724 879 724 842 q 704 928 724 908 q 653 947 685 947 q 610 931 626 947 q 592 888 592 913 l 592 901 q 510 942 558 928 q 390 957 456 957 q 147 879 246 957 q 47 679 47 800 q 124 506 47 569 q 300 421 200 442 l 533 376 q 585 333 565 371 q 603 217 603 297 q 542 135 603 168 q 407 101 479 101 q 239 154 292 101 q 179 258 188 206 q 171 319 171 311 q 172 346 171 328 l 174 360 q 156 410 174 390 q 103 431 138 431 q 54 415 82 431 q 28 379 28 399 q 32 275 28 363 q 36 125 36 188 q 32 100 36 124 q 28 56 28 75 q 43 -6 28 17 q 103 -26 58 -26 q 147 -11 124 -26 q 169 32 169 3 l 169 46 q 269 -7 224 7 q 408 -24 318 -24 q 661 57 560 -24 q 764 271 764 136 z "},"T":{"ha":849,"x_min":3,"x_max":854,"o":"m 854 588 q 850 639 854 601 q 844 694 844 671 q 849 753 846 714 q 850 786 849 771 q 853 872 853 836 q 822 922 853 908 q 753 936 793 936 q 694 933 749 936 q 582 929 671 933 q 439 924 508 926 q 421 922 425 922 l 111 931 q 36 917 65 931 q 4 871 4 901 q 8 775 4 819 l 8 763 q 11 694 11 718 q 4 621 6 644 q 3 588 3 608 q 4 568 3 572 q 32 525 11 540 q 75 507 54 507 q 139 533 129 507 q 149 636 149 558 q 147 697 149 663 q 146 738 146 721 q 144 779 146 769 q 161 800 144 792 q 193 807 179 807 l 290 807 q 335 792 319 807 q 349 733 349 776 l 349 196 q 343 136 349 154 q 310 114 338 114 q 300 115 310 114 q 271 119 282 118 q 213 121 254 121 q 181 99 194 119 q 167 64 167 79 q 194 11 167 28 q 267 -6 222 -6 q 357 4 296 -1 q 404 6 376 6 l 419 6 q 525 1 457 6 q 629 -3 594 -3 q 667 19 649 -3 q 683 61 683 40 q 671 106 683 92 q 636 121 658 121 q 585 117 603 117 q 544 115 572 115 l 539 115 q 511 135 518 115 q 504 197 504 158 l 504 732 q 514 788 506 758 q 572 810 519 810 l 668 810 q 700 804 688 810 q 713 782 713 799 q 711 751 713 776 q 710 721 711 735 q 708 635 708 697 q 725 531 708 547 q 779 513 742 513 q 840 532 825 513 q 854 588 854 550 z "},"U":{"ha":1004,"x_min":-7,"x_max":993,"o":"m 993 872 q 971 922 993 908 q 913 935 949 935 q 882 933 911 935 q 851 931 871 932 q 765 926 792 926 l 613 933 q 532 918 550 933 q 515 867 515 904 q 528 826 515 850 q 564 804 540 804 q 597 808 567 804 q 643 813 626 813 q 663 807 657 813 q 685 793 675 807 q 693 744 693 779 l 693 256 q 638 147 693 186 q 499 107 581 107 q 360 144 410 107 q 300 258 308 179 l 300 744 q 307 785 300 760 q 322 807 313 807 l 425 804 q 469 825 449 804 q 490 868 490 846 q 468 919 490 906 q 408 935 444 935 q 328 931 397 935 q 221 925 267 925 l 65 936 q 17 919 40 936 q -7 872 -7 900 q 14 826 -7 846 q 60 807 36 807 l 124 810 q 143 778 143 810 q 142 744 143 760 l 142 294 q 217 60 142 143 q 490 -25 289 -25 q 765 61 679 -25 q 851 294 851 147 q 847 422 850 338 q 846 629 846 476 q 850 740 846 732 q 854 785 850 763 q 874 807 857 807 q 888 804 882 804 q 922 803 892 803 q 936 804 931 803 q 979 821 965 804 q 993 872 993 835 z "},"V":{"ha":1004,"x_min":-28,"x_max":1035,"o":"m 1035 868 q 1019 911 1035 893 q 968 928 1003 928 q 904 924 953 928 q 826 918 861 918 q 724 924 785 918 q 631 928 656 928 q 569 917 594 928 q 547 867 547 907 q 564 825 547 849 q 603 801 581 801 q 658 803 640 801 q 701 804 690 803 q 722 779 722 803 q 714 739 722 764 q 697 692 703 710 l 532 196 l 339 754 q 331 790 331 783 q 342 804 331 804 l 432 800 q 478 821 456 800 q 499 872 499 840 q 474 917 499 900 q 414 932 447 932 q 336 925 401 932 q 253 918 271 918 q 165 922 206 918 q 56 933 133 924 q -4 918 19 933 q -28 867 -28 903 q -7 817 -28 836 q 38 797 15 797 l 124 803 q 149 783 138 803 q 171 731 156 769 l 417 60 q 460 3 431 21 q 524 -17 490 -17 q 593 4 563 -17 q 635 60 622 22 l 860 703 q 868 728 863 710 q 882 768 874 744 q 921 804 897 804 l 924 804 l 960 800 q 1021 818 1007 800 q 1035 868 1035 836 z "},"W":{"ha":1275,"x_min":-31,"x_max":1313,"o":"m 1313 868 q 1293 915 1313 896 q 1242 933 1275 933 q 1154 922 1181 924 q 1082 918 1121 918 q 993 926 1051 918 q 907 935 935 935 q 833 922 863 935 q 803 872 803 908 q 822 822 803 842 q 883 803 842 803 l 969 810 q 1000 776 1000 810 q 992 725 1000 761 q 985 699 988 711 q 981 686 982 688 l 886 249 l 764 849 q 728 919 751 896 q 650 942 706 942 q 572 913 600 942 q 535 836 544 883 l 415 258 l 306 772 q 301 794 301 789 q 308 804 301 804 l 439 800 q 474 819 457 800 q 490 876 490 839 q 469 922 476 913 q 436 931 464 931 q 367 925 413 931 q 279 918 308 918 q 174 922 243 918 q 43 932 89 928 q -17 910 -3 932 q -31 867 -31 892 q -29 854 -31 858 q -12 817 -25 832 q 21 799 0 801 l 118 803 q 136 781 131 803 l 144 735 l 310 72 q 356 10 321 33 q 429 -15 392 -15 q 485 3 463 -15 q 514 54 508 19 l 649 679 l 768 92 q 813 14 779 40 q 888 -15 846 -15 q 949 7 922 -15 q 986 72 976 31 l 1142 707 l 1144 719 q 1153 769 1150 754 q 1185 807 1160 807 l 1256 803 q 1301 821 1289 803 q 1313 868 1313 840 z "},"X":{"ha":1079,"x_min":-21,"x_max":1100,"o":"m 1100 61 q 1082 101 1100 83 q 1039 121 1063 121 l 971 121 q 942 135 954 121 q 896 192 919 161 l 643 483 l 878 760 q 903 789 889 775 q 929 804 915 804 l 1018 801 q 1063 818 1050 801 q 1074 867 1074 833 q 1058 914 1074 894 q 1010 933 1042 933 q 935 926 994 933 q 857 918 879 918 q 760 928 826 918 q 643 936 689 936 q 593 918 613 936 q 571 867 571 900 q 592 821 571 838 q 642 804 613 804 q 669 806 657 804 q 701 807 692 806 q 724 810 715 807 l 724 808 l 549 594 q 378 814 378 810 q 396 807 382 810 q 418 804 410 804 q 468 803 426 803 q 514 822 494 803 q 531 869 531 842 q 511 919 531 904 q 439 933 493 933 q 376 928 428 933 q 288 921 311 921 q 261 922 285 921 q 197 928 240 925 q 63 933 124 933 q 15 915 33 933 q -6 869 -6 897 q 15 829 -6 849 q 67 803 39 808 q 82 801 71 801 q 96 803 92 801 q 122 808 115 806 l 135 808 q 167 801 153 808 q 206 760 179 792 l 451 482 l 174 158 q 164 146 171 154 q 153 135 157 139 q 132 121 140 121 l 90 121 l 29 121 q -3 100 13 121 q -19 60 -19 78 q -21 49 -21 56 q -8 14 -21 29 q 38 -6 7 -6 q 119 1 60 -6 q 203 7 168 7 q 317 1 233 7 q 472 -6 421 -6 q 514 14 501 -6 q 525 53 525 33 q 511 99 525 76 q 472 121 497 121 l 325 121 q 326 125 325 124 q 356 143 350 138 l 543 375 l 746 133 q 761 122 749 129 l 761 118 l 635 121 q 594 103 607 121 q 581 64 581 85 q 604 7 581 22 q 672 -8 628 -8 q 744 0 689 -8 q 824 7 807 7 q 918 1 842 7 q 1047 -6 1011 -6 q 1083 15 1067 -6 q 1100 61 1100 36 z "},"Y":{"ha":1042,"x_min":-26,"x_max":1064,"o":"m 1064 868 q 1049 917 1064 901 q 993 932 1033 932 q 932 926 978 932 q 851 921 886 921 q 746 929 828 921 q 629 936 656 936 q 569 915 585 936 q 553 867 553 893 q 571 828 553 850 q 610 804 588 804 l 728 810 l 722 808 l 526 488 l 333 808 l 419 807 q 468 826 449 807 q 485 872 485 846 q 464 915 485 899 q 403 932 442 932 l 254 921 q 171 925 242 921 q 143 926 156 925 q 53 928 81 928 q -1 915 18 928 q -26 861 -19 903 l -26 856 q -15 824 -26 842 q 22 803 0 803 l 122 804 q 139 796 135 804 q 146 786 140 792 q 150 778 149 779 l 440 340 l 440 194 q 433 138 440 163 q 403 115 428 115 q 365 119 389 118 q 310 121 349 121 q 276 100 289 121 q 263 63 263 81 q 289 14 263 32 q 361 -6 315 -6 q 449 4 390 -1 q 474 6 463 6 q 511 7 504 7 q 593 1 538 7 q 700 -6 663 -6 q 758 10 735 -6 q 781 61 781 24 q 767 101 781 82 q 731 121 751 121 l 639 115 l 636 115 q 608 138 617 115 q 599 197 599 158 l 599 349 l 872 758 q 875 763 874 761 q 893 794 885 779 q 928 811 908 811 l 933 811 q 956 806 946 807 q 988 801 971 801 q 1015 807 1003 801 q 1050 821 1025 811 q 1064 868 1064 831 z "},"Z":{"ha":849,"x_min":18,"x_max":818,"o":"m 810 288 q 796 365 810 332 q 746 399 782 399 q 678 371 690 399 q 665 292 665 344 l 671 214 q 642 139 671 160 q 501 118 613 118 l 201 118 l 781 769 q 818 857 818 814 q 792 913 818 890 q 711 933 765 933 l 125 933 q 71 904 90 933 q 53 825 53 874 l 56 789 q 49 704 56 767 q 42 622 42 642 q 60 553 42 581 q 111 524 76 524 q 175 549 161 524 q 189 625 189 571 l 185 694 q 211 779 185 751 q 315 807 239 807 l 607 807 l 56 178 q 18 83 18 136 q 39 22 18 46 q 97 -3 58 -3 l 367 0 l 743 -6 q 790 24 776 -6 q 804 92 804 50 l 803 136 q 807 200 803 146 q 808 221 807 211 q 810 288 810 268 z "},"[":{"ha":464,"x_min":121,"x_max":419,"o":"m 419 872 q 399 915 419 897 q 349 933 379 933 q 331 932 342 932 l 297 928 l 244 928 l 228 928 q 206 929 213 928 l 185 933 l 176 933 q 133 906 144 933 q 121 822 121 872 l 121 -57 q 132 -140 121 -104 q 169 -171 140 -171 l 178 -171 q 193 -169 185 -169 q 208 -167 201 -168 q 236 -165 218 -165 q 249 -165 240 -165 q 292 -168 271 -167 q 319 -169 307 -169 q 360 -171 353 -171 q 397 -146 381 -171 q 414 -101 414 -124 q 397 -68 414 -87 q 367 -47 381 -49 q 329 -49 347 -47 q 304 -51 313 -50 q 300 -51 300 -51 l 297 -51 q 278 -35 285 -51 q 271 7 271 -17 l 271 710 q 269 724 269 714 q 268 754 268 729 q 272 797 268 779 q 285 813 276 813 l 288 813 l 292 813 q 322 810 304 811 q 371 806 354 806 q 407 826 392 807 q 419 872 419 843 z "},"\\":{"ha":846,"x_min":25,"x_max":779,"o":"m 779 -19 l 160 888 l 25 888 l 656 -19 l 779 -19 z "},"]":{"ha":464,"x_min":26,"x_max":325,"o":"m 325 -57 l 325 822 q 317 896 325 853 q 271 933 308 933 l 260 933 q 243 929 254 932 q 218 928 236 928 q 153 929 174 928 q 97 933 117 932 q 47 917 67 933 q 26 872 26 899 q 40 826 26 844 q 75 806 56 807 q 108 808 83 806 l 114 808 q 158 813 144 811 l 161 813 q 175 799 171 813 q 178 756 178 779 q 176 731 178 740 q 175 710 175 721 l 175 7 q 168 -35 175 -17 q 147 -51 163 -51 l 144 -51 l 139 -51 q 114 -50 126 -51 l 96 -49 q 78 -47 81 -47 q 49 -68 64 -50 q 32 -101 32 -87 q 49 -147 32 -125 q 86 -171 64 -171 l 90 -171 q 139 -168 125 -168 q 168 -167 156 -168 q 210 -165 201 -165 q 238 -167 228 -165 l 267 -171 l 275 -171 q 314 -140 304 -171 q 325 -57 325 -103 z "},"^":{"ha":483,"x_min":-22,"x_max":501,"o":"m 485 840 l 271 964 q 244 975 251 975 q 215 964 240 975 l 4 840 q -22 811 -22 826 q -7 792 -22 799 q 28 783 8 783 q 42 785 39 783 l 242 847 q 326 822 254 844 q 422 792 381 804 q 461 782 447 782 q 492 792 482 782 q 501 814 501 801 q 485 840 501 831 z "},"_":{"ha":846,"x_min":-21,"x_max":868,"o":"m 868 -82 l -21 -82 l -21 -144 l 863 -144 l 868 -82 z "},"`":{"ha":285,"x_min":-14,"x_max":308,"o":"m 293 826 l 122 950 q 93 967 106 963 q 64 971 79 971 q 8 949 29 971 q -14 894 -14 926 q 31 839 -14 854 l 246 775 q 267 772 254 772 q 308 800 308 772 q 293 826 308 815 z "},"a":{"ha":811,"x_min":28,"x_max":821,"o":"m 821 129 l 821 207 q 803 278 821 256 q 757 300 785 300 q 711 282 729 300 q 690 235 690 264 l 690 169 q 686 121 690 136 q 661 106 682 106 l 658 106 q 642 114 649 106 q 633 142 633 125 l 633 465 q 582 635 633 557 q 364 714 531 714 q 160 661 249 714 q 72 511 72 607 q 100 443 72 471 q 181 415 128 415 q 238 435 206 415 q 268 471 268 453 l 268 519 q 256 535 268 526 q 240 549 243 542 q 281 579 257 571 q 358 590 310 590 q 451 567 419 590 q 482 504 482 544 q 368 401 482 424 q 303 389 314 390 q 144 357 203 368 q 28 194 28 315 q 104 40 28 99 q 283 -19 181 -19 q 408 1 349 -19 q 510 63 467 21 q 560 8 525 28 q 663 -11 596 -11 q 778 28 735 -11 q 821 129 821 67 m 481 265 q 433 154 481 193 q 296 115 386 115 q 211 139 243 115 q 179 199 179 163 q 317 290 179 272 q 481 322 457 310 l 481 265 z "},"b":{"ha":774,"x_min":-21,"x_max":757,"o":"m 757 369 q 675 621 757 514 q 439 725 592 725 q 251 656 333 725 l 251 875 q 243 926 251 913 q 194 940 235 940 q 171 939 176 940 l 138 936 q 99 939 128 936 l 89 939 q 78 940 83 939 q 42 942 53 942 q -3 922 17 942 q -21 876 -21 904 q -4 838 -21 849 q 39 819 13 825 l 94 824 q 104 803 104 824 q 103 779 104 790 q 101 753 101 767 l 104 494 q 101 385 104 461 q 99 256 100 303 l 97 190 q 96 71 96 103 l 96 44 q 121 6 101 18 q 167 -7 140 -7 q 214 13 194 -7 q 232 60 232 31 l 229 101 l 192 89 q 285 7 232 35 q 415 -21 336 -21 q 669 93 582 -21 q 757 369 757 208 m 606 342 q 553 174 606 243 q 418 104 499 104 q 292 157 333 104 q 249 333 249 208 q 289 524 249 450 q 418 596 328 596 q 561 522 517 596 q 606 342 606 446 z "},"c":{"ha":694,"x_min":29,"x_max":672,"o":"m 672 247 q 649 286 672 269 q 600 301 625 301 q 558 285 583 301 q 532 249 532 268 q 482 149 532 197 q 369 100 432 100 q 233 169 283 100 q 183 346 183 239 q 238 519 183 451 q 372 586 290 586 q 449 571 411 586 q 499 525 485 557 q 454 492 468 514 q 438 449 438 469 q 464 386 438 413 q 526 360 490 360 q 628 399 597 360 q 658 485 658 435 q 576 654 658 593 q 382 714 496 714 q 129 610 228 714 q 29 342 29 504 q 125 75 29 175 q 372 -25 221 -25 q 583 54 494 -25 q 672 247 672 131 z "},"d":{"ha":811,"x_min":31,"x_max":838,"o":"m 838 53 q 826 101 838 79 q 788 124 815 122 q 746 122 761 124 q 703 118 715 119 q 688 143 688 118 q 689 178 688 163 q 688 203 688 179 l 688 254 q 689 342 688 318 l 689 411 q 693 613 689 474 q 697 771 694 668 q 699 854 697 815 q 690 914 699 888 q 654 939 681 939 l 481 942 q 424 929 447 942 q 401 885 401 917 q 414 839 401 860 q 447 818 426 818 q 489 819 474 818 q 531 824 513 822 l 533 824 q 544 815 540 824 q 547 786 547 801 q 546 760 546 776 l 546 736 l 546 651 q 513 678 535 661 q 478 701 500 685 q 361 719 424 719 q 183 671 264 719 q 68 533 103 621 q 31 351 31 444 q 126 81 31 181 q 376 -21 219 -21 q 557 28 521 -21 l 557 40 q 569 11 557 22 q 603 -1 581 -1 l 789 1 q 822 17 804 1 q 838 53 838 32 m 536 232 q 485 147 536 185 q 374 108 433 108 q 238 172 289 108 q 183 364 183 235 q 235 526 183 458 q 375 594 285 594 q 488 556 439 594 q 536 478 536 515 l 536 232 z "},"e":{"ha":732,"x_min":26,"x_max":704,"o":"m 704 410 q 614 624 704 536 q 388 711 525 711 q 119 599 211 711 q 26 322 26 485 q 113 81 26 179 q 361 -19 199 -19 q 589 47 492 -19 q 686 232 686 114 q 663 269 681 258 q 603 281 644 281 q 544 190 593 281 q 379 100 496 100 q 236 161 289 100 q 183 310 183 222 l 635 310 q 690 321 679 310 q 701 358 701 332 l 704 410 m 550 439 l 200 439 q 260 543 217 496 q 382 589 301 589 q 506 542 471 589 q 550 439 542 492 z "},"f":{"ha":581,"x_min":-8,"x_max":611,"o":"m 611 822 q 546 925 611 889 q 401 960 481 960 q 219 899 289 960 q 150 724 150 838 q 154 711 151 719 l 156 707 q 157 703 157 706 q 154 700 157 700 l 74 700 q 21 681 40 700 q 1 633 1 658 q 21 586 1 606 q 74 567 40 567 l 144 567 l 144 560 l 144 192 q 146 172 144 182 q 147 151 147 163 q 143 129 147 136 q 133 122 139 122 l 46 122 q 8 103 24 122 q -8 58 -8 82 q -4 33 -8 49 q 29 10 0 18 q 78 1 58 4 q 115 -1 103 -1 q 128 0 117 -1 q 149 1 132 0 q 182 3 167 3 q 186 3 183 3 q 263 0 224 1 l 303 -1 q 376 -3 357 -3 q 428 15 410 -3 q 444 57 444 32 q 440 82 444 68 q 424 108 436 99 q 393 119 410 119 l 303 119 q 290 139 290 119 q 292 151 292 144 q 293 164 292 158 q 294 189 294 172 l 294 560 l 299 567 l 401 567 q 447 586 431 567 q 464 633 464 606 q 447 681 464 663 q 401 700 431 700 l 293 700 q 292 706 293 701 q 290 710 292 707 q 294 724 294 722 q 326 811 294 779 q 407 842 357 842 q 446 832 432 842 l 440 807 q 458 754 440 772 q 524 735 478 735 q 593 754 574 735 q 611 822 611 772 z "},"g":{"ha":774,"x_min":28,"x_max":801,"o":"m 801 706 q 753 793 801 756 q 639 836 700 831 q 622 838 629 836 q 517 801 561 838 q 458 707 471 764 l 421 711 q 388 713 408 713 q 200 649 285 713 q 115 481 115 585 q 143 382 115 429 q 69 328 97 363 q 42 247 42 292 q 125 114 42 158 q 57 49 85 86 q 28 -19 28 10 q 121 -204 28 -150 q 386 -260 211 -260 q 644 -200 535 -260 q 754 -24 754 -142 q 606 161 754 121 q 236 200 458 200 q 196 217 211 206 q 181 247 181 225 q 192 272 181 261 q 213 281 203 281 q 242 272 229 275 q 300 254 275 261 q 401 239 354 239 q 599 297 519 239 q 678 476 678 356 q 575 665 678 588 q 590 707 579 692 q 629 722 601 722 q 653 715 642 722 q 636 676 636 701 q 656 626 636 649 q 700 604 674 604 q 779 635 757 604 q 801 706 801 665 m 531 474 q 492 396 531 426 q 396 363 453 363 q 308 389 340 363 q 268 460 275 413 q 267 475 268 468 q 306 556 267 525 q 399 586 342 586 q 492 557 453 586 q 531 474 531 526 m 607 -29 q 546 -106 607 -81 q 407 -131 486 -131 q 239 -114 304 -131 q 175 -33 175 -97 q 243 49 175 31 q 397 67 307 67 q 543 44 481 67 q 607 -29 607 22 z "},"h":{"ha":888,"x_min":8,"x_max":910,"o":"m 910 60 q 901 107 910 89 q 857 124 893 124 q 819 122 832 124 q 783 118 794 119 q 782 118 782 118 q 772 138 772 118 q 774 156 772 143 q 775 169 775 168 q 776 186 776 179 q 778 199 778 196 l 778 472 q 708 649 778 579 q 513 717 640 717 q 403 704 457 717 q 308 661 346 689 l 308 872 q 299 915 308 897 q 271 933 289 933 l 165 933 q 132 936 157 933 l 126 936 q 118 938 122 936 q 89 939 99 939 q 32 918 47 939 q 15 869 15 897 q 29 833 15 851 q 68 813 44 813 l 147 818 q 149 818 149 818 q 154 811 151 818 q 158 786 157 801 l 161 728 l 161 232 q 163 218 163 225 q 164 203 163 210 q 165 171 165 193 q 158 133 165 150 q 131 118 150 118 q 104 122 114 121 q 71 124 94 124 q 25 107 40 124 q 8 50 8 89 q 33 10 8 25 q 88 -6 57 -6 q 165 0 138 0 l 219 0 l 399 -3 q 439 15 421 -3 q 456 72 456 32 q 431 107 456 93 q 378 119 404 119 q 356 118 368 119 q 342 117 347 117 q 326 115 331 117 q 306 142 306 115 q 308 161 306 146 l 308 165 q 310 174 308 169 q 311 186 311 183 l 311 433 q 364 551 311 507 q 507 594 415 594 q 603 544 576 594 q 631 425 631 492 l 631 197 q 632 185 632 190 q 633 171 633 174 q 635 144 635 161 q 621 118 635 118 q 619 118 621 118 q 588 122 608 119 q 538 124 575 124 q 500 107 515 124 q 483 69 483 89 q 497 14 483 29 q 550 -3 510 -3 q 604 1 557 -3 q 681 6 650 6 q 731 4 690 6 q 753 3 746 3 q 776 1 760 3 q 825 0 815 0 q 889 10 868 0 q 910 60 910 18 z "},"i":{"ha":426,"x_min":7,"x_max":444,"o":"m 313 822 q 283 889 313 863 q 214 917 254 917 q 144 889 175 917 q 115 822 115 863 q 144 756 115 783 q 214 728 175 728 q 283 756 254 728 q 313 822 313 783 m 444 68 l 444 71 q 428 106 444 89 q 385 124 410 124 q 349 121 374 124 q 326 118 340 119 q 311 115 315 115 q 306 124 306 115 q 307 140 306 128 q 308 153 308 153 l 308 575 q 299 665 308 635 q 253 699 289 699 l 214 696 l 88 699 q 32 681 51 699 q 11 635 11 663 l 11 632 q 26 597 11 617 q 60 576 43 576 l 153 579 q 164 560 164 579 q 163 533 164 553 q 161 524 161 528 l 161 163 l 161 142 q 153 118 161 118 l 107 122 q 67 124 92 124 q 25 110 35 124 q 7 65 15 96 q 21 25 7 47 q 56 0 36 0 q 103 1 72 1 q 150 3 135 1 q 183 4 165 4 q 215 6 208 6 q 296 1 244 6 q 382 -3 349 -3 q 425 18 404 -3 q 444 68 444 38 z "},"j":{"ha":385,"x_min":-194,"x_max":292,"o":"m 292 822 q 263 890 292 864 q 193 918 233 918 q 124 890 154 918 q 94 822 94 864 q 124 757 94 785 q 193 729 151 729 q 263 757 233 729 q 292 822 292 785 m 292 638 q 279 689 292 676 q 242 701 265 701 l 57 701 q 10 682 29 701 q -11 636 -11 661 q 6 589 -11 601 q 53 575 21 575 q 86 578 63 575 l 90 578 q 110 581 99 579 q 128 583 119 582 q 139 571 139 583 q 138 557 139 569 l 136 543 l 136 11 q 108 -107 136 -67 q 3 -146 79 -146 q -32 -140 -22 -146 q -21 -97 -21 -121 q -47 -42 -21 -60 q -106 -24 -74 -24 q -168 -49 -143 -31 q -194 -115 -194 -69 q -135 -228 -194 -193 q 8 -264 -75 -264 q 221 -185 154 -264 q 286 11 286 -104 l 286 544 q 288 565 286 550 l 289 590 q 290 610 289 601 q 292 638 292 632 z "},"k":{"ha":888,"x_min":7,"x_max":899,"o":"m 896 67 q 879 106 896 88 q 836 124 863 124 q 803 122 821 124 q 767 118 778 121 q 749 131 760 119 q 700 190 740 139 l 517 419 l 668 556 q 683 569 676 564 q 701 579 692 578 q 744 578 708 578 q 810 576 765 576 q 842 596 829 579 q 854 635 854 613 q 828 686 854 672 q 764 701 800 701 l 675 694 q 574 699 656 694 l 550 699 q 433 701 463 701 q 388 683 406 701 q 368 643 368 664 q 376 594 368 614 q 417 576 382 576 q 451 578 436 576 l 458 579 q 503 583 490 582 l 507 585 l 303 403 l 303 854 q 292 915 303 890 q 228 936 279 936 l 68 936 q 26 915 43 936 q 8 869 8 893 q 21 832 8 851 q 57 813 32 813 q 106 817 71 813 q 146 821 139 818 q 156 796 156 819 l 156 769 l 156 181 q 157 150 156 165 q 139 115 157 115 q 106 119 126 118 q 54 121 90 121 q 24 103 38 121 q 7 65 10 85 q 19 29 7 49 q 51 1 32 10 l 382 0 q 436 29 426 0 q 444 67 444 57 q 431 104 444 90 q 397 121 417 119 l 361 121 q 342 119 351 119 q 322 118 326 118 q 308 129 313 118 q 303 169 303 139 l 303 239 l 407 328 l 553 143 q 560 139 556 142 q 568 132 565 135 q 574 126 571 129 q 579 119 576 122 q 567 122 568 122 q 550 125 553 124 l 528 125 q 486 108 507 125 q 465 61 465 92 q 481 18 465 38 q 518 0 494 0 q 574 4 531 0 l 593 6 q 643 7 631 7 q 713 3 661 7 q 794 -3 758 -3 q 867 8 833 -3 q 899 49 899 19 q 897 56 899 50 q 896 67 897 60 z "},"l":{"ha":426,"x_min":7,"x_max":443,"o":"m 443 65 q 432 106 443 86 q 389 124 419 124 q 360 122 378 124 q 338 121 347 121 q 315 119 321 121 q 308 131 308 119 q 310 149 308 136 q 311 163 311 161 l 311 688 l 315 858 q 308 914 315 893 q 267 942 303 931 l 176 935 l 107 940 q 40 926 67 940 q 11 878 11 913 q 29 832 11 846 q 63 815 49 815 q 89 817 69 815 q 103 818 92 817 q 146 822 128 819 q 161 789 161 822 l 161 758 l 161 158 q 128 121 161 121 l 121 121 l 54 124 q 21 106 35 124 q 7 60 7 88 q 28 14 7 29 q 71 0 46 0 l 194 3 l 361 -1 q 424 13 404 -1 q 443 65 443 28 z "},"m":{"ha":1275,"x_min":8,"x_max":1306,"o":"m 1304 72 q 1278 108 1300 96 q 1226 119 1253 119 q 1193 118 1204 119 q 1164 114 1176 117 l 1161 114 q 1153 128 1153 114 q 1156 140 1153 129 q 1157 151 1157 149 l 1158 161 q 1160 183 1160 179 l 1160 482 q 1082 644 1160 579 q 890 708 1004 708 q 767 689 822 708 q 667 625 711 668 q 476 706 593 706 q 375 688 421 706 q 282 636 322 667 q 268 674 275 661 q 242 688 258 688 l 101 690 q 88 692 94 690 q 35 676 58 692 q 13 628 13 660 q 29 588 13 608 q 63 567 46 567 q 86 568 69 567 l 106 569 q 126 571 111 569 q 147 572 142 571 q 161 547 161 572 q 160 519 161 540 l 158 504 l 158 156 q 160 136 158 146 q 146 111 160 111 l 68 119 q 32 107 43 119 q 8 67 18 88 q 25 19 8 40 q 68 -3 39 -3 l 211 0 l 363 -3 q 414 17 399 -3 q 428 63 428 35 q 404 104 428 89 q 350 117 379 117 l 304 114 q 303 128 303 118 l 301 132 l 303 138 l 303 149 l 303 458 q 354 546 303 511 q 465 582 407 582 q 547 550 508 582 q 585 471 585 517 l 585 160 q 586 147 585 158 q 588 126 586 143 q 582 113 588 113 q 574 114 582 113 q 549 119 554 118 l 544 119 q 507 122 519 122 q 464 106 483 122 q 446 65 446 89 q 467 6 446 14 q 497 0 483 0 l 508 0 l 808 0 q 846 14 828 0 q 864 53 864 28 q 853 103 864 81 q 804 122 840 122 q 790 121 801 122 q 772 119 783 121 q 754 117 764 118 q 736 114 739 114 q 728 131 728 114 q 729 146 729 138 q 731 160 729 153 q 732 186 732 169 l 732 475 q 772 551 732 515 q 868 586 811 586 q 968 553 925 586 q 1013 465 1013 519 l 1013 174 q 1017 154 1013 171 q 1018 143 1017 154 q 1019 128 1019 132 q 1014 117 1019 117 q 992 118 999 117 l 969 118 l 951 118 q 922 117 933 118 q 894 99 904 114 q 882 63 882 82 q 901 18 882 40 q 947 -3 921 -3 l 1244 -3 q 1293 21 1274 -3 q 1306 57 1306 38 q 1304 72 1306 67 z "},"n":{"ha":888,"x_min":6,"x_max":914,"o":"m 914 57 q 903 100 914 81 q 863 119 892 119 q 822 118 838 119 q 778 114 792 115 q 768 129 768 114 q 769 146 768 139 l 769 165 l 769 450 q 690 646 769 579 q 493 711 610 711 q 381 690 433 711 q 283 633 328 669 q 267 676 278 657 q 239 693 257 693 l 151 685 q 129 689 146 685 q 108 690 121 690 l 100 690 q 28 676 53 685 q 10 628 10 668 q 25 578 10 589 q 75 568 39 568 q 92 569 78 568 l 108 571 q 149 575 133 574 q 158 556 158 575 q 157 532 158 551 q 156 517 156 525 l 156 168 q 157 135 156 151 q 151 114 157 115 q 140 117 149 114 q 119 121 132 118 l 115 121 q 81 124 93 124 q 65 122 72 124 q 21 94 31 117 q 6 50 10 69 q 21 11 6 22 q 60 0 36 0 l 382 -3 q 428 18 411 -3 q 444 65 444 39 q 429 101 444 82 q 399 119 413 119 q 354 118 371 119 q 306 114 336 117 q 297 128 297 114 q 299 149 297 133 l 300 157 l 300 410 q 346 538 300 486 q 471 590 392 590 q 581 557 535 590 q 625 468 625 521 l 625 165 q 629 147 625 163 q 631 139 629 143 q 632 126 632 129 q 619 114 632 114 q 575 118 606 115 q 529 119 560 119 q 497 104 515 119 q 478 68 481 89 l 478 60 q 492 21 478 39 q 536 0 508 0 l 854 1 q 896 19 878 1 q 914 57 914 38 z "},"o":{"ha":774,"x_min":28,"x_max":718,"o":"m 718 347 q 631 615 718 511 q 369 718 543 718 q 121 607 213 718 q 28 347 28 497 q 119 92 28 200 q 369 -18 211 -18 q 633 86 549 -18 q 718 347 718 189 m 565 347 q 519 176 565 247 q 369 106 472 106 q 231 175 279 106 q 183 347 183 243 q 231 521 183 449 q 369 593 278 593 q 522 524 478 593 q 565 347 565 456 z "},"p":{"ha":849,"x_min":-6,"x_max":807,"o":"m 807 342 q 728 607 807 499 q 496 714 646 714 q 367 697 425 714 q 292 657 307 678 l 292 633 q 276 678 292 663 q 233 690 260 690 l 68 693 q 21 676 33 693 q 7 625 7 661 q 21 585 7 603 q 54 565 33 565 l 140 572 q 147 563 147 572 q 146 550 147 560 q 144 533 146 543 l 144 -24 q 146 -40 144 -26 q 147 -56 146 -49 q 149 -89 149 -67 q 126 -126 149 -126 l 124 -126 q 110 -124 119 -126 q 92 -121 99 -122 l 88 -121 q 57 -118 67 -118 q 8 -140 22 -118 q -6 -176 -6 -158 q -4 -185 -6 -182 q 10 -225 -4 -207 q 54 -244 22 -244 q 65 -244 57 -244 q 132 -242 90 -243 q 174 -240 156 -242 q 232 -239 221 -239 l 338 -247 q 406 -233 379 -247 q 432 -183 432 -219 q 419 -140 432 -157 q 365 -121 407 -125 q 361 -121 365 -121 q 336 -124 353 -122 l 322 -125 q 308 -126 310 -126 l 304 -126 q 289 -97 289 -126 q 290 -85 289 -92 q 292 -67 290 -74 l 292 26 q 371 -14 326 3 q 456 -29 413 -29 q 719 78 632 -29 q 807 342 807 185 m 650 354 q 610 169 650 246 q 461 93 571 93 q 336 153 375 93 q 294 297 294 214 q 344 531 294 472 q 489 588 394 588 q 613 521 574 588 q 650 354 650 453 z "},"q":{"ha":811,"x_min":31,"x_max":840,"o":"m 839 -194 q 840 -183 840 -190 q 831 -147 840 -165 q 792 -124 818 -124 q 756 -125 775 -124 q 706 -129 725 -128 q 694 -119 696 -128 q 693 -89 693 -114 q 689 124 692 10 q 688 344 688 200 l 690 583 q 678 665 690 631 q 629 699 664 699 q 583 681 606 699 q 560 642 560 661 q 364 710 479 710 q 122 617 211 710 q 31 350 31 524 q 122 79 31 190 q 368 -31 211 -31 q 540 19 468 -31 l 540 -108 q 517 -129 540 -129 q 501 -128 506 -129 l 489 -124 l 458 -121 q 410 -144 432 -121 q 393 -186 393 -164 q 394 -197 393 -193 q 415 -233 401 -221 q 456 -247 429 -247 q 543 -244 485 -247 l 547 -244 q 571 -243 554 -244 q 619 -242 610 -242 q 701 -243 665 -242 q 779 -244 736 -244 q 818 -231 804 -244 q 839 -194 833 -215 m 539 319 q 503 157 539 218 q 364 96 465 96 q 232 171 278 96 q 186 350 186 244 q 233 514 186 446 q 364 583 282 583 q 493 528 447 583 q 539 319 539 472 z "},"r":{"ha":657,"x_min":-7,"x_max":685,"o":"m 683 497 q 685 514 683 507 q 613 660 685 601 q 444 717 539 717 q 346 703 388 717 q 268 650 306 689 q 256 679 264 667 q 233 690 244 690 l 49 690 q 10 669 26 690 q -7 625 -7 649 q 13 585 -7 600 q 49 569 32 569 q 83 575 63 569 q 108 579 107 579 q 122 572 118 579 q 146 557 146 572 q 144 549 144 553 q 143 539 143 540 q 142 518 142 532 l 142 156 q 143 133 142 143 q 131 117 143 117 q 125 118 126 118 q 101 122 110 121 q 57 124 89 124 q 11 106 28 124 q -7 57 -7 88 q 11 15 -7 29 q 54 0 31 0 l 256 6 l 374 0 q 425 18 408 6 q 439 71 439 28 q 419 110 439 94 q 376 124 400 124 q 340 122 358 124 q 310 118 331 122 l 294 117 q 286 128 286 117 q 288 143 286 132 q 289 150 288 143 l 289 350 q 315 528 289 465 q 432 590 343 590 q 510 571 486 590 q 532 519 532 553 l 532 514 l 521 515 q 476 497 496 515 q 456 446 456 479 q 475 386 456 408 q 532 364 493 364 q 636 400 593 364 q 683 497 676 435 z "},"s":{"ha":694,"x_min":43,"x_max":656,"o":"m 656 206 q 542 364 656 321 q 328 410 400 394 q 219 503 219 433 q 253 568 219 542 q 339 596 288 596 q 446 568 406 596 q 486 469 486 539 q 511 426 486 443 q 553 408 533 408 q 601 422 588 408 q 617 458 617 438 l 618 685 q 599 717 618 706 q 556 726 581 726 q 508 717 522 726 q 490 686 493 706 q 358 719 428 719 q 153 656 238 719 q 67 485 67 590 q 113 371 67 417 q 192 317 157 325 l 443 265 q 494 235 474 260 q 510 189 510 213 q 508 178 510 182 q 453 117 489 136 q 367 99 418 99 q 236 126 296 99 q 176 208 176 153 l 175 258 q 154 297 172 283 q 108 313 132 313 q 64 292 83 313 q 44 242 44 268 q 50 185 44 218 q 56 124 56 151 q 46 57 51 101 l 44 49 q 43 28 43 33 q 44 19 43 21 q 71 -25 50 -7 q 104 -37 86 -37 q 115 -36 111 -37 q 165 -24 147 -36 q 183 13 183 -14 l 183 18 q 258 -15 232 -7 q 353 -24 286 -24 q 571 33 485 -24 q 656 206 656 89 z "},"t":{"ha":540,"x_min":-18,"x_max":544,"o":"m 544 267 l 544 288 q 532 347 544 326 q 479 368 519 368 q 429 357 454 368 q 407 308 407 344 q 408 292 407 296 q 410 278 410 288 l 410 256 q 393 157 410 201 q 328 113 376 113 q 265 147 282 113 q 249 236 249 183 l 249 561 q 247 569 247 564 l 401 569 q 456 592 438 569 q 475 642 475 614 q 457 688 475 669 q 404 706 439 706 l 253 706 l 249 707 l 249 850 q 228 896 249 879 q 178 911 206 911 q 126 894 150 911 q 104 850 104 878 l 104 713 q 100 706 104 708 l 46 706 q -1 686 15 706 q -18 640 -18 668 q 1 592 -18 614 q 51 569 19 569 l 94 569 q 101 561 100 569 l 101 163 q 169 39 101 85 q 325 -8 235 -8 q 489 49 432 -8 q 544 267 544 104 z "},"u":{"ha":849,"x_min":-22,"x_max":878,"o":"m 878 68 q 863 107 878 94 q 819 122 844 121 q 792 121 804 122 q 771 118 783 119 q 758 115 761 115 l 751 115 q 729 129 733 115 q 725 171 725 144 q 726 211 725 179 q 728 251 726 233 q 729 364 729 281 l 736 636 q 729 676 736 660 q 697 690 724 690 l 515 692 q 481 674 493 692 q 467 629 467 656 q 481 586 467 601 q 518 568 493 568 l 581 568 q 586 546 586 564 q 585 506 586 524 l 585 371 q 558 174 585 240 q 414 104 531 104 q 290 164 317 104 q 263 328 263 226 l 263 654 q 246 681 263 667 q 210 694 228 694 q 185 693 201 694 q 178 692 181 692 l 169 690 q 149 689 154 689 q 114 690 140 689 l 100 692 l 86 693 q 51 694 60 694 q -1 678 19 694 q -22 632 -22 661 l -22 626 q -14 594 -22 622 q 42 568 -8 568 q 57 569 46 568 l 76 571 q 93 572 82 571 q 111 574 107 572 q 128 546 128 572 q 128 539 128 544 q 125 515 126 531 q 121 475 121 489 l 121 215 q 192 46 121 113 q 388 -22 260 -22 q 518 -3 451 -22 q 594 35 579 15 l 594 51 q 613 14 594 28 q 657 -1 631 -1 l 826 -1 q 878 68 878 -1 z "},"v":{"ha":888,"x_min":-21,"x_max":883,"o":"m 883 644 q 869 678 883 660 q 833 694 856 694 l 817 694 q 749 692 786 693 q 618 688 672 688 q 571 693 600 688 q 529 697 538 697 q 471 683 489 697 q 451 632 451 668 q 468 589 451 608 q 501 571 485 571 q 522 572 511 572 q 543 574 533 572 q 589 575 557 575 q 590 569 590 574 q 589 561 590 565 q 579 532 588 556 l 578 528 l 439 168 l 285 556 l 283 558 q 282 569 282 567 q 283 575 282 574 q 304 571 292 574 q 335 568 321 568 q 364 572 347 568 q 397 590 376 574 q 414 632 414 606 q 399 675 414 656 q 350 694 383 694 l 143 688 q 93 692 117 690 q 51 693 76 693 q 8 688 32 693 q -21 626 -21 682 q -4 585 -21 604 q 43 567 13 567 q 75 571 53 567 l 81 571 q 114 574 106 574 q 125 563 121 574 l 126 558 q 128 542 128 546 l 331 54 q 435 -21 363 -21 q 538 54 507 -21 l 733 528 q 746 557 740 544 q 763 575 751 568 q 779 574 765 575 q 794 572 788 574 q 829 571 804 571 q 874 590 863 571 q 883 644 883 608 z "},"w":{"ha":1158,"x_min":-18,"x_max":1161,"o":"m 1161 632 q 1143 672 1161 654 q 1103 692 1124 692 l 1018 686 l 879 686 l 776 692 q 732 674 750 692 q 711 626 711 656 q 724 582 711 597 q 764 568 736 568 q 790 569 771 568 l 813 571 q 833 572 824 572 q 863 574 857 574 q 871 558 871 569 q 869 542 871 554 q 868 536 868 536 q 861 507 867 529 q 858 494 861 506 l 778 183 l 693 558 q 646 663 679 625 q 572 696 613 696 q 504 658 538 696 q 454 558 469 621 l 365 182 l 283 493 q 276 524 283 499 q 268 551 268 547 q 289 575 268 569 q 300 574 290 575 q 319 572 304 574 q 357 568 343 568 q 411 581 389 568 q 432 633 432 593 q 415 678 432 664 q 339 692 397 692 l 140 685 q 83 689 118 686 q 71 690 76 689 q 33 692 44 692 q -6 669 4 692 q -18 629 -18 647 q -4 582 -18 597 q 43 564 10 564 l 51 564 q 63 565 58 564 l 81 571 l 114 571 q 119 564 119 571 l 119 546 l 253 72 q 296 6 268 28 q 363 -17 324 -17 q 435 14 403 -17 q 485 111 468 46 l 571 479 l 654 104 q 701 11 669 42 q 775 -21 736 -21 q 844 11 811 -21 q 893 103 876 43 l 989 442 q 1011 528 1001 492 q 1036 571 1021 569 q 1074 569 1057 571 q 1108 568 1089 568 q 1153 585 1143 568 q 1161 632 1161 601 z "},"x":{"ha":888,"x_min":-10,"x_max":894,"o":"m 890 649 q 869 681 883 671 q 825 692 854 692 l 807 692 q 782 690 793 692 q 751 689 771 689 l 696 689 l 526 692 q 482 678 500 692 q 463 628 463 663 q 481 581 463 593 q 533 567 499 567 q 550 569 539 567 l 553 569 q 568 574 564 572 q 563 588 568 586 l 449 464 l 443 461 l 335 586 l 342 571 l 356 569 q 419 588 407 569 q 431 642 431 607 q 408 678 431 660 q 353 694 386 694 q 326 693 349 694 l 300 692 q 236 688 261 688 l 76 692 q 29 674 43 692 q 13 628 13 656 q 26 586 13 610 q 63 565 38 565 q 78 567 72 565 l 126 574 q 164 560 150 574 l 346 357 l 168 164 l 161 157 q 144 138 150 143 q 121 119 132 125 l 57 124 q 11 104 31 124 q -10 64 -10 83 q 10 17 -10 36 q 60 -3 29 -3 q 122 1 63 -3 q 221 6 183 6 l 324 -3 q 407 14 390 -3 q 424 65 424 31 q 404 104 424 85 q 360 122 385 122 q 325 115 350 122 q 300 110 308 110 q 299 110 299 110 l 297 106 l 438 260 l 579 106 l 583 101 q 567 100 578 100 q 504 119 513 119 q 472 101 486 119 q 457 56 457 82 q 472 18 457 38 q 514 0 486 0 l 685 4 l 801 -3 q 869 15 851 -3 q 889 58 889 35 q 876 104 889 83 q 832 124 864 124 q 813 122 822 122 q 792 121 796 121 q 751 119 778 119 q 747 125 749 122 q 739 133 743 128 l 539 357 l 538 360 l 539 363 q 539 364 539 364 l 682 521 q 750 574 714 557 q 771 572 754 574 q 783 571 776 572 q 797 569 785 571 q 815 568 810 568 q 869 583 842 568 q 894 625 894 599 q 890 649 894 636 z "},"y":{"ha":869,"x_min":-49,"x_max":878,"o":"m 878 631 q 861 681 878 667 q 794 694 843 694 q 747 690 775 694 q 701 686 721 686 q 636 690 697 686 q 529 694 576 694 q 483 676 501 694 q 463 635 463 658 q 461 625 461 631 q 472 592 461 610 q 508 569 485 569 q 539 571 517 569 l 557 572 q 607 574 578 574 l 607 568 q 590 550 599 560 l 440 160 l 300 557 q 294 567 297 563 q 290 574 290 571 l 343 572 q 404 588 389 572 q 419 628 419 603 l 419 636 q 336 697 419 697 q 256 692 313 697 q 149 686 199 686 q 113 692 136 686 q 67 696 83 696 q 53 694 58 696 q -1 682 18 694 q -21 626 -21 667 q -1 582 -21 597 q 39 568 17 568 q 64 569 46 568 q 76 571 67 569 q 121 572 93 572 q 135 561 132 572 l 136 554 q 140 529 139 538 l 339 40 q 346 3 346 24 q 290 -103 346 -56 q 175 -151 233 -151 q 126 -143 139 -151 q 149 -118 138 -136 q 157 -87 157 -104 q 126 -25 157 -47 q 57 -3 96 -3 q -18 -35 14 -3 q -49 -117 -49 -65 q 22 -235 -49 -192 q 176 -279 94 -279 q 374 -204 282 -279 q 546 65 465 -131 l 735 521 q 747 549 739 529 q 767 574 753 563 l 822 569 q 839 568 829 569 q 867 581 857 568 q 878 631 878 594 z "},"z":{"ha":732,"x_min":25,"x_max":694,"o":"m 694 240 q 685 314 694 293 q 631 336 675 336 q 585 319 608 336 q 563 283 563 303 l 563 176 q 551 143 561 160 q 501 128 540 128 l 225 128 l 639 524 q 682 581 667 549 q 692 624 692 601 l 692 632 q 663 678 688 661 q 586 694 638 694 l 265 694 q 197 699 232 696 q 146 700 176 700 q 92 688 121 700 q 63 651 63 675 l 63 444 q 83 411 63 426 q 119 396 106 396 q 174 411 151 396 q 193 454 193 426 q 194 469 193 463 q 189 511 194 488 q 183 551 183 535 q 196 568 186 564 q 225 571 210 571 q 261 569 246 571 l 481 569 l 67 171 q 25 86 25 129 q 53 25 25 51 q 125 0 81 0 l 626 0 q 669 10 651 3 q 689 54 689 18 q 688 85 688 64 l 688 114 q 692 165 688 118 q 693 182 692 174 q 694 240 694 222 z "},"{":{"ha":461,"x_min":33,"x_max":436,"o":"m 436 -111 q 360 -76 436 -90 q 283 -28 283 -62 l 283 267 q 265 336 283 306 q 218 389 247 365 q 265 446 247 413 q 283 514 283 481 l 283 810 q 360 856 283 846 q 436 894 436 865 l 436 900 q 404 939 436 926 q 321 953 371 953 q 149 897 175 953 q 121 815 121 840 l 121 517 q 100 447 121 471 q 33 410 79 425 l 36 371 q 121 265 121 357 l 121 -31 q 183 -132 121 -97 q 325 -167 243 -167 q 401 -154 367 -167 q 436 -111 436 -142 z "},"|":{"ha":375,"x_min":100,"x_max":256,"o":"m 256 -146 l 256 908 l 100 908 l 100 -146 l 256 -146 z "},"}":{"ha":461,"x_min":6,"x_max":408,"o":"m 408 410 q 342 447 361 425 q 321 517 321 471 l 321 815 q 268 914 321 874 q 121 953 217 953 q 39 939 72 953 q 6 899 6 926 l 6 894 q 82 856 6 865 q 158 810 158 846 l 158 514 q 224 389 158 438 q 176 336 192 367 q 158 267 158 306 l 158 -28 q 82 -76 158 -62 q 6 -111 6 -90 q 32 -151 6 -137 q 117 -167 60 -167 q 260 -132 200 -167 q 321 -31 321 -99 l 321 265 q 406 371 321 357 l 408 410 z "},"~":{"ha":436,"x_min":-19,"x_max":460,"o":"m 460 444 q 450 468 460 454 q 424 481 440 481 q 392 458 404 467 q 351 446 374 446 q 226 468 314 446 q 133 489 138 489 q 26 457 71 489 q -19 378 -19 426 q 17 342 -19 349 q 46 363 28 350 q 97 375 65 375 q 200 356 125 375 q 300 336 275 336 q 407 361 353 336 q 460 444 460 386 z "},"‚":{"ha":458,"x_min":124,"x_max":367,"o":"m 367 46 q 338 139 367 101 q 243 185 308 174 q 160 160 196 185 q 124 86 124 132 q 185 14 124 25 q 246 -1 246 3 q 221 -108 246 -69 q 161 -179 193 -150 q 172 -203 161 -187 q 196 -217 182 -217 q 313 -128 257 -217 q 367 46 367 -39 z "},"ƒ":{"ha":581,"x_min":-172,"x_max":611,"o":"m 611 821 q 546 925 611 889 q 401 960 481 960 q 219 897 289 960 q 150 722 150 835 q 154 707 151 718 l 156 704 q 157 700 157 703 q 154 697 157 697 l 74 697 q 21 678 40 697 q 1 631 1 656 q 21 583 1 603 q 74 564 40 564 l 144 564 l 144 557 l 144 496 l 144 -44 q 113 -132 144 -100 q 32 -162 82 -162 q -7 -153 7 -162 l -1 -126 q -25 -69 -1 -85 q -86 -54 -49 -54 q -153 -74 -133 -54 q -172 -143 -172 -96 q -106 -246 -172 -211 q 38 -282 -40 -282 q 222 -219 150 -282 q 294 -44 294 -157 l 294 182 l 294 557 l 299 564 l 401 564 q 447 583 431 564 q 464 631 464 603 q 447 678 464 660 q 401 697 431 697 l 293 697 q 292 703 293 699 q 290 707 292 704 q 294 722 294 719 q 326 810 294 778 q 407 840 357 840 q 446 831 432 840 l 440 806 q 458 751 440 769 q 524 732 475 732 q 593 753 575 732 q 611 821 611 771 z "},"„":{"ha":750,"x_min":124,"x_max":617,"o":"m 617 46 q 588 139 617 101 q 493 185 558 174 q 410 160 446 185 q 374 86 374 132 q 435 14 374 25 q 496 -1 496 3 q 471 -108 496 -69 q 411 -179 443 -150 q 422 -203 411 -187 q 446 -217 432 -217 q 563 -128 507 -217 q 617 46 617 -39 m 367 46 q 338 139 367 101 q 243 185 308 174 q 160 160 196 185 q 124 86 124 132 q 185 14 124 25 q 246 -1 246 3 q 221 -108 246 -69 q 161 -179 193 -150 q 172 -203 161 -187 q 196 -217 182 -217 q 313 -128 257 -217 q 367 46 367 -39 z "},"…":{"ha":1246,"x_min":104,"x_max":1211,"o":"m 324 78 q 293 142 324 115 q 215 168 263 168 q 138 142 169 168 q 104 79 104 115 q 136 15 104 43 q 213 -11 167 -11 q 290 15 258 -11 q 324 78 324 43 m 757 78 q 726 142 757 115 q 649 168 696 168 q 571 142 603 168 q 538 79 538 115 q 569 15 538 43 q 646 -11 600 -11 q 724 15 692 -11 q 757 78 757 43 m 1211 78 q 1181 142 1211 115 q 1103 168 1150 168 q 1025 142 1057 168 q 992 79 992 115 q 1024 15 992 43 q 1100 -11 1054 -11 q 1178 15 1146 -11 q 1211 78 1211 43 z "},"†":{"ha":888,"x_min":126,"x_max":760,"o":"m 760 654 q 740 706 760 683 q 668 725 721 725 q 588 717 633 725 q 560 711 574 714 q 499 701 517 704 q 521 797 510 743 q 528 863 528 842 q 504 924 528 896 q 444 950 481 950 q 386 924 413 950 q 358 860 358 896 q 368 781 358 819 q 389 700 375 753 l 313 714 q 261 724 267 722 q 200 726 228 726 q 150 707 174 726 q 126 647 126 686 q 147 594 126 615 q 201 574 168 574 q 281 578 243 574 q 386 599 318 582 q 363 521 368 547 q 356 457 356 486 l 358 422 l 411 -167 q 446 -232 411 -232 q 479 -167 479 -232 l 531 422 l 533 454 q 526 528 533 493 q 503 599 519 553 q 604 579 572 583 q 668 575 640 575 q 733 592 707 575 q 760 654 760 608 z "},"‡":{"ha":888,"x_min":128,"x_max":758,"o":"m 758 450 q 728 507 758 486 q 653 526 696 526 q 592 521 619 526 q 504 499 553 514 q 515 528 514 521 q 517 556 517 533 q 501 621 517 588 q 589 601 564 606 q 646 597 618 597 q 726 618 696 597 q 758 678 758 638 q 724 732 758 711 q 643 751 688 751 q 574 744 608 751 q 494 722 531 733 l 497 729 q 517 786 514 774 q 522 843 522 807 q 504 919 522 889 q 444 950 486 950 q 389 919 407 950 q 365 843 369 888 q 372 781 365 811 q 394 721 376 761 l 319 742 q 235 751 279 751 q 160 725 190 751 q 128 668 128 697 q 160 615 132 636 q 235 594 188 594 q 314 601 279 594 q 388 621 353 610 q 376 588 378 600 q 372 556 372 574 q 376 525 372 538 q 388 494 378 517 l 236 528 q 160 507 192 528 q 128 449 128 483 q 163 396 128 418 q 235 372 199 372 q 292 375 267 372 q 358 390 303 376 q 383 397 365 393 q 379 390 382 393 q 367 367 369 374 q 361 328 361 356 l 361 300 l 406 -172 q 446 -232 411 -232 q 471 -217 460 -232 q 485 -172 483 -200 l 528 300 l 528 332 q 506 397 524 367 q 597 376 575 381 q 660 372 621 372 q 732 390 706 372 q 758 450 758 408 z "},"ˆ":{"ha":483,"x_min":-22,"x_max":501,"o":"m 485 840 l 271 964 q 244 975 251 975 q 215 964 240 975 l 4 840 q -22 811 -22 826 q -7 792 -22 799 q 28 783 8 783 q 42 785 39 783 l 242 847 q 326 822 254 844 q 422 792 381 804 q 461 782 447 782 q 492 792 482 782 q 501 814 501 801 q 485 840 501 831 z "},"‰":{"ha":1725,"x_min":22,"x_max":1685,"o":"m 1685 294 q 1622 519 1685 435 q 1435 606 1560 606 q 1243 517 1314 606 q 1172 294 1172 428 q 1242 68 1172 146 q 1435 -11 1311 -11 q 1618 63 1549 -11 q 1685 294 1685 136 m 1561 293 q 1532 151 1561 210 q 1435 92 1501 92 q 1329 151 1367 92 q 1290 294 1290 208 q 1332 438 1290 374 q 1435 503 1372 503 q 1532 439 1503 503 q 1561 293 1561 375 m 1172 294 q 1110 519 1172 435 q 922 606 1047 606 q 731 517 801 606 q 660 294 660 428 q 729 68 660 146 q 922 -11 799 -11 q 1106 63 1036 -11 q 1172 294 1172 136 m 1049 293 q 1019 151 1049 210 q 922 92 989 92 q 817 151 854 92 q 778 294 778 208 q 819 438 778 374 q 922 503 860 503 q 1019 439 990 503 q 1049 293 1049 375 m 946 913 q 947 933 946 925 q 919 953 947 953 l 863 953 q 844 946 856 953 q 831 931 836 940 l 250 39 q 246 11 250 31 q 279 -6 246 -6 l 328 -6 q 349 1 342 -6 q 361 13 357 10 l 946 913 m 535 636 q 474 865 535 783 q 285 947 411 947 q 94 857 168 947 q 22 636 22 768 q 92 410 22 488 q 285 331 161 331 q 467 408 397 331 q 535 636 535 485 m 411 636 q 376 494 411 554 q 285 433 340 433 q 179 493 217 433 q 140 636 140 553 q 181 781 140 715 q 285 844 219 844 q 383 788 356 844 q 411 636 411 728 z "},"Š":{"ha":774,"x_min":28,"x_max":764,"o":"m 764 271 q 699 439 764 365 q 542 528 635 511 l 338 565 q 246 604 283 575 q 211 683 211 631 q 264 788 211 746 q 381 828 317 828 q 517 797 458 828 q 576 707 576 767 q 576 699 576 706 q 574 678 574 685 q 572 663 574 669 q 571 639 571 644 q 588 561 571 589 q 656 535 601 535 q 708 561 694 535 q 721 636 721 586 q 721 640 721 638 q 718 661 719 651 q 717 672 718 667 q 715 692 715 688 q 719 785 715 729 q 724 879 724 842 q 704 928 724 908 q 653 947 685 947 q 610 931 626 947 q 592 888 592 913 l 592 901 q 510 942 558 928 q 390 957 456 957 q 147 879 246 957 q 47 679 47 800 q 124 506 47 569 q 300 421 200 442 l 533 376 q 585 333 565 371 q 603 217 603 297 q 542 135 603 168 q 407 101 479 101 q 239 154 292 101 q 179 258 188 206 q 171 319 171 311 q 172 346 171 328 l 174 360 q 156 410 174 390 q 103 431 138 431 q 54 415 82 431 q 28 379 28 399 q 32 275 28 363 q 36 125 36 188 q 32 100 36 124 q 28 56 28 75 q 43 -6 28 17 q 103 -26 58 -26 q 147 -11 124 -26 q 169 32 169 3 l 169 46 q 269 -7 224 7 q 408 -24 318 -24 q 661 57 560 -24 q 764 271 764 136 m 639 1151 q 654 1178 654 1160 q 644 1200 654 1190 q 615 1210 635 1210 q 575 1200 603 1210 q 497 1175 550 1192 q 396 1146 465 1165 l 196 1207 q 182 1208 193 1208 q 149 1201 165 1208 q 132 1182 132 1193 q 140 1165 132 1174 q 158 1151 149 1158 l 369 1028 l 376 1025 q 397 1017 394 1017 q 425 1028 406 1017 l 639 1151 z "},"‹":{"ha":310,"x_min":4,"x_max":228,"o":"m 222 126 l 153 318 l 221 499 q 226 522 226 514 q 215 551 226 538 q 186 563 201 563 q 147 540 164 563 l 8 338 q 4 318 4 328 q 10 300 4 306 l 150 90 q 194 63 169 63 q 228 100 228 63 q 222 126 228 115 z "},"Œ":{"ha":1443,"x_min":26,"x_max":1393,"o":"m 1393 63 q 1386 154 1393 89 q 1379 250 1379 219 q 1381 261 1379 253 q 1382 282 1382 272 q 1383 294 1383 292 q 1385 319 1385 313 q 1365 382 1385 351 q 1313 411 1344 411 q 1263 394 1283 411 q 1242 354 1242 378 l 1244 267 l 1244 218 l 1244 200 q 1233 151 1244 171 q 1183 132 1221 132 l 888 122 q 871 133 874 122 q 868 175 868 147 l 868 360 q 878 406 868 396 q 904 415 886 415 l 989 415 q 1011 414 1006 415 q 1025 410 1017 413 l 1032 265 q 1056 232 1035 246 q 1094 218 1075 218 q 1153 243 1139 218 q 1167 313 1167 265 q 1156 397 1158 368 q 1151 460 1151 439 q 1156 508 1151 464 q 1158 549 1157 524 q 1167 660 1164 624 q 1149 710 1167 688 q 1099 735 1131 733 q 1046 706 1065 735 q 1028 649 1028 679 l 1028 640 l 1033 561 q 1019 547 1033 551 q 981 542 1007 542 l 892 542 q 868 568 868 542 l 868 743 q 893 793 868 788 q 963 799 915 799 l 1172 794 q 1226 769 1217 794 q 1236 707 1236 746 l 1233 571 q 1254 528 1233 540 q 1304 514 1274 514 q 1361 543 1347 514 q 1376 613 1376 571 l 1371 676 q 1378 760 1371 693 q 1385 863 1385 826 q 1357 914 1385 894 q 1300 932 1331 932 q 1158 928 1286 932 q 906 918 989 922 q 760 926 872 918 l 753 926 q 607 933 631 933 q 458 957 539 957 q 139 814 249 957 q 26 464 26 671 q 136 113 26 251 q 446 -28 247 -28 q 529 -21 485 -28 q 603 -3 561 -15 q 782 6 701 1 q 885 10 861 10 q 979 7 893 10 q 1100 3 1056 4 q 1303 -7 1285 -3 l 1308 -7 q 1357 10 1324 -7 q 1393 63 1393 29 m 708 469 q 644 215 708 321 q 446 108 579 108 q 257 210 321 108 q 193 449 193 311 q 256 719 193 610 q 456 829 318 829 q 650 724 592 829 q 708 469 708 618 z "},"‘":{"ha":458,"x_min":54,"x_max":297,"o":"m 297 669 q 236 742 297 731 q 175 757 175 753 q 201 864 175 824 q 260 936 225 904 q 249 960 260 944 q 225 972 236 972 q 110 883 164 972 q 54 710 54 794 q 83 618 54 654 q 178 571 113 582 q 261 597 226 571 q 297 669 297 622 z "},"’":{"ha":458,"x_min":97,"x_max":340,"o":"m 340 835 q 311 928 340 890 q 217 974 282 963 q 133 949 169 974 q 97 875 97 921 q 158 803 97 814 q 219 788 219 792 q 194 681 219 721 q 135 610 167 639 q 146 586 135 601 q 169 572 156 572 q 286 661 231 572 q 340 835 340 751 z "},"“":{"ha":639,"x_min":101,"x_max":597,"o":"m 597 669 q 536 742 597 731 q 475 757 475 753 q 501 864 475 824 q 560 936 525 904 q 549 960 560 944 q 525 972 536 972 q 410 883 464 972 q 354 710 354 794 q 383 618 354 654 q 478 571 413 582 q 561 597 526 571 q 597 669 597 622 m 344 669 q 283 742 344 731 q 222 757 222 753 q 249 864 222 824 q 307 936 272 904 q 296 960 307 944 q 272 972 283 972 q 157 883 211 972 q 101 710 101 794 q 131 618 101 654 q 225 571 160 582 q 308 597 274 571 q 344 669 344 622 z "},"”":{"ha":694,"x_min":119,"x_max":615,"o":"m 615 818 q 586 911 615 874 q 492 957 557 946 q 408 932 444 957 q 372 858 372 904 q 433 786 372 797 q 494 771 494 775 q 469 664 494 704 q 410 593 442 622 q 421 569 410 585 q 444 556 431 556 q 561 644 506 556 q 615 818 615 735 m 363 818 q 333 911 363 874 q 239 957 304 946 q 156 932 192 957 q 119 858 119 904 q 181 786 119 797 q 242 771 242 775 q 217 664 242 704 q 157 593 189 622 q 168 569 157 585 q 192 556 178 556 q 308 644 253 556 q 363 818 363 735 z "},"•":{"ha":271,"x_min":24,"x_max":251,"o":"m 251 415 q 219 482 251 454 q 138 508 188 508 q 57 481 92 508 q 24 415 24 454 q 57 350 24 378 q 138 324 89 324 q 219 350 188 324 q 251 415 251 378 z "},"–":{"ha":694,"x_min":33,"x_max":653,"o":"m 575 319 q 633 335 611 319 q 653 369 653 350 q 575 418 653 418 l 114 418 q 54 404 72 418 q 33 368 33 390 q 56 335 33 349 q 114 319 78 319 l 575 319 z "},"—":{"ha":1079,"x_min":35,"x_max":1039,"o":"m 965 319 q 1019 335 1000 319 q 1039 367 1039 350 q 1019 403 1039 388 q 965 418 1000 418 l 114 418 q 57 403 79 418 q 35 367 35 389 q 56 333 35 349 q 114 319 74 319 l 965 319 z "},"˜":{"ha":436,"x_min":-19,"x_max":460,"o":"m 460 910 q 450 933 460 919 q 424 946 440 946 q 392 924 404 932 q 351 911 374 911 q 226 933 314 911 q 133 954 138 954 q 26 922 71 954 q -19 843 -19 892 q 17 807 -19 814 q 46 828 28 815 q 97 840 65 840 q 200 821 125 840 q 300 801 275 801 q 407 826 353 801 q 460 910 460 851 z "},"™":{"ha":1097,"x_min":-10,"x_max":1096,"o":"m 1096 654 q 1085 681 1094 669 q 1063 690 1076 690 l 1014 690 l 1011 690 q 1006 700 1006 690 q 1007 718 1006 710 l 1007 976 q 1006 989 1007 982 q 1004 996 1004 992 q 1007 1000 1004 1000 l 1063 1000 q 1085 1014 1075 1000 q 1094 1042 1094 1028 q 1075 1074 1094 1067 q 1038 1079 1058 1079 q 1018 1078 1028 1079 q 976 1076 1008 1076 q 939 1078 951 1076 q 924 1079 931 1079 q 908 1081 913 1081 l 906 1081 q 881 1071 894 1081 q 857 1040 863 1057 l 769 757 l 690 1018 q 669 1061 685 1042 q 636 1079 656 1079 l 561 1076 l 496 1081 l 492 1081 q 460 1069 475 1081 q 443 1040 443 1057 q 454 1015 443 1031 q 478 1000 465 1000 l 524 1001 q 532 989 532 1001 l 532 974 l 532 718 q 536 700 533 711 l 536 697 q 529 690 536 690 l 478 690 q 453 678 460 690 q 444 651 444 664 q 458 617 444 622 q 504 611 469 611 l 563 618 l 669 611 q 713 646 694 613 q 703 676 713 663 q 674 692 692 692 q 667 689 671 690 q 660 686 663 688 q 657 685 658 685 q 649 692 650 688 l 643 692 q 629 700 629 692 l 629 718 l 629 1013 l 629 997 l 590 997 l 590 1010 l 710 644 q 768 601 722 601 q 826 644 814 601 l 946 1008 l 935 1008 q 911 996 917 996 l 911 725 q 913 701 911 708 q 907 692 913 692 l 867 692 q 838 681 853 692 q 825 654 825 671 l 825 649 q 838 617 825 624 q 878 611 847 611 q 892 613 881 611 q 918 614 904 613 q 936 615 928 614 q 963 617 958 617 l 1035 611 q 1079 624 1061 611 q 1096 654 1096 635 m 438 906 l 433 957 l 438 1042 q 424 1072 438 1063 q 376 1082 410 1082 l 210 1075 l 56 1079 l 44 1079 q 13 1072 29 1079 q -8 1042 -7 1063 q -6 1003 -8 1028 l -6 999 q -4 958 -4 983 q -8 925 -6 946 q -8 921 -8 925 q -10 915 -10 917 q -8 911 -10 915 q -8 906 -8 907 l -8 894 q 11 865 -4 876 q 33 857 22 857 l 39 857 q 78 872 69 857 q 85 929 85 889 l 83 999 q 97 1001 83 1001 l 146 1001 q 164 976 164 1001 l 164 717 q 165 699 164 707 q 158 688 165 688 q 146 689 156 688 q 132 690 139 689 l 104 690 q 85 678 96 690 q 74 654 74 664 q 90 622 74 633 q 135 611 108 611 q 172 615 150 614 q 179 617 175 615 q 183 617 182 617 q 189 615 186 617 q 193 615 192 615 l 210 615 l 315 611 q 340 625 328 611 q 353 653 353 640 q 344 676 353 663 q 317 690 335 690 l 272 689 l 269 689 q 261 701 261 689 q 263 718 261 711 l 263 975 q 286 1003 263 1003 l 335 1003 q 346 999 346 1000 q 344 974 344 993 l 344 928 q 353 874 344 889 q 389 860 358 860 q 429 871 418 860 q 438 906 438 882 z "},"š":{"ha":694,"x_min":43,"x_max":656,"o":"m 656 206 q 542 364 656 321 q 328 410 400 394 q 219 503 219 433 q 253 568 219 542 q 339 596 288 596 q 446 568 406 596 q 486 469 486 539 q 511 426 486 443 q 553 408 533 408 q 601 422 588 408 q 617 458 617 438 l 618 685 q 599 717 618 706 q 556 726 581 726 q 508 717 522 726 q 490 686 493 706 q 358 719 428 719 q 153 656 238 719 q 67 485 67 590 q 113 371 67 417 q 192 317 157 325 l 443 265 q 494 235 474 260 q 510 189 510 213 q 508 178 510 182 q 453 117 489 136 q 367 99 418 99 q 236 126 296 99 q 176 208 176 153 l 175 258 q 154 297 172 283 q 108 313 132 313 q 64 292 83 313 q 44 242 44 268 q 50 185 44 218 q 56 124 56 151 q 46 57 51 101 l 44 49 q 43 28 43 33 q 44 19 43 21 q 71 -25 50 -7 q 104 -37 86 -37 q 115 -36 111 -37 q 165 -24 147 -36 q 183 13 183 -14 l 183 18 q 258 -15 232 -7 q 353 -24 286 -24 q 571 33 485 -24 q 656 206 656 89 m 601 935 q 617 961 617 943 q 607 983 617 974 q 578 993 597 993 q 538 983 565 993 q 460 958 513 975 q 358 929 428 949 l 158 990 q 144 992 156 992 q 111 985 128 992 q 94 965 94 976 q 103 949 94 957 q 121 935 111 942 l 332 811 l 339 808 q 360 800 357 800 q 388 811 368 800 l 601 935 z "},"›":{"ha":310,"x_min":51,"x_max":274,"o":"m 268 300 q 274 317 274 306 q 268 338 274 325 l 131 540 q 92 561 117 561 q 64 551 74 561 q 51 522 51 542 q 57 499 51 508 l 125 318 l 56 126 q 51 103 51 114 q 83 63 51 63 q 128 90 108 63 l 268 300 z "},"œ":{"ha":1274,"x_min":28,"x_max":1242,"o":"m 1242 411 q 1151 625 1242 538 q 925 711 1060 711 q 765 679 838 711 q 646 592 694 649 q 533 685 603 651 q 369 718 465 718 q 121 607 213 718 q 28 347 28 497 q 119 92 28 200 q 369 -18 211 -18 q 531 13 464 -18 q 640 94 596 40 q 747 11 685 39 q 899 -19 811 -19 q 1126 47 1029 -19 q 1224 232 1224 114 q 1200 269 1218 258 q 1140 281 1181 281 q 1082 190 1131 281 q 917 100 1033 100 q 774 161 826 100 q 721 310 721 222 l 1172 310 q 1228 321 1217 310 q 1239 358 1239 332 l 1242 411 m 1088 439 l 738 439 q 797 543 754 496 q 919 589 839 589 q 1043 542 1008 589 q 1088 439 1079 492 m 565 347 q 519 176 565 247 q 369 106 472 106 q 231 175 279 106 q 183 347 183 243 q 231 521 183 449 q 369 593 278 593 q 522 524 478 593 q 565 347 565 456 z "},"Ÿ":{"ha":1042,"x_min":-26,"x_max":1064,"o":"m 1064 868 q 1049 917 1064 901 q 993 932 1033 932 q 932 926 978 932 q 851 921 886 921 q 746 929 828 921 q 629 936 656 936 q 569 915 585 936 q 553 867 553 893 q 571 828 553 850 q 610 804 588 804 l 728 810 l 722 808 l 526 488 l 333 808 l 419 807 q 468 826 449 807 q 485 872 485 846 q 464 915 485 899 q 403 932 442 932 l 254 921 q 171 925 242 921 q 143 926 156 925 q 53 928 81 928 q -1 915 18 928 q -26 861 -19 903 l -26 856 q -15 824 -26 842 q 22 803 0 803 l 122 804 q 139 796 135 804 q 146 786 140 792 q 150 778 149 779 l 440 340 l 440 194 q 433 138 440 163 q 403 115 428 115 q 365 119 389 118 q 310 121 349 121 q 276 100 289 121 q 263 63 263 81 q 289 14 263 32 q 361 -6 315 -6 q 449 4 390 -1 q 474 6 463 6 q 511 7 504 7 q 593 1 538 7 q 700 -6 663 -6 q 758 10 735 -6 q 781 61 781 24 q 767 101 781 82 q 731 121 751 121 l 639 115 l 636 115 q 608 138 617 115 q 599 197 599 158 l 599 349 l 872 758 q 875 763 874 761 q 893 794 885 779 q 928 811 908 811 l 933 811 q 956 806 946 807 q 988 801 971 801 q 1015 807 1003 801 q 1050 821 1025 811 q 1064 868 1064 831 m 793 1133 q 758 1201 793 1172 q 672 1229 722 1229 q 588 1200 624 1229 q 551 1133 551 1171 q 588 1065 551 1093 q 672 1038 624 1038 q 758 1067 724 1038 q 793 1133 793 1093 m 501 1133 q 467 1203 501 1174 q 379 1231 431 1231 q 292 1203 328 1231 q 256 1133 256 1175 q 292 1065 256 1093 q 379 1038 328 1038 q 465 1065 429 1038 q 501 1133 501 1093 z "},"¡":{"ha":464,"x_min":114,"x_max":331,"o":"m 331 594 q 300 668 331 638 q 222 697 269 697 q 146 667 176 697 q 114 594 114 635 q 146 521 114 553 q 222 490 176 490 q 299 521 268 490 q 331 594 331 553 m 303 -183 l 303 389 q 281 457 303 435 q 226 481 257 481 q 174 457 197 481 q 150 388 150 432 l 150 -185 q 172 -254 150 -232 q 226 -278 196 -278 q 281 -253 258 -278 q 303 -183 303 -229 z "},"¢":{"ha":689,"x_min":65,"x_max":632,"o":"m 632 85 l 611 129 q 529 96 564 104 q 461 88 496 88 q 403 92 431 88 q 354 101 374 96 l 353 96 l 490 525 q 526 499 513 515 q 538 456 538 481 q 536 435 536 450 q 531 410 533 418 l 617 410 l 632 607 q 576 636 600 625 q 525 651 547 647 l 558 771 l 468 771 l 429 654 q 307 626 365 654 q 157 542 258 604 q 65 308 65 442 q 108 138 65 218 q 232 10 153 54 l 186 -131 l 283 -131 l 324 -15 l 410 -19 q 550 6 486 -19 q 632 85 615 31 m 397 546 l 276 153 q 239 229 250 167 q 226 347 226 290 q 381 547 226 547 l 397 546 z "},"£":{"ha":1158,"x_min":25,"x_max":1079,"o":"m 1079 224 q 1013 382 1079 326 q 849 438 944 438 q 703 389 764 438 q 642 251 642 339 q 664 214 642 228 q 719 199 686 199 q 760 217 738 199 q 781 267 781 236 q 851 308 781 308 q 914 283 888 308 q 939 218 939 257 q 907 143 939 174 q 824 114 876 114 q 708 136 761 114 q 590 196 651 157 q 604 286 604 238 q 592 378 604 331 q 556 471 575 431 l 765 471 q 811 488 797 471 q 826 526 826 503 q 810 571 826 553 q 765 590 793 590 l 492 590 q 467 642 476 621 q 451 699 451 675 q 501 806 451 771 q 618 840 550 840 q 700 826 658 840 q 749 788 743 811 q 718 771 735 779 q 703 719 703 756 q 728 661 703 689 q 794 635 753 635 q 868 671 840 635 q 894 754 894 706 q 810 910 894 850 q 615 968 725 968 q 392 897 478 968 q 304 689 304 826 q 322 590 304 640 l 193 590 q 150 571 167 590 q 132 524 132 551 q 149 486 132 501 q 196 471 164 471 l 386 471 q 440 368 421 419 q 460 267 460 317 q 340 311 393 297 q 229 325 289 325 q 90 274 154 325 q 25 147 25 221 q 94 24 25 72 q 247 -26 164 -26 q 396 3 321 -26 q 525 78 469 32 q 657 10 583 38 q 828 -24 739 -24 q 1006 51 933 -24 q 1079 224 1079 128 m 403 151 q 340 115 371 124 q 264 106 311 106 q 201 115 222 106 q 176 154 176 126 q 193 185 176 175 q 232 193 208 193 q 251 194 243 193 q 403 151 329 194 z "},"¤":{"ha":833,"x_min":26,"x_max":739,"o":"m 26 172 l 92 107 l 207 222 q 381 171 289 171 q 556 224 463 171 l 671 107 l 736 172 l 617 290 q 665 463 665 372 q 654 547 665 506 q 618 633 644 586 l 739 754 l 674 818 l 554 699 q 379 751 464 751 q 206 701 283 751 l 90 817 l 26 751 l 140 638 q 101 544 111 582 q 90 458 90 503 q 101 375 90 415 q 140 285 111 342 l 26 172 m 546 461 q 499 346 546 393 q 382 297 450 297 q 265 346 314 297 q 217 461 217 394 q 265 578 217 529 q 381 625 313 625 q 499 578 451 625 q 546 461 546 531 z "},"¥":{"ha":1042,"x_min":-28,"x_max":1064,"o":"m 1064 875 q 1044 921 1053 913 q 994 932 1033 932 q 922 926 965 932 q 851 921 879 921 q 746 929 828 921 q 629 936 656 936 q 564 911 579 936 l 556 878 q 553 868 553 872 q 569 835 553 856 q 610 804 590 804 l 728 810 l 722 807 l 526 488 l 331 807 q 326 808 329 808 q 324 807 325 808 l 403 803 q 460 824 435 803 q 485 872 485 844 q 463 913 485 890 q 419 935 440 935 l 256 921 q 165 925 239 921 q 135 926 150 925 q 50 928 65 928 q -7 910 13 928 q -28 860 -28 892 q -19 819 -28 836 q 19 803 -11 803 l 128 803 l 367 450 l 376 450 q 297 431 328 450 q 268 383 268 410 q 297 338 268 357 q 376 318 325 318 l 440 318 l 440 289 l 376 289 q 296 268 325 289 q 265 221 265 247 q 294 175 265 194 q 375 156 322 156 l 440 154 q 431 126 440 136 q 396 115 419 115 q 375 117 392 115 l 367 118 l 363 118 q 332 121 342 121 l 322 121 q 301 119 310 121 q 275 101 289 118 q 263 67 263 88 q 282 13 263 32 q 361 -6 300 -6 q 440 -1 401 -6 q 519 7 478 1 q 593 1 532 7 q 700 -6 667 -6 q 757 11 735 -6 q 781 60 781 26 q 771 107 781 93 q 732 121 761 121 q 701 119 725 121 l 688 118 l 672 117 q 644 115 651 115 q 617 132 625 124 q 603 156 607 138 l 683 156 q 760 176 731 156 q 788 224 788 197 q 761 271 788 253 q 683 289 735 289 l 599 289 l 599 318 l 683 318 q 764 336 738 318 q 790 381 790 354 q 763 431 790 410 q 683 450 732 450 l 667 450 l 871 758 q 890 786 876 767 q 911 807 901 801 l 1008 804 q 1050 826 1033 810 q 1064 875 1064 840 z "},"¦":{"ha":242,"x_min":72,"x_max":172,"o":"m 72 425 l 72 -6 l 172 -6 l 172 425 l 72 425 m 172 492 l 172 928 q 110 927 147 928 q 72 925 72 926 l 72 492 l 172 492 z "},"§":{"ha":888,"x_min":140,"x_max":757,"o":"m 757 401 q 742 471 757 438 q 686 522 725 500 l 451 657 q 386 699 411 676 q 361 749 361 722 q 396 808 361 786 q 471 831 431 831 q 528 825 500 831 q 581 810 565 818 q 560 785 567 800 q 551 749 551 771 q 578 692 551 713 q 639 668 604 671 q 710 699 679 668 q 742 771 742 731 q 658 904 742 850 q 472 957 572 957 q 279 904 357 957 q 200 743 200 850 q 263 597 200 664 q 183 503 208 547 q 154 406 154 456 q 261 261 154 326 q 460 160 326 226 q 565 29 565 100 q 532 -31 565 -12 q 450 -51 497 -51 q 357 -39 386 -51 q 303 -6 328 -29 l 303 -14 q 340 19 322 -4 q 358 69 358 42 q 324 138 353 110 q 256 165 292 165 q 175 124 208 165 q 140 35 140 83 q 240 -119 140 -60 q 449 -181 339 -181 q 656 -117 588 -181 q 724 46 724 -56 q 649 208 724 136 q 728 303 697 253 q 757 401 757 351 m 600 392 q 588 325 600 350 q 544 271 575 297 q 401 335 501 289 q 314 433 314 375 q 328 479 314 457 q 367 528 342 500 q 540 446 485 479 q 600 392 600 411 z "},"¨":{"ha":407,"x_min":-19,"x_max":425,"o":"m 425 871 q 396 928 425 906 q 325 950 365 950 q 254 926 285 950 q 225 871 225 904 q 256 815 225 838 q 325 792 286 792 q 396 815 365 792 q 425 871 425 839 m 183 871 q 153 928 183 906 q 82 951 121 951 q 10 928 40 951 q -19 871 -19 906 q 11 815 -19 838 q 82 792 42 792 q 154 815 122 792 q 183 871 183 839 z "},"©":{"ha":1008,"x_min":33,"x_max":981,"o":"m 981 560 q 842 881 981 750 q 507 1013 701 1013 q 172 879 313 1013 q 33 560 33 747 q 172 240 33 371 q 507 108 313 108 q 842 240 701 108 q 981 560 981 371 m 914 560 q 796 286 914 399 q 507 172 678 172 q 218 285 338 172 q 100 560 100 397 q 219 835 100 719 q 507 949 338 949 q 796 836 678 949 q 914 560 914 722 m 760 478 q 750 521 760 507 q 707 535 740 535 q 668 522 681 535 q 656 490 656 510 q 614 390 656 419 q 525 361 571 361 q 406 419 442 361 q 369 560 369 476 q 403 715 369 653 q 522 778 436 778 q 613 743 588 778 q 642 640 638 708 q 657 601 646 618 q 693 588 667 588 q 735 600 725 588 q 744 633 744 610 q 743 651 744 643 l 742 683 q 740 718 740 694 l 740 753 q 742 790 740 769 q 743 832 743 811 q 732 858 743 844 q 694 871 719 871 q 667 860 682 871 q 651 831 651 847 q 650 815 651 822 q 649 824 649 818 l 649 843 q 597 864 628 854 q 521 872 571 872 q 322 783 393 872 q 250 568 250 694 q 321 356 250 442 q 519 268 390 268 q 700 326 640 268 q 760 478 760 382 z "},"ª":{"ha":611,"x_min":78,"x_max":532,"o":"m 526 610 l 526 654 q 517 694 526 683 q 492 707 507 707 q 465 696 476 707 q 454 669 454 685 l 454 632 q 451 604 454 615 q 438 596 450 596 q 426 601 432 596 q 422 617 422 608 l 422 800 q 393 897 422 851 q 272 942 365 942 q 158 911 206 942 q 110 826 110 879 q 125 788 110 803 q 169 772 140 772 q 201 783 183 772 q 218 804 218 794 l 218 831 q 211 840 218 833 q 203 847 207 843 q 226 865 213 860 q 269 871 239 871 q 321 858 303 871 q 338 822 338 844 q 275 764 338 776 q 150 739 211 750 q 85 647 85 715 q 128 558 85 592 q 228 525 169 525 q 297 538 263 525 q 353 572 328 547 q 381 540 364 550 q 439 529 400 529 q 503 551 481 529 q 526 610 526 575 m 338 686 q 311 624 338 646 q 235 601 285 601 q 188 615 203 601 q 169 649 169 628 q 246 701 169 692 q 338 719 325 713 l 338 686 m 442 393 q 510 403 489 393 q 532 426 532 413 q 508 450 532 439 q 442 460 488 460 l 174 460 q 104 450 125 460 q 78 426 78 440 q 104 403 78 413 q 174 393 128 393 l 442 393 z "},"«":{"ha":464,"x_min":7,"x_max":401,"o":"m 394 179 l 324 371 l 392 551 q 393 556 393 556 q 394 564 394 561 q 383 603 394 583 q 356 621 371 621 q 318 593 338 621 l 181 393 q 172 374 172 379 q 181 354 172 371 l 318 146 q 371 118 338 118 q 401 147 401 118 q 400 164 401 157 q 396 174 400 167 q 394 179 394 178 m 222 179 l 153 371 l 221 551 q 222 561 222 554 q 214 593 222 575 q 182 618 201 618 q 147 593 164 618 l 7 389 l 7 369 q 10 354 7 360 l 150 144 q 203 118 168 118 q 229 144 229 118 q 222 179 229 158 z "},"¬":{"ha":633,"x_min":21,"x_max":554,"o":"m 21 597 l 21 517 l 456 517 l 456 319 l 554 319 l 554 596 l 21 597 z "},"®":{"ha":1008,"x_min":33,"x_max":981,"o":"m 981 560 q 842 881 981 750 q 507 1013 701 1013 q 172 879 313 1013 q 33 560 33 747 q 172 240 33 371 q 507 108 313 108 q 842 240 701 108 q 981 560 981 371 m 914 560 q 796 286 914 399 q 507 172 678 172 q 218 285 338 172 q 100 560 100 397 q 219 835 100 719 q 507 949 338 949 q 796 836 678 949 q 914 560 914 722 m 836 332 q 799 376 836 376 l 728 378 q 721 388 721 378 q 722 403 722 394 l 722 458 q 711 538 722 508 q 674 578 700 563 q 731 628 713 597 q 750 707 750 658 q 694 822 750 783 q 543 863 638 863 l 371 853 q 326 857 358 853 q 281 861 296 861 q 233 851 251 861 q 214 813 214 840 q 225 783 214 801 q 250 768 236 768 l 253 768 l 304 772 q 319 763 318 772 q 321 729 321 756 l 321 411 l 321 392 q 308 372 321 372 l 251 375 q 228 361 240 375 q 215 335 215 347 q 228 294 215 303 q 268 286 239 286 l 285 286 l 356 290 q 421 289 374 290 l 436 288 q 492 283 485 283 q 529 300 515 283 q 542 331 542 315 l 542 336 q 531 364 540 353 q 504 375 519 375 l 501 375 q 492 374 499 375 q 486 372 489 372 q 469 368 474 368 q 460 374 464 368 q 436 383 440 374 q 432 414 432 394 l 432 521 q 447 535 432 535 q 463 533 454 533 q 490 538 471 535 q 522 539 500 539 q 549 533 544 539 q 596 514 581 533 q 611 465 611 494 l 611 397 q 649 306 611 329 q 753 282 688 282 q 814 292 793 282 q 836 332 836 300 m 640 704 q 514 625 640 625 l 435 625 l 432 617 l 432 743 q 451 771 432 764 q 511 775 471 775 q 535 774 518 774 q 640 704 640 774 z "},"¯":{"ha":610,"x_min":0,"x_max":607,"o":"m 607 910 l 607 974 l 0 974 l 0 910 l 607 910 z "},"°":{"ha":217,"x_min":-22,"x_max":239,"o":"m 239 876 q 200 954 239 924 q 108 986 160 986 q 17 954 56 986 q -22 876 -22 921 q 17 800 -22 831 q 108 768 57 768 q 200 800 160 768 q 239 876 239 831 m 144 876 q 108 846 144 846 q 72 876 72 846 q 108 907 72 907 q 144 876 144 907 z "},"±":{"ha":603,"x_min":7,"x_max":590,"o":"m 590 354 l 590 467 l 360 467 l 360 681 l 240 681 l 240 467 l 7 467 l 7 354 l 240 354 l 240 172 l 189 172 q 132 153 154 172 q 111 106 111 132 q 132 60 111 79 q 189 40 154 40 l 406 40 q 461 61 443 40 q 479 106 479 79 q 460 153 479 133 q 406 172 440 172 l 360 172 l 360 354 l 590 354 z "},"²":{"ha":888,"x_min":21,"x_max":515,"o":"m 515 611 q 490 678 515 647 q 428 708 464 708 q 375 692 396 708 q 354 644 354 675 q 374 611 354 628 q 411 597 389 597 l 417 597 q 392 579 407 579 q 300 622 356 579 q 193 664 242 664 q 150 656 171 664 q 332 735 168 678 q 493 896 493 792 q 429 1019 493 972 q 275 1068 364 1068 q 114 1022 188 1068 q 40 907 40 976 q 64 840 40 864 q 124 815 88 815 q 176 836 156 815 q 197 889 197 857 q 185 911 197 899 q 158 931 168 925 q 199 965 164 953 q 269 978 231 978 q 347 956 313 978 q 382 893 382 933 q 292 796 382 832 q 114 725 214 764 q 21 583 21 674 q 44 519 21 551 q 97 482 68 488 q 146 497 122 482 q 167 536 167 513 q 160 563 167 551 q 129 574 151 574 l 143 574 l 143 571 q 150 568 143 568 q 171 567 156 567 q 278 524 210 567 q 385 479 347 479 q 478 519 440 479 q 515 611 515 560 z "},"³":{"ha":888,"x_min":19,"x_max":508,"o":"m 508 700 q 467 813 508 769 q 357 869 424 857 l 471 975 q 497 1003 488 989 q 507 1032 507 1017 q 486 1061 507 1051 q 415 1071 467 1071 l 104 1071 q 65 1061 79 1071 q 50 1032 50 1050 l 50 907 q 65 867 50 878 q 96 856 81 856 q 138 871 129 856 q 144 924 144 888 q 143 944 144 935 q 144 954 143 947 q 146 960 146 957 q 165 975 147 969 l 325 974 l 194 849 q 172 811 172 831 q 174 803 172 808 l 175 800 q 217 775 188 775 l 221 775 q 251 778 233 776 l 272 779 q 297 781 292 781 q 375 758 353 781 q 399 699 399 735 q 360 621 399 654 q 260 588 321 588 q 174 610 213 588 q 129 663 133 631 l 129 661 q 128 650 129 653 l 138 650 q 157 654 143 650 q 179 672 169 656 q 188 710 188 688 q 165 750 188 732 q 121 769 142 769 q 49 742 79 769 q 19 661 19 715 q 89 543 19 588 q 250 499 158 499 q 440 554 372 499 q 508 700 508 610 z "},"´":{"ha":285,"x_min":-19,"x_max":303,"o":"m 258 839 q 293 861 282 846 q 303 894 303 875 q 281 947 303 925 q 226 971 257 971 q 199 965 214 971 q 167 950 179 958 l -6 826 q -19 801 -19 814 q -8 781 -19 789 q 21 772 3 772 q 43 775 35 772 l 258 839 z "},"µ":{"ha":849,"x_min":-22,"x_max":878,"o":"m 878 68 q 863 107 878 94 q 819 122 844 121 q 792 121 804 122 q 771 118 783 119 q 758 115 761 115 l 750 115 q 732 124 736 115 q 725 171 725 135 q 726 211 725 179 q 728 251 726 233 q 729 364 729 281 l 736 635 q 729 675 736 658 q 697 690 722 690 l 515 692 q 481 674 493 692 q 467 629 467 656 q 481 586 467 601 q 518 568 493 568 l 581 568 q 586 546 586 564 q 585 506 586 524 l 585 369 q 558 172 585 239 q 414 103 531 103 q 290 163 317 103 q 263 328 263 225 l 263 654 q 246 681 263 667 q 210 694 228 694 q 185 693 201 694 q 178 692 181 692 l 169 690 q 149 689 154 689 q 114 690 140 689 l 100 692 l 86 693 q 51 694 60 694 q -1 678 19 694 q -22 632 -22 661 l -22 626 q -14 594 -22 622 q 42 568 -8 568 q 57 569 46 568 l 76 571 q 93 572 82 571 q 111 574 107 572 q 128 546 128 572 q 128 539 128 544 q 125 515 126 531 q 121 475 121 489 l 119 -164 q 140 -243 119 -217 q 190 -272 161 -272 q 240 -243 219 -272 q 260 -164 260 -215 l 260 1 q 388 -22 314 -22 q 517 -3 450 -22 q 594 33 579 15 l 594 51 q 613 14 594 28 q 657 -1 631 -1 l 826 -1 q 878 68 878 -1 z "},"¶":{"ha":854,"x_min":71,"x_max":735,"o":"m 342 -157 l 439 -157 l 439 850 l 565 850 l 565 -157 l 663 -157 l 663 850 l 735 850 l 735 926 l 383 926 q 157 871 242 926 q 71 682 71 814 q 147 504 71 564 q 342 443 224 443 l 342 -157 z "},"·":{"ha":296,"x_min":94,"x_max":217,"o":"m 154 550 q 113 532 129 550 q 94 488 94 514 q 114 446 94 463 q 158 429 133 429 q 200 447 183 429 q 217 490 217 467 q 199 533 217 515 q 154 550 181 550 z "},"¸":{"ha":347,"x_min":-17,"x_max":368,"o":"m 368 -182 q 318 -92 368 -119 q 196 -64 267 -64 l 188 -64 l 215 0 l 108 0 q 81 -65 96 -32 q 67 -92 75 -76 q 54 -117 57 -111 q 51 -126 51 -122 q 69 -156 51 -142 q 113 -178 92 -178 q 151 -167 122 -178 q 197 -157 176 -157 q 219 -165 210 -157 q 228 -186 228 -176 q 211 -214 228 -210 q 163 -219 196 -219 q 113 -207 149 -219 q 44 -182 65 -190 q 3 -196 21 -182 q -17 -225 -17 -211 q 44 -285 -17 -257 q 172 -312 107 -312 q 307 -275 244 -312 q 368 -182 368 -239 z "},"¹":{"ha":888,"x_min":21,"x_max":400,"o":"m 400 554 q 388 588 400 578 q 333 599 372 599 l 279 596 q 265 629 265 606 l 265 935 q 254 1026 264 975 q 219 1071 246 1071 l 83 1071 q 46 1058 57 1071 q 33 1025 33 1046 q 44 994 33 1008 q 69 981 54 981 l 147 981 q 158 968 158 981 q 154 933 158 957 l 154 658 l 154 636 q 140 594 154 608 q 124 593 136 593 q 110 594 117 594 q 94 596 101 594 q 61 597 85 597 q 35 585 50 597 q 21 554 21 572 q 40 519 21 531 q 92 508 60 508 q 96 508 92 508 q 124 511 106 510 q 139 513 131 511 q 163 514 158 514 q 167 514 164 514 q 229 511 200 513 q 350 507 294 507 q 392 521 383 511 q 400 554 400 532 z "},"º":{"ha":550,"x_min":69,"x_max":493,"o":"m 493 726 q 440 879 493 818 q 282 939 389 939 q 132 875 188 939 q 75 726 75 810 q 131 579 75 640 q 282 517 188 517 q 442 576 390 517 q 493 726 493 636 m 401 726 q 374 628 401 668 q 282 588 344 588 q 199 626 225 588 q 169 726 169 667 q 199 825 169 783 q 282 867 226 867 q 375 826 347 867 q 401 726 401 788 m 408 408 q 472 418 451 408 q 493 440 493 429 q 471 465 493 456 q 408 475 450 475 l 158 475 q 93 465 114 475 q 69 440 69 454 q 93 418 69 429 q 158 408 114 408 l 408 408 z "},"»":{"ha":464,"x_min":67,"x_max":463,"o":"m 461 389 l 321 593 q 288 618 304 618 q 256 593 268 618 q 246 561 246 575 q 247 551 246 554 l 315 371 l 246 179 q 239 144 239 158 q 264 118 239 118 q 318 144 300 118 l 458 354 q 463 369 463 361 q 461 389 463 379 m 288 354 q 296 372 296 371 q 288 393 296 379 l 150 593 q 113 621 131 621 q 82 594 92 621 q 74 564 74 578 q 76 551 74 560 l 144 371 l 74 179 q 67 147 67 156 q 75 125 67 132 q 97 118 85 118 q 150 146 133 118 l 288 354 z "},"¼":{"ha":888,"x_min":18,"x_max":882,"o":"m 319 629 q 310 654 319 646 q 271 661 299 661 l 224 660 q 208 694 208 671 l 208 956 q 201 1029 207 983 q 176 1065 194 1065 l 64 1065 q 26 1032 26 1065 q 51 1001 26 1001 l 117 1001 q 131 979 131 1001 q 129 956 131 967 l 129 719 q 128 683 129 693 q 119 665 126 669 q 108 657 113 658 l 100 657 q 88 658 94 658 q 75 660 81 658 q 46 661 65 661 q 26 651 32 661 q 18 629 18 642 q 33 604 18 611 q 71 596 49 596 q 75 596 71 596 q 97 599 83 597 q 111 600 97 599 q 129 601 125 601 q 210 597 168 600 q 286 596 235 596 q 314 604 308 596 q 319 629 319 610 m 881 29 q 846 61 881 61 q 815 60 828 61 q 796 61 801 60 q 786 76 786 63 q 785 104 785 86 l 785 133 l 850 133 q 874 144 863 133 q 882 167 882 156 q 850 200 882 200 l 785 200 l 785 417 q 774 460 785 444 q 742 475 763 475 q 701 460 725 475 q 654 414 676 443 l 481 196 q 468 164 468 182 q 513 133 468 133 l 706 133 l 706 104 q 703 71 706 82 q 693 61 701 64 l 644 61 q 617 51 626 61 q 610 32 610 44 l 610 26 q 625 4 610 11 q 663 -3 642 -3 q 685 -1 668 -3 l 694 0 q 753 3 722 3 q 764 1 753 3 q 792 0 778 1 q 846 -4 824 -4 q 881 29 881 -4 m 711 374 l 706 200 l 571 200 l 711 374 m 679 585 q 713 617 697 597 q 726 658 726 635 q 711 696 726 681 q 672 711 696 711 q 640 706 656 711 q 603 686 618 699 l 189 403 q 154 346 154 378 q 171 304 154 321 q 215 288 188 288 q 240 292 226 288 q 268 304 256 296 l 679 585 z "},"½":{"ha":888,"x_min":18,"x_max":879,"o":"m 879 106 q 861 158 879 136 q 814 181 843 181 q 760 132 760 181 q 774 110 760 119 q 803 99 789 99 l 814 103 q 803 79 813 92 q 783 69 794 69 q 706 107 754 69 q 618 143 657 143 q 590 138 603 143 q 564 125 575 132 q 678 194 583 164 q 817 253 775 226 q 861 349 861 278 q 811 450 861 411 q 688 488 760 488 q 558 450 617 488 q 499 358 499 413 q 561 286 499 286 q 600 301 585 286 q 615 342 615 317 q 608 356 615 346 l 606 358 q 582 374 593 368 q 618 410 586 394 q 682 424 647 424 q 751 403 721 424 q 782 344 782 382 q 632 232 782 289 q 482 79 482 176 q 500 29 482 51 q 540 0 517 4 q 575 13 558 0 q 589 36 589 22 l 589 39 q 588 54 589 43 l 586 57 q 567 67 582 67 q 600 74 569 74 q 685 36 626 74 q 778 -3 742 -3 q 850 31 821 -3 q 879 106 879 64 m 319 633 q 310 658 319 650 q 271 665 299 665 l 224 664 q 208 699 208 675 l 208 960 q 201 1033 207 988 q 176 1069 194 1069 l 64 1069 q 26 1036 26 1069 q 51 1006 26 1006 l 117 1006 q 131 983 131 1006 q 129 960 131 971 l 129 724 q 128 688 129 697 q 119 669 126 674 q 108 661 113 663 l 100 661 q 88 663 94 663 q 75 664 81 663 q 46 665 65 665 q 26 656 32 665 q 18 633 18 646 q 33 608 18 615 q 71 600 49 600 q 75 600 71 600 q 97 603 83 601 q 111 604 97 603 q 129 606 125 606 q 210 601 168 604 q 286 600 235 600 q 314 608 308 600 q 319 633 319 614 m 624 585 q 657 617 642 597 q 671 658 671 635 q 656 696 671 681 q 617 711 640 711 q 585 706 600 711 q 547 686 563 699 l 133 403 q 99 346 99 378 q 115 304 99 321 q 160 288 132 288 q 185 292 171 288 q 213 304 200 296 l 624 585 z "},"¾":{"ha":888,"x_min":10,"x_max":874,"o":"m 403 753 q 364 851 403 813 q 268 892 324 892 l 374 992 q 392 1014 383 1001 q 399 1035 399 1025 q 385 1058 399 1050 q 332 1065 368 1065 l 72 1063 q 35 1039 35 1063 l 35 929 q 44 904 35 914 q 64 894 50 894 l 67 894 q 96 904 92 894 q 99 944 99 915 l 99 964 q 101 985 99 974 q 122 993 104 993 l 274 993 l 151 876 q 138 850 138 863 q 139 842 138 844 q 167 822 146 822 q 197 826 172 822 q 225 828 207 828 l 235 828 q 304 807 283 828 q 325 751 325 786 q 292 681 325 708 q 203 651 257 651 q 124 672 160 651 q 88 722 88 692 l 88 721 q 85 715 88 718 q 96 717 92 715 q 104 718 100 717 l 107 719 q 129 733 122 721 q 135 761 135 743 q 119 792 135 776 q 86 804 103 804 q 31 783 51 804 q 10 721 10 763 q 67 624 10 660 q 194 586 124 586 q 347 633 292 586 q 403 753 403 681 m 872 33 q 838 65 872 65 q 807 64 819 65 q 788 65 793 64 q 778 81 778 67 q 776 108 776 90 l 776 138 l 842 138 q 865 149 854 138 q 874 171 874 160 q 842 204 874 204 l 776 204 l 776 421 q 765 464 776 449 q 733 479 754 479 q 693 464 717 479 q 646 418 668 447 l 472 200 q 460 168 460 186 q 504 138 460 138 l 697 138 l 697 108 q 694 75 697 86 q 685 65 693 68 l 636 65 q 608 56 618 65 q 601 36 601 49 l 601 31 q 617 8 601 15 q 654 1 633 1 q 676 3 660 1 l 686 4 q 744 7 714 7 q 756 6 744 7 q 783 4 769 6 q 838 0 815 0 q 872 33 872 0 m 703 378 l 697 204 l 563 204 l 703 378 m 651 585 q 685 617 669 597 q 699 658 699 635 q 683 696 699 681 q 644 711 668 711 q 613 706 628 711 q 575 686 590 699 l 161 403 q 126 346 126 378 q 143 304 126 321 q 188 288 160 288 q 213 292 199 288 q 240 304 228 296 l 651 585 z "},"¿":{"ha":811,"x_min":31,"x_max":765,"o":"m 553 586 q 521 660 553 628 q 443 690 490 690 q 365 660 396 690 q 333 586 333 628 q 365 511 333 543 q 443 481 396 481 q 521 513 488 481 q 553 586 553 544 m 765 -12 q 725 104 765 56 q 610 151 683 151 q 517 118 557 151 q 476 40 476 85 q 500 -12 476 11 q 553 -37 524 -37 q 594 -28 575 -37 q 618 -7 614 -17 q 626 11 621 0 q 628 -12 628 3 l 617 -1 l 621 -6 q 622 -15 622 -8 q 550 -126 622 -92 q 388 -162 476 -162 q 250 -125 311 -162 q 189 -24 189 -89 q 276 100 189 46 q 447 204 363 154 q 536 354 536 268 q 517 431 536 399 q 457 460 499 460 q 401 442 419 460 q 382 369 382 422 q 294 254 382 307 q 269 240 294 254 q 121 154 169 182 q 31 -15 31 85 q 140 -211 31 -136 q 385 -287 247 -287 q 647 -212 529 -287 q 765 -12 765 -140 z "},"À":{"ha":1097,"x_min":-1,"x_max":1088,"o":"m 1051 -3 q 1079 11 1069 -3 q 1088 46 1088 26 q 1075 96 1088 74 q 1042 118 1061 118 l 942 118 q 914 147 926 118 q 890 206 897 186 l 640 864 q 594 922 618 910 q 535 933 569 933 q 471 914 499 933 q 432 863 443 894 l 154 154 q 149 139 153 151 l 144 131 q 126 115 138 115 q 92 117 106 115 q 56 118 78 118 q 17 99 33 118 q -1 53 -1 79 q 22 8 -1 25 q 75 -10 44 -10 q 144 -1 117 -4 q 190 3 172 1 l 321 3 q 356 -1 335 3 q 390 -6 376 -6 q 464 6 426 -6 q 499 36 499 15 q 490 94 499 74 q 457 115 481 115 l 336 121 q 318 144 318 121 q 319 156 318 149 l 321 158 l 363 263 l 364 268 q 372 290 369 281 q 392 306 381 306 l 682 306 l 682 296 q 683 289 682 290 l 743 131 q 744 125 744 129 q 732 115 744 118 l 708 115 l 633 121 q 588 108 607 121 q 568 61 568 96 q 567 53 567 58 q 583 14 567 31 q 642 -7 603 -7 l 653 -7 q 699 -4 675 -6 q 769 0 749 -3 l 936 0 l 982 -6 q 1018 -4 1006 -6 q 1051 -3 1042 -4 m 633 433 l 426 431 l 532 735 l 633 433 m 604 1056 l 433 1179 q 404 1196 417 1192 q 375 1200 390 1200 q 319 1178 340 1200 q 297 1124 297 1156 q 342 1068 297 1083 l 557 1004 q 578 1001 565 1001 q 619 1029 619 1001 q 604 1056 619 1044 z "},"Á":{"ha":1097,"x_min":-1,"x_max":1088,"o":"m 1051 -3 q 1079 11 1069 -3 q 1088 46 1088 26 q 1075 96 1088 74 q 1042 118 1061 118 l 942 118 q 914 147 926 118 q 890 206 897 186 l 640 864 q 594 922 618 910 q 535 933 569 933 q 471 914 499 933 q 432 863 443 894 l 154 154 q 149 139 153 151 l 144 131 q 126 115 138 115 q 92 117 106 115 q 56 118 78 118 q 17 99 33 118 q -1 53 -1 79 q 22 8 -1 25 q 75 -10 44 -10 q 144 -1 117 -4 q 190 3 172 1 l 321 3 q 356 -1 335 3 q 390 -6 376 -6 q 464 6 426 -6 q 499 36 499 15 q 490 94 499 74 q 457 115 481 115 l 336 121 q 318 144 318 121 q 319 156 318 149 l 321 158 l 363 263 l 364 268 q 372 290 369 281 q 392 306 381 306 l 682 306 l 682 296 q 683 289 682 290 l 743 131 q 744 125 744 129 q 732 115 744 118 l 708 115 l 633 121 q 588 108 607 121 q 568 61 568 96 q 567 53 567 58 q 583 14 567 31 q 642 -7 603 -7 l 653 -7 q 699 -4 675 -6 q 769 0 749 -3 l 936 0 l 982 -6 q 1018 -4 1006 -6 q 1051 -3 1042 -4 m 633 433 l 426 431 l 532 735 l 633 433 m 733 1069 q 768 1092 757 1076 q 778 1125 778 1106 q 756 1178 778 1156 q 701 1201 732 1201 q 674 1196 689 1201 q 642 1181 654 1189 l 469 1057 q 456 1032 456 1044 q 467 1011 456 1019 q 496 1003 478 1003 q 518 1006 510 1003 l 733 1069 z "},"Â":{"ha":1097,"x_min":-1,"x_max":1088,"o":"m 1051 -3 q 1079 11 1069 -3 q 1088 46 1088 26 q 1075 96 1088 74 q 1042 118 1061 118 l 942 118 q 914 147 926 118 q 890 206 897 186 l 640 864 q 594 922 618 910 q 535 933 569 933 q 471 914 499 933 q 432 863 443 894 l 154 154 q 149 139 153 151 l 144 131 q 126 115 138 115 q 92 117 106 115 q 56 118 78 118 q 17 99 33 118 q -1 53 -1 79 q 22 8 -1 25 q 75 -10 44 -10 q 144 -1 117 -4 q 190 3 172 1 l 321 3 q 356 -1 335 3 q 390 -6 376 -6 q 464 6 426 -6 q 499 36 499 15 q 490 94 499 74 q 457 115 481 115 l 336 121 q 318 144 318 121 q 319 156 318 149 l 321 158 l 363 263 l 364 268 q 372 290 369 281 q 392 306 381 306 l 682 306 l 682 296 q 683 289 682 290 l 743 131 q 744 125 744 129 q 732 115 744 118 l 708 115 l 633 121 q 588 108 607 121 q 568 61 568 96 q 567 53 567 58 q 583 14 567 31 q 642 -7 603 -7 l 653 -7 q 699 -4 675 -6 q 769 0 749 -3 l 936 0 l 982 -6 q 1018 -4 1006 -6 q 1051 -3 1042 -4 m 633 433 l 426 431 l 532 735 l 633 433 m 775 1058 l 561 1182 q 535 1193 542 1193 q 506 1182 531 1193 l 294 1058 q 268 1029 268 1044 q 283 1010 268 1017 q 318 1001 299 1001 q 332 1003 329 1001 l 532 1065 q 617 1040 544 1063 q 713 1010 671 1022 q 751 1000 738 1000 q 782 1010 772 1000 q 792 1032 792 1019 q 775 1058 792 1049 z "},"Ã":{"ha":1097,"x_min":-1,"x_max":1088,"o":"m 1051 -3 q 1079 11 1069 -3 q 1088 46 1088 26 q 1075 96 1088 74 q 1042 118 1061 118 l 942 118 q 914 147 926 118 q 890 206 897 186 l 640 864 q 594 922 618 910 q 535 933 569 933 q 471 914 499 933 q 432 863 443 894 l 154 154 q 149 139 153 151 l 144 131 q 126 115 138 115 q 92 117 106 115 q 56 118 78 118 q 17 99 33 118 q -1 53 -1 79 q 22 8 -1 25 q 75 -10 44 -10 q 144 -1 117 -4 q 190 3 172 1 l 321 3 q 356 -1 335 3 q 390 -6 376 -6 q 464 6 426 -6 q 499 36 499 15 q 490 94 499 74 q 457 115 481 115 l 336 121 q 318 144 318 121 q 319 156 318 149 l 321 158 l 363 263 l 364 268 q 372 290 369 281 q 392 306 381 306 l 682 306 l 682 296 q 683 289 682 290 l 743 131 q 744 125 744 129 q 732 115 744 118 l 708 115 l 633 121 q 588 108 607 121 q 568 61 568 96 q 567 53 567 58 q 583 14 567 31 q 642 -7 603 -7 l 653 -7 q 699 -4 675 -6 q 769 0 749 -3 l 936 0 l 982 -6 q 1018 -4 1006 -6 q 1051 -3 1042 -4 m 633 433 l 426 431 l 532 735 l 633 433 m 785 1106 q 775 1129 785 1115 q 749 1142 765 1142 q 717 1119 729 1128 q 676 1107 699 1107 q 551 1129 639 1107 q 458 1150 463 1150 q 351 1118 396 1150 q 306 1039 306 1088 q 342 1003 306 1010 q 371 1024 353 1011 q 422 1036 390 1036 q 525 1017 450 1036 q 625 997 600 997 q 732 1022 678 997 q 785 1106 785 1047 z "},"Ä":{"ha":1097,"x_min":-1,"x_max":1088,"o":"m 1051 -3 q 1079 11 1069 -3 q 1088 46 1088 26 q 1075 96 1088 74 q 1042 118 1061 118 l 942 118 q 914 147 926 118 q 890 206 897 186 l 640 864 q 594 922 618 910 q 535 933 569 933 q 471 914 499 933 q 432 863 443 894 l 154 154 q 149 139 153 151 l 144 131 q 126 115 138 115 q 92 117 106 115 q 56 118 78 118 q 17 99 33 118 q -1 53 -1 79 q 22 8 -1 25 q 75 -10 44 -10 q 144 -1 117 -4 q 190 3 172 1 l 321 3 q 356 -1 335 3 q 390 -6 376 -6 q 464 6 426 -6 q 499 36 499 15 q 490 94 499 74 q 457 115 481 115 l 336 121 q 318 144 318 121 q 319 156 318 149 l 321 158 l 363 263 l 364 268 q 372 290 369 281 q 392 306 381 306 l 682 306 l 682 296 q 683 289 682 290 l 743 131 q 744 125 744 129 q 732 115 744 118 l 708 115 l 633 121 q 588 108 607 121 q 568 61 568 96 q 567 53 567 58 q 583 14 567 31 q 642 -7 603 -7 l 653 -7 q 699 -4 675 -6 q 769 0 749 -3 l 936 0 l 982 -6 q 1018 -4 1006 -6 q 1051 -3 1042 -4 m 633 433 l 426 431 l 532 735 l 633 433 m 749 1083 q 719 1140 749 1118 q 649 1163 689 1163 q 578 1139 608 1163 q 549 1083 549 1117 q 579 1028 549 1050 q 649 1004 610 1004 q 719 1028 689 1004 q 749 1083 749 1051 m 507 1083 q 476 1140 507 1118 q 406 1164 444 1164 q 333 1140 364 1164 q 304 1083 304 1118 q 335 1028 304 1050 q 406 1004 365 1004 q 478 1028 446 1004 q 507 1083 507 1051 z "},"Å":{"ha":1097,"x_min":-1,"x_max":1088,"o":"m 1051 -3 q 1079 11 1069 -3 q 1088 46 1088 26 q 1075 96 1088 74 q 1042 118 1061 118 l 942 118 q 914 147 926 118 q 890 206 897 186 l 640 864 q 594 922 618 910 q 535 933 569 933 q 471 914 499 933 q 432 863 443 894 l 154 154 q 149 139 153 151 l 144 131 q 126 115 138 115 q 92 117 106 115 q 56 118 78 118 q 17 99 33 118 q -1 53 -1 79 q 22 8 -1 25 q 75 -10 44 -10 q 144 -1 117 -4 q 190 3 172 1 l 321 3 q 356 -1 335 3 q 390 -6 376 -6 q 464 6 426 -6 q 499 36 499 15 q 490 94 499 74 q 457 115 481 115 l 336 121 q 318 144 318 121 q 319 156 318 149 l 321 158 l 363 263 l 364 268 q 372 290 369 281 q 392 306 381 306 l 682 306 l 682 296 q 683 289 682 290 l 743 131 q 744 125 744 129 q 732 115 744 118 l 708 115 l 633 121 q 588 108 607 121 q 568 61 568 96 q 567 53 567 58 q 583 14 567 31 q 642 -7 603 -7 l 653 -7 q 699 -4 675 -6 q 769 0 749 -3 l 936 0 l 982 -6 q 1018 -4 1006 -6 q 1051 -3 1042 -4 m 633 433 l 426 431 l 532 735 l 633 433 m 667 1100 q 628 1186 667 1150 q 533 1222 588 1222 q 440 1186 481 1222 q 401 1100 401 1151 q 440 1014 401 1049 q 533 979 479 979 q 628 1015 588 979 q 667 1100 667 1050 m 571 1100 q 533 1067 571 1067 q 497 1100 497 1067 q 533 1135 497 1135 q 560 1125 550 1135 q 571 1100 571 1114 z "},"Æ":{"ha":1429,"x_min":-49,"x_max":1407,"o":"m 1407 61 q 1400 151 1407 86 q 1393 247 1393 217 q 1394 272 1393 254 l 1396 283 q 1397 294 1397 292 q 1399 318 1399 311 q 1378 379 1399 350 q 1326 408 1357 408 q 1276 392 1297 408 q 1256 351 1256 375 l 1258 264 l 1258 217 l 1258 199 q 1247 150 1258 169 q 1197 131 1235 131 l 903 121 q 886 135 888 121 q 882 172 882 147 l 882 383 q 918 414 882 414 l 1003 414 q 1024 413 1017 414 q 1035 408 1029 411 q 1039 407 1038 407 l 1046 263 q 1069 229 1049 243 q 1108 215 1089 215 q 1167 240 1153 215 q 1181 310 1181 263 q 1169 394 1172 365 q 1165 457 1165 436 q 1169 506 1165 461 q 1172 546 1171 521 q 1181 657 1178 621 q 1163 708 1181 686 q 1113 731 1144 731 q 1060 701 1081 731 q 1042 644 1042 675 l 1042 636 l 1047 558 q 1033 544 1047 549 q 994 539 1021 539 l 906 539 q 882 557 882 539 l 882 739 q 907 789 882 783 q 976 794 929 794 l 1186 792 q 1235 772 1219 792 q 1250 703 1250 750 l 1247 568 q 1268 525 1247 538 q 1318 511 1288 511 q 1371 533 1351 511 q 1390 608 1390 557 l 1385 672 q 1392 763 1385 693 q 1399 858 1399 829 q 1372 911 1399 893 q 1314 928 1346 928 q 1149 922 1263 925 l 1128 922 q 1003 918 1097 922 q 919 915 964 917 l 822 919 q 796 931 811 928 q 761 933 776 933 q 613 772 742 933 q 349 435 493 625 q 140 160 215 260 q 119 128 129 138 q 94 115 110 115 q 67 117 85 115 q 25 118 49 118 q -17 100 3 118 q -43 68 -37 82 q -49 42 -49 56 q -29 6 -49 21 q 17 -10 -10 -10 l 24 -10 q 50 -8 31 -10 q 64 -7 53 -8 q 135 3 111 -1 l 265 3 q 299 -1 278 3 q 333 -6 319 -6 q 407 3 374 -6 q 447 35 439 11 q 456 81 456 58 q 425 115 456 115 q 407 113 414 113 q 364 111 400 111 q 319 121 321 111 q 297 132 297 121 q 308 154 297 139 l 383 258 q 404 288 390 265 q 432 306 418 306 l 722 306 q 717 301 719 303 q 713 294 713 297 l 722 135 l 722 122 q 693 115 704 115 l 688 115 q 642 119 667 118 q 594 121 625 121 q 561 100 574 119 q 547 61 547 82 q 572 8 547 21 q 646 -6 594 -6 q 778 4 693 -1 q 799 4 785 4 q 896 7 872 7 q 1171 -3 989 3 l 1188 -3 q 1317 -8 1313 -7 l 1322 -8 q 1371 8 1338 -8 q 1407 61 1407 28 m 493 438 l 708 436 l 710 692 l 499 424 q 492 428 493 426 q 493 438 492 433 z "},"Ç":{"ha":888,"x_min":26,"x_max":847,"o":"m 847 311 q 835 372 847 350 q 774 393 821 393 q 721 375 739 393 q 701 333 701 356 q 628 154 701 207 q 471 103 556 103 q 261 203 324 103 q 199 449 199 301 q 258 718 199 608 q 467 826 317 826 q 663 729 644 826 q 679 590 679 640 l 679 583 q 701 529 685 550 q 750 510 717 510 q 804 524 789 510 q 821 585 821 536 l 821 601 l 818 653 q 817 710 818 683 q 815 771 815 735 q 818 833 815 790 l 818 842 q 819 874 819 853 q 821 904 819 894 q 804 939 821 922 q 754 956 788 956 q 715 940 735 956 q 694 901 694 924 l 694 875 q 590 936 644 915 q 464 957 535 957 q 143 811 258 957 q 26 461 26 664 q 140 115 26 258 q 461 -28 254 -28 q 750 67 651 -28 q 847 311 847 160 m 600 -162 q 563 -92 600 -115 q 469 -71 525 -71 l 463 -71 l 483 -22 l 403 -22 q 396 -39 401 -26 q 385 -65 389 -54 l 378 -81 q 363 -112 368 -103 q 361 -121 361 -115 q 374 -142 361 -132 q 406 -158 390 -158 q 435 -150 413 -158 q 471 -143 458 -143 q 493 -165 493 -143 q 482 -186 493 -183 q 444 -190 469 -190 q 404 -181 428 -190 q 354 -162 372 -171 q 324 -174 339 -162 q 308 -196 308 -185 q 354 -240 308 -219 q 451 -262 397 -262 q 553 -233 506 -262 q 600 -162 600 -204 z "},"È":{"ha":888,"x_min":6,"x_max":865,"o":"m 865 64 q 858 154 865 89 q 851 250 851 219 q 853 275 851 257 l 854 286 q 856 297 856 294 q 857 321 857 314 q 836 382 857 353 q 785 411 815 411 q 735 394 756 411 q 714 354 714 378 l 717 265 q 721 250 719 257 q 722 219 722 243 q 708 158 722 181 q 656 133 694 133 l 361 124 q 344 138 346 124 q 340 175 340 150 l 340 386 q 376 417 340 417 l 461 417 q 482 415 475 417 q 493 411 488 414 q 497 410 496 410 l 504 265 q 528 232 507 246 q 567 218 547 218 q 625 243 611 218 q 639 313 639 265 q 628 397 631 368 q 624 460 624 439 q 628 508 624 464 q 631 549 629 524 q 639 660 636 624 q 621 708 639 686 q 571 733 603 732 q 518 704 539 733 q 500 647 500 678 l 500 639 l 506 561 q 492 547 506 551 q 453 542 479 542 l 364 542 q 340 560 340 542 l 340 742 q 365 792 340 786 q 435 797 388 797 l 644 793 q 699 768 689 793 q 708 706 708 744 l 706 571 q 726 528 706 540 q 776 514 746 514 q 829 536 810 514 q 849 611 849 560 l 843 675 q 850 765 843 696 q 857 861 857 832 q 831 914 857 896 q 772 931 804 931 q 607 925 721 928 l 586 925 q 461 921 556 925 q 378 918 422 919 q 247 926 347 918 q 106 933 136 933 q 32 919 56 933 q 6 860 6 906 q 19 825 6 844 q 51 804 35 804 l 144 807 q 181 790 175 807 q 185 729 185 772 l 185 197 q 178 140 185 164 q 146 118 172 118 q 100 122 125 121 q 53 124 83 124 q 19 103 32 122 q 6 64 6 85 q 31 11 6 24 q 104 -3 53 -3 q 236 7 151 1 q 257 7 243 7 q 354 10 331 10 q 629 0 447 6 l 646 0 q 775 -6 771 -4 l 781 -6 q 829 11 796 -6 q 865 64 865 31 m 546 1060 l 375 1183 q 346 1200 358 1196 q 317 1204 332 1204 q 261 1182 282 1204 q 239 1128 239 1160 q 283 1072 239 1088 l 499 1008 q 519 1006 507 1006 q 561 1033 561 1006 q 546 1060 561 1049 z "},"É":{"ha":888,"x_min":6,"x_max":865,"o":"m 865 64 q 858 154 865 89 q 851 250 851 219 q 853 275 851 257 l 854 286 q 856 297 856 294 q 857 321 857 314 q 836 382 857 353 q 785 411 815 411 q 735 394 756 411 q 714 354 714 378 l 717 265 q 721 250 719 257 q 722 219 722 243 q 708 158 722 181 q 656 133 694 133 l 361 124 q 344 138 346 124 q 340 175 340 150 l 340 386 q 376 417 340 417 l 461 417 q 482 415 475 417 q 493 411 488 414 q 497 410 496 410 l 504 265 q 528 232 507 246 q 567 218 547 218 q 625 243 611 218 q 639 313 639 265 q 628 397 631 368 q 624 460 624 439 q 628 508 624 464 q 631 549 629 524 q 639 660 636 624 q 621 708 639 686 q 571 733 603 732 q 518 704 539 733 q 500 647 500 678 l 500 639 l 506 561 q 492 547 506 551 q 453 542 479 542 l 364 542 q 340 560 340 542 l 340 742 q 365 792 340 786 q 435 797 388 797 l 644 793 q 699 768 689 793 q 708 706 708 744 l 706 571 q 726 528 706 540 q 776 514 746 514 q 829 536 810 514 q 849 611 849 560 l 843 675 q 850 765 843 696 q 857 861 857 832 q 831 914 857 896 q 772 931 804 931 q 607 925 721 928 l 586 925 q 461 921 556 925 q 378 918 422 919 q 247 926 347 918 q 106 933 136 933 q 32 919 56 933 q 6 860 6 906 q 19 825 6 844 q 51 804 35 804 l 144 807 q 181 790 175 807 q 185 729 185 772 l 185 197 q 178 140 185 164 q 146 118 172 118 q 100 122 125 121 q 53 124 83 124 q 19 103 32 122 q 6 64 6 85 q 31 11 6 24 q 104 -3 53 -3 q 236 7 151 1 q 257 7 243 7 q 354 10 331 10 q 629 0 447 6 l 646 0 q 775 -6 771 -4 l 781 -6 q 829 11 796 -6 q 865 64 865 31 m 567 1072 q 601 1094 590 1079 q 611 1128 611 1108 q 589 1181 611 1158 q 535 1204 565 1204 q 507 1199 522 1204 q 475 1183 488 1192 l 303 1060 q 289 1035 289 1047 q 300 1014 289 1022 q 329 1006 311 1006 q 351 1008 343 1006 l 567 1072 z "},"Ê":{"ha":888,"x_min":6,"x_max":865,"o":"m 865 64 q 858 154 865 89 q 851 250 851 219 q 853 275 851 257 l 854 286 q 856 297 856 294 q 857 321 857 314 q 836 382 857 353 q 785 411 815 411 q 735 394 756 411 q 714 354 714 378 l 717 265 q 721 250 719 257 q 722 219 722 243 q 708 158 722 181 q 656 133 694 133 l 361 124 q 344 138 346 124 q 340 175 340 150 l 340 386 q 376 417 340 417 l 461 417 q 482 415 475 417 q 493 411 488 414 q 497 410 496 410 l 504 265 q 528 232 507 246 q 567 218 547 218 q 625 243 611 218 q 639 313 639 265 q 628 397 631 368 q 624 460 624 439 q 628 508 624 464 q 631 549 629 524 q 639 660 636 624 q 621 708 639 686 q 571 733 603 732 q 518 704 539 733 q 500 647 500 678 l 500 639 l 506 561 q 492 547 506 551 q 453 542 479 542 l 364 542 q 340 560 340 542 l 340 742 q 365 792 340 786 q 435 797 388 797 l 644 793 q 699 768 689 793 q 708 706 708 744 l 706 571 q 726 528 706 540 q 776 514 746 514 q 829 536 810 514 q 849 611 849 560 l 843 675 q 850 765 843 696 q 857 861 857 832 q 831 914 857 896 q 772 931 804 931 q 607 925 721 928 l 586 925 q 461 921 556 925 q 378 918 422 919 q 247 926 347 918 q 106 933 136 933 q 32 919 56 933 q 6 860 6 906 q 19 825 6 844 q 51 804 35 804 l 144 807 q 181 790 175 807 q 185 729 185 772 l 185 197 q 178 140 185 164 q 146 118 172 118 q 100 122 125 121 q 53 124 83 124 q 19 103 32 122 q 6 64 6 85 q 31 11 6 24 q 104 -3 53 -3 q 236 7 151 1 q 257 7 243 7 q 354 10 331 10 q 629 0 447 6 l 646 0 q 775 -6 771 -4 l 781 -6 q 829 11 796 -6 q 865 64 865 31 m 696 1065 l 482 1189 q 456 1200 463 1200 q 426 1189 451 1200 l 215 1065 q 189 1036 189 1051 q 204 1017 189 1024 q 239 1008 219 1008 q 253 1010 250 1008 l 453 1072 q 538 1047 465 1069 q 633 1017 592 1029 q 672 1007 658 1007 q 703 1017 693 1007 q 713 1039 713 1026 q 696 1065 713 1056 z "},"Ë":{"ha":888,"x_min":6,"x_max":865,"o":"m 865 64 q 858 154 865 89 q 851 250 851 219 q 853 275 851 257 l 854 286 q 856 297 856 294 q 857 321 857 314 q 836 382 857 353 q 785 411 815 411 q 735 394 756 411 q 714 354 714 378 l 717 265 q 721 250 719 257 q 722 219 722 243 q 708 158 722 181 q 656 133 694 133 l 361 124 q 344 138 346 124 q 340 175 340 150 l 340 386 q 376 417 340 417 l 461 417 q 482 415 475 417 q 493 411 488 414 q 497 410 496 410 l 504 265 q 528 232 507 246 q 567 218 547 218 q 625 243 611 218 q 639 313 639 265 q 628 397 631 368 q 624 460 624 439 q 628 508 624 464 q 631 549 629 524 q 639 660 636 624 q 621 708 639 686 q 571 733 603 732 q 518 704 539 733 q 500 647 500 678 l 500 639 l 506 561 q 492 547 506 551 q 453 542 479 542 l 364 542 q 340 560 340 542 l 340 742 q 365 792 340 786 q 435 797 388 797 l 644 793 q 699 768 689 793 q 708 706 708 744 l 706 571 q 726 528 706 540 q 776 514 746 514 q 829 536 810 514 q 849 611 849 560 l 843 675 q 850 765 843 696 q 857 861 857 832 q 831 914 857 896 q 772 931 804 931 q 607 925 721 928 l 586 925 q 461 921 556 925 q 378 918 422 919 q 247 926 347 918 q 106 933 136 933 q 32 919 56 933 q 6 860 6 906 q 19 825 6 844 q 51 804 35 804 l 144 807 q 181 790 175 807 q 185 729 185 772 l 185 197 q 178 140 185 164 q 146 118 172 118 q 100 122 125 121 q 53 124 83 124 q 19 103 32 122 q 6 64 6 85 q 31 11 6 24 q 104 -3 53 -3 q 236 7 151 1 q 257 7 243 7 q 354 10 331 10 q 629 0 447 6 l 646 0 q 775 -6 771 -4 l 781 -6 q 829 11 796 -6 q 865 64 865 31 m 694 1086 q 665 1143 694 1121 q 594 1165 635 1165 q 524 1142 554 1165 q 494 1086 494 1119 q 525 1031 494 1053 q 594 1007 556 1007 q 665 1031 635 1007 q 694 1086 694 1054 m 453 1086 q 422 1143 453 1121 q 351 1167 390 1167 q 279 1143 310 1167 q 250 1086 250 1121 q 281 1031 250 1053 q 351 1007 311 1007 q 424 1031 392 1007 q 453 1086 453 1054 z "},"Ì":{"ha":540,"x_min":4,"x_max":524,"o":"m 522 858 q 524 869 524 863 q 499 913 524 896 q 419 931 471 931 q 324 922 372 925 q 247 918 276 918 q 214 921 243 918 l 176 925 q 85 933 113 932 q 28 908 51 928 q 4 861 4 889 q 15 824 4 843 q 50 804 26 804 q 96 806 76 804 q 118 807 108 807 q 140 808 136 808 q 178 779 169 808 q 185 725 179 761 l 185 196 q 183 171 183 183 q 182 144 182 150 q 160 118 181 118 l 51 118 q 18 100 31 118 q 6 60 6 82 q 31 6 6 17 q 103 -6 56 -6 l 247 3 q 357 -1 285 3 q 467 -6 431 -6 q 508 11 499 -6 q 519 54 519 26 q 507 99 519 81 q 472 118 494 118 l 382 115 q 349 131 356 115 q 340 175 340 146 l 340 194 l 340 729 q 349 786 340 764 q 385 808 357 808 l 471 804 q 506 821 492 804 q 522 858 521 836 m 326 1064 l 156 1188 q 126 1204 139 1200 q 97 1208 113 1208 q 42 1186 63 1208 q 19 1132 19 1164 q 64 1076 19 1092 l 279 1013 q 300 1010 288 1010 q 342 1038 342 1010 q 326 1064 342 1053 z "},"Í":{"ha":540,"x_min":4,"x_max":524,"o":"m 522 858 q 524 869 524 863 q 499 913 524 896 q 419 931 471 931 q 324 922 372 925 q 247 918 276 918 q 214 921 243 918 l 176 925 q 85 933 113 932 q 28 908 51 928 q 4 861 4 889 q 15 824 4 843 q 50 804 26 804 q 96 806 76 804 q 118 807 108 807 q 140 808 136 808 q 178 779 169 808 q 185 725 179 761 l 185 196 q 183 171 183 183 q 182 144 182 150 q 160 118 181 118 l 51 118 q 18 100 31 118 q 6 60 6 82 q 31 6 6 17 q 103 -6 56 -6 l 247 3 q 357 -1 285 3 q 467 -6 431 -6 q 508 11 499 -6 q 519 54 519 26 q 507 99 519 81 q 472 118 494 118 l 382 115 q 349 131 356 115 q 340 175 340 146 l 340 194 l 340 729 q 349 786 340 764 q 385 808 357 808 l 471 804 q 506 821 492 804 q 522 858 521 836 m 418 1067 q 453 1089 442 1074 q 463 1122 463 1103 q 440 1175 463 1153 q 386 1199 417 1199 q 358 1193 374 1199 q 326 1178 339 1186 l 154 1054 q 140 1029 140 1042 q 151 1008 140 1017 q 181 1000 163 1000 q 203 1003 194 1000 l 418 1067 z "},"Î":{"ha":540,"x_min":-11,"x_max":524,"o":"m 522 858 q 524 869 524 863 q 499 913 524 896 q 419 931 471 931 q 324 922 372 925 q 247 918 276 918 q 214 921 243 918 l 176 925 q 85 933 113 932 q 28 908 51 928 q 4 861 4 889 q 15 824 4 843 q 50 804 26 804 q 96 806 76 804 q 118 807 108 807 q 140 808 136 808 q 178 779 169 808 q 185 725 179 761 l 185 196 q 183 171 183 183 q 182 144 182 150 q 160 118 181 118 l 51 118 q 18 100 31 118 q 6 60 6 82 q 31 6 6 17 q 103 -6 56 -6 l 247 3 q 357 -1 285 3 q 467 -6 431 -6 q 508 11 499 -6 q 519 54 519 26 q 507 99 519 81 q 472 118 494 118 l 382 115 q 349 131 356 115 q 340 175 340 146 l 340 194 l 340 729 q 349 786 340 764 q 385 808 357 808 l 471 804 q 506 821 492 804 q 522 858 521 836 m 496 1069 l 282 1193 q 256 1204 263 1204 q 226 1193 251 1204 l 15 1069 q -11 1040 -11 1056 q 4 1021 -11 1028 q 39 1013 19 1013 q 53 1014 50 1013 l 253 1076 q 338 1051 265 1074 q 433 1021 392 1033 q 472 1011 458 1011 q 503 1021 493 1011 q 513 1043 513 1031 q 496 1069 513 1060 z "},"Ï":{"ha":540,"x_min":4,"x_max":524,"o":"m 522 858 q 524 869 524 863 q 499 913 524 896 q 419 931 471 931 q 324 922 372 925 q 247 918 276 918 q 214 921 243 918 l 176 925 q 85 933 113 932 q 28 908 51 928 q 4 861 4 889 q 15 824 4 843 q 50 804 26 804 q 96 806 76 804 q 118 807 108 807 q 140 808 136 808 q 178 779 169 808 q 185 725 179 761 l 185 196 q 183 171 183 183 q 182 144 182 150 q 160 118 181 118 l 51 118 q 18 100 31 118 q 6 60 6 82 q 31 6 6 17 q 103 -6 56 -6 l 247 3 q 357 -1 285 3 q 467 -6 431 -6 q 508 11 499 -6 q 519 54 519 26 q 507 99 519 81 q 472 118 494 118 l 382 115 q 349 131 356 115 q 340 175 340 146 l 340 194 l 340 729 q 349 786 340 764 q 385 808 357 808 l 471 804 q 506 821 492 804 q 522 858 521 836 m 481 1089 q 451 1146 481 1124 q 381 1168 421 1168 q 310 1144 340 1168 q 281 1089 281 1122 q 311 1033 281 1056 q 381 1010 342 1010 q 451 1033 421 1010 q 481 1089 481 1057 m 239 1089 q 208 1146 239 1124 q 138 1169 176 1169 q 65 1146 96 1169 q 36 1089 36 1124 q 67 1033 36 1056 q 138 1010 97 1010 q 210 1033 178 1010 q 239 1089 239 1057 z "},"Ð":{"ha":1004,"x_min":4,"x_max":978,"o":"m 978 463 q 858 800 978 671 q 510 928 738 928 q 404 922 476 928 q 288 917 331 917 q 192 924 269 917 l 185 924 q 71 931 99 931 q 19 911 35 931 q 4 861 4 889 q 18 822 4 838 q 51 804 31 804 l 144 804 q 178 788 172 804 q 182 728 182 769 l 182 553 l 88 553 q 43 533 58 553 q 28 485 28 511 q 44 439 28 458 q 88 418 60 418 l 182 418 l 182 194 q 175 138 182 163 q 146 115 169 115 q 101 119 129 117 q 51 121 85 121 q 17 100 28 121 q 4 63 4 79 q 25 11 4 28 q 103 -6 46 -6 q 232 3 168 1 l 347 3 q 368 0 356 3 q 396 -3 389 -3 q 444 -6 429 -6 q 704 29 588 -6 q 900 165 821 63 q 978 463 978 268 m 815 468 q 736 211 815 303 q 496 118 656 118 q 429 124 468 118 q 364 132 389 128 q 342 154 342 135 q 343 181 342 168 l 343 418 l 433 418 q 476 439 463 418 q 492 486 492 458 q 478 533 492 515 q 433 553 463 553 l 343 553 l 343 742 q 363 788 343 776 q 467 797 381 797 q 739 710 663 797 q 815 468 815 624 z "},"Ñ":{"ha":1042,"x_min":4,"x_max":1029,"o":"m 1029 864 q 1010 918 1029 907 q 949 926 989 926 q 867 922 924 926 q 785 918 811 918 q 694 922 726 918 q 653 928 674 924 q 650 928 651 928 q 578 913 606 928 q 549 860 549 899 q 568 821 549 838 q 614 803 586 803 l 689 804 q 722 785 710 804 q 733 715 733 763 l 733 690 q 732 682 732 686 q 731 674 732 675 l 731 201 l 425 858 q 390 911 403 896 q 331 932 374 932 q 317 931 326 932 q 283 926 299 928 q 213 924 244 924 q 129 926 165 924 q 83 933 107 928 q 28 908 51 932 q 4 861 4 885 q 15 822 4 844 q 50 801 26 801 q 99 803 81 801 q 147 804 133 803 q 175 785 167 804 q 182 726 182 761 l 182 193 q 175 133 182 158 q 147 113 169 113 l 142 113 q 125 115 140 113 q 103 118 110 117 q 92 119 97 118 q 56 121 67 121 q 19 99 32 121 q 6 61 6 76 q 32 7 6 21 q 104 -8 58 -8 q 143 -3 122 -6 q 176 3 174 3 q 225 8 208 8 q 333 1 253 8 q 442 -6 414 -6 q 493 14 471 -6 q 513 61 513 33 q 494 106 513 92 q 451 121 475 121 q 440 121 450 121 q 411 118 424 119 l 392 117 q 376 115 381 115 l 372 115 q 339 131 346 115 q 331 163 331 146 l 331 717 l 624 82 q 688 1 650 28 q 764 -28 725 -28 q 843 13 811 -28 q 875 124 875 53 l 875 726 q 894 801 875 801 q 929 800 904 800 q 968 799 942 799 q 1013 813 997 799 q 1029 864 1029 828 m 733 1125 q 724 1149 733 1135 q 697 1161 714 1161 q 665 1139 678 1147 q 625 1126 647 1126 q 500 1149 588 1126 q 407 1169 411 1169 q 300 1138 344 1169 q 254 1058 254 1107 q 290 1022 254 1029 q 319 1043 301 1031 q 371 1056 339 1056 q 474 1036 399 1056 q 574 1017 549 1017 q 681 1042 626 1017 q 733 1125 733 1067 z "},"Ò":{"ha":888,"x_min":26,"x_max":875,"o":"m 875 464 q 767 819 875 681 q 458 957 658 957 q 139 814 249 957 q 26 464 26 671 q 136 113 26 251 q 446 -28 247 -28 q 771 117 667 -28 q 875 464 875 261 m 708 469 q 644 215 708 321 q 446 108 579 108 q 257 210 321 108 q 193 449 193 311 q 256 719 193 610 q 456 829 318 829 q 650 724 592 829 q 708 469 708 618 m 538 1074 l 367 1197 q 338 1214 350 1210 q 308 1218 324 1218 q 253 1196 274 1218 q 231 1142 231 1174 q 275 1086 231 1101 l 490 1022 q 511 1019 499 1019 q 553 1047 553 1019 q 538 1074 553 1063 z "},"Ó":{"ha":888,"x_min":26,"x_max":875,"o":"m 875 464 q 767 819 875 681 q 458 957 658 957 q 139 814 249 957 q 26 464 26 671 q 136 113 26 251 q 446 -28 247 -28 q 771 117 667 -28 q 875 464 875 261 m 708 469 q 644 215 708 321 q 446 108 579 108 q 257 210 321 108 q 193 449 193 311 q 256 719 193 610 q 456 829 318 829 q 650 724 592 829 q 708 469 708 618 m 596 1081 q 631 1103 619 1088 q 640 1136 640 1117 q 618 1189 640 1167 q 564 1213 594 1213 q 536 1207 551 1213 q 504 1192 517 1200 l 332 1068 q 318 1043 318 1056 q 329 1022 318 1031 q 358 1014 340 1014 q 381 1017 372 1014 l 596 1081 z "},"Ô":{"ha":888,"x_min":26,"x_max":875,"o":"m 875 464 q 767 819 875 681 q 458 957 658 957 q 139 814 249 957 q 26 464 26 671 q 136 113 26 251 q 446 -28 247 -28 q 771 117 667 -28 q 875 464 875 261 m 708 469 q 644 215 708 321 q 446 108 579 108 q 257 210 321 108 q 193 449 193 311 q 256 719 193 610 q 456 829 318 829 q 650 724 592 829 q 708 469 708 618 m 688 1063 l 474 1186 q 447 1197 454 1197 q 418 1186 443 1197 l 207 1063 q 181 1033 181 1049 q 196 1014 181 1021 q 231 1006 211 1006 q 244 1007 242 1006 l 444 1069 q 529 1044 457 1067 q 625 1014 583 1026 q 664 1004 650 1004 q 694 1014 685 1004 q 704 1036 704 1024 q 688 1063 704 1053 z "},"Õ":{"ha":888,"x_min":26,"x_max":875,"o":"m 875 464 q 767 819 875 681 q 458 957 658 957 q 139 814 249 957 q 26 464 26 671 q 136 113 26 251 q 446 -28 247 -28 q 771 117 667 -28 q 875 464 875 261 m 708 469 q 644 215 708 321 q 446 108 579 108 q 257 210 321 108 q 193 449 193 311 q 256 719 193 610 q 456 829 318 829 q 650 724 592 829 q 708 469 708 618 m 693 1124 q 683 1147 693 1133 q 657 1160 674 1160 q 625 1138 638 1146 q 585 1125 607 1125 q 460 1147 547 1125 q 367 1168 371 1168 q 260 1136 304 1168 q 214 1057 214 1106 q 250 1021 214 1028 q 279 1042 261 1029 q 331 1054 299 1054 q 433 1035 358 1054 q 533 1015 508 1015 q 640 1040 586 1015 q 693 1124 693 1065 z "},"Ö":{"ha":888,"x_min":26,"x_max":875,"o":"m 875 464 q 767 819 875 681 q 458 957 658 957 q 139 814 249 957 q 26 464 26 671 q 136 113 26 251 q 446 -28 247 -28 q 771 117 667 -28 q 875 464 875 261 m 708 469 q 644 215 708 321 q 446 108 579 108 q 257 210 321 108 q 193 449 193 311 q 256 719 193 610 q 456 829 318 829 q 650 724 592 829 q 708 469 708 618 m 675 1088 q 646 1144 675 1122 q 575 1167 615 1167 q 504 1143 535 1167 q 475 1088 475 1121 q 506 1032 475 1054 q 575 1008 536 1008 q 646 1032 615 1008 q 675 1088 675 1056 m 433 1088 q 403 1144 433 1122 q 332 1168 371 1168 q 260 1144 290 1168 q 231 1088 231 1122 q 261 1032 231 1054 q 332 1008 292 1008 q 404 1032 372 1008 q 433 1088 433 1056 z "},"×":{"ha":694,"x_min":25,"x_max":663,"o":"m 663 649 l 546 750 l 343 568 l 140 750 l 25 646 l 228 464 l 26 281 l 140 176 l 343 360 l 547 176 l 661 282 l 458 464 l 663 649 z "},"Ø":{"ha":888,"x_min":26,"x_max":875,"o":"m 875 464 q 840 683 875 585 q 739 847 804 785 l 790 917 q 801 936 796 925 q 808 957 808 950 q 800 975 808 969 q 768 985 790 983 l 731 992 q 724 993 724 993 q 708 994 713 994 q 685 989 694 994 q 665 964 676 983 l 646 914 q 458 957 565 957 q 139 814 249 957 q 26 464 26 671 q 131 121 26 258 l 71 28 q 67 15 69 24 q 64 -4 64 4 q 92 -29 64 -25 l 147 -39 q 163 -40 153 -40 q 185 -33 175 -40 q 201 -14 194 -26 l 203 47 q 446 -28 310 -28 q 771 117 667 -28 q 875 464 875 261 m 564 806 l 225 271 q 200 357 206 315 q 193 449 193 403 q 256 719 193 610 q 456 829 318 829 q 514 824 490 829 q 564 806 535 819 m 708 469 q 644 215 708 321 q 446 108 579 108 q 308 154 367 108 l 658 710 q 699 599 689 654 q 708 469 708 544 z "},"Ù":{"ha":1004,"x_min":-7,"x_max":993,"o":"m 993 872 q 971 922 993 908 q 913 935 949 935 q 882 933 911 935 q 851 931 871 932 q 765 926 792 926 l 613 933 q 532 918 550 933 q 515 867 515 904 q 528 826 515 850 q 564 804 540 804 q 597 808 567 804 q 643 813 626 813 q 663 807 657 813 q 685 793 675 807 q 693 744 693 779 l 693 256 q 638 147 693 186 q 499 107 581 107 q 360 144 410 107 q 300 258 308 179 l 300 744 q 307 785 300 760 q 322 807 313 807 l 425 804 q 469 825 449 804 q 490 868 490 846 q 468 919 490 906 q 408 935 444 935 q 328 931 397 935 q 221 925 267 925 l 65 936 q 17 919 40 936 q -7 872 -7 900 q 14 826 -7 846 q 60 807 36 807 l 124 810 q 143 778 143 810 q 142 744 143 760 l 142 294 q 217 60 142 143 q 490 -25 289 -25 q 765 61 679 -25 q 851 294 851 147 q 847 422 850 338 q 846 629 846 476 q 850 740 846 732 q 854 785 850 763 q 874 807 857 807 q 888 804 882 804 q 922 803 892 803 q 936 804 931 803 q 979 821 965 804 q 993 872 993 835 m 544 1056 l 374 1179 q 344 1196 357 1192 q 315 1200 331 1200 q 260 1178 281 1200 q 238 1124 238 1156 q 282 1068 238 1083 l 497 1004 q 518 1001 506 1001 q 560 1029 560 1001 q 544 1056 560 1044 z "},"Ú":{"ha":1004,"x_min":-7,"x_max":993,"o":"m 993 872 q 971 922 993 908 q 913 935 949 935 q 882 933 911 935 q 851 931 871 932 q 765 926 792 926 l 613 933 q 532 918 550 933 q 515 867 515 904 q 528 826 515 850 q 564 804 540 804 q 597 808 567 804 q 643 813 626 813 q 663 807 657 813 q 685 793 675 807 q 693 744 693 779 l 693 256 q 638 147 693 186 q 499 107 581 107 q 360 144 410 107 q 300 258 308 179 l 300 744 q 307 785 300 760 q 322 807 313 807 l 425 804 q 469 825 449 804 q 490 868 490 846 q 468 919 490 906 q 408 935 444 935 q 328 931 397 935 q 221 925 267 925 l 65 936 q 17 919 40 936 q -7 872 -7 900 q 14 826 -7 846 q 60 807 36 807 l 124 810 q 143 778 143 810 q 142 744 143 760 l 142 294 q 217 60 142 143 q 490 -25 289 -25 q 765 61 679 -25 q 851 294 851 147 q 847 422 850 338 q 846 629 846 476 q 850 740 846 732 q 854 785 850 763 q 874 807 857 807 q 888 804 882 804 q 922 803 892 803 q 936 804 931 803 q 979 821 965 804 q 993 872 993 835 m 700 1060 q 735 1082 724 1067 q 744 1115 744 1096 q 722 1168 744 1146 q 668 1192 699 1192 q 640 1186 656 1192 q 608 1171 621 1179 l 436 1047 q 422 1022 422 1035 q 433 1001 422 1010 q 463 993 444 993 q 485 996 476 993 l 700 1060 z "},"Û":{"ha":1004,"x_min":-7,"x_max":993,"o":"m 993 872 q 971 922 993 908 q 913 935 949 935 q 882 933 911 935 q 851 931 871 932 q 765 926 792 926 l 613 933 q 532 918 550 933 q 515 867 515 904 q 528 826 515 850 q 564 804 540 804 q 597 808 567 804 q 643 813 626 813 q 663 807 657 813 q 685 793 675 807 q 693 744 693 779 l 693 256 q 638 147 693 186 q 499 107 581 107 q 360 144 410 107 q 300 258 308 179 l 300 744 q 307 785 300 760 q 322 807 313 807 l 425 804 q 469 825 449 804 q 490 868 490 846 q 468 919 490 906 q 408 935 444 935 q 328 931 397 935 q 221 925 267 925 l 65 936 q 17 919 40 936 q -7 872 -7 900 q 14 826 -7 846 q 60 807 36 807 l 124 810 q 143 778 143 810 q 142 744 143 760 l 142 294 q 217 60 142 143 q 490 -25 289 -25 q 765 61 679 -25 q 851 294 851 147 q 847 422 850 338 q 846 629 846 476 q 850 740 846 732 q 854 785 850 763 q 874 807 857 807 q 888 804 882 804 q 922 803 892 803 q 936 804 931 803 q 979 821 965 804 q 993 872 993 835 m 756 1058 l 542 1182 q 515 1193 522 1193 q 486 1182 511 1193 l 275 1058 q 249 1029 249 1044 q 264 1010 249 1017 q 299 1001 279 1001 q 313 1003 310 1001 l 513 1065 q 597 1040 525 1063 q 693 1010 651 1022 q 732 1000 718 1000 q 763 1010 753 1000 q 772 1032 772 1019 q 756 1058 772 1049 z "},"Ü":{"ha":1004,"x_min":-7,"x_max":993,"o":"m 993 872 q 971 922 993 908 q 913 935 949 935 q 882 933 911 935 q 851 931 871 932 q 765 926 792 926 l 613 933 q 532 918 550 933 q 515 867 515 904 q 528 826 515 850 q 564 804 540 804 q 597 808 567 804 q 643 813 626 813 q 663 807 657 813 q 685 793 675 807 q 693 744 693 779 l 693 256 q 638 147 693 186 q 499 107 581 107 q 360 144 410 107 q 300 258 308 179 l 300 744 q 307 785 300 760 q 322 807 313 807 l 425 804 q 469 825 449 804 q 490 868 490 846 q 468 919 490 906 q 408 935 444 935 q 328 931 397 935 q 221 925 267 925 l 65 936 q 17 919 40 936 q -7 872 -7 900 q 14 826 -7 846 q 60 807 36 807 l 124 810 q 143 778 143 810 q 142 744 143 760 l 142 294 q 217 60 142 143 q 490 -25 289 -25 q 765 61 679 -25 q 851 294 851 147 q 847 422 850 338 q 846 629 846 476 q 850 740 846 732 q 854 785 850 763 q 874 807 857 807 q 888 804 882 804 q 922 803 892 803 q 936 804 931 803 q 979 821 965 804 q 993 872 993 835 m 724 1088 q 694 1144 724 1122 q 624 1167 664 1167 q 553 1143 583 1167 q 524 1088 524 1121 q 554 1032 524 1054 q 624 1008 585 1008 q 694 1032 664 1008 q 724 1088 724 1056 m 482 1088 q 451 1144 482 1122 q 381 1168 419 1168 q 308 1144 339 1168 q 279 1088 279 1122 q 310 1032 279 1054 q 381 1008 340 1008 q 453 1032 421 1008 q 482 1088 482 1056 z "},"Ý":{"ha":1042,"x_min":-26,"x_max":1064,"o":"m 1064 868 q 1049 917 1064 901 q 993 932 1033 932 q 932 926 978 932 q 851 921 886 921 q 746 929 828 921 q 629 936 656 936 q 569 915 585 936 q 553 867 553 893 q 571 828 553 850 q 610 804 588 804 l 728 810 l 722 808 l 526 488 l 333 808 l 419 807 q 468 826 449 807 q 485 872 485 846 q 464 915 485 899 q 403 932 442 932 l 254 921 q 171 925 242 921 q 143 926 156 925 q 53 928 81 928 q -1 915 18 928 q -26 861 -19 903 l -26 856 q -15 824 -26 842 q 22 803 0 803 l 122 804 q 139 796 135 804 q 146 786 140 792 q 150 778 149 779 l 440 340 l 440 194 q 433 138 440 163 q 403 115 428 115 q 365 119 389 118 q 310 121 349 121 q 276 100 289 121 q 263 63 263 81 q 289 14 263 32 q 361 -6 315 -6 q 449 4 390 -1 q 474 6 463 6 q 511 7 504 7 q 593 1 538 7 q 700 -6 663 -6 q 758 10 735 -6 q 781 61 781 24 q 767 101 781 82 q 731 121 751 121 l 639 115 l 636 115 q 608 138 617 115 q 599 197 599 158 l 599 349 l 872 758 q 875 763 874 761 q 893 794 885 779 q 928 811 908 811 l 933 811 q 956 806 946 807 q 988 801 971 801 q 1015 807 1003 801 q 1050 821 1025 811 q 1064 868 1064 831 m 722 1064 q 757 1086 746 1071 q 767 1119 767 1100 q 744 1172 767 1150 q 690 1196 721 1196 q 663 1190 678 1196 q 631 1175 643 1183 l 458 1051 q 444 1026 444 1039 q 456 1006 444 1014 q 485 997 467 997 q 507 1000 499 997 l 722 1064 z "},"Þ":{"ha":849,"x_min":-6,"x_max":807,"o":"m 807 349 q 728 617 807 507 q 496 725 647 725 q 383 710 438 725 q 292 658 331 693 l 292 1021 q 276 1065 292 1050 q 233 1078 260 1078 l 68 1081 q 21 1064 33 1081 q 7 1013 7 1049 q 21 972 7 990 q 54 951 33 951 q 104 956 74 951 q 140 960 133 957 q 147 950 147 960 q 146 935 147 947 l 144 919 l 144 -21 q 146 -37 144 -24 q 147 -53 146 -46 q 149 -86 149 -64 q 126 -125 149 -125 l 124 -125 q 110 -122 119 -125 q 92 -119 99 -121 l 88 -119 q 57 -117 67 -117 q 8 -139 22 -117 q -6 -175 -6 -157 q -4 -183 -6 -181 q 8 -225 -4 -207 q 54 -244 21 -244 q 65 -244 57 -244 q 132 -242 90 -243 q 174 -240 156 -242 q 232 -239 221 -239 l 338 -247 q 406 -233 379 -247 q 432 -182 432 -219 q 419 -139 432 -156 q 365 -119 407 -124 q 361 -119 365 -119 q 336 -122 353 -121 l 322 -124 q 308 -125 310 -125 l 304 -125 q 289 -94 289 -125 q 290 -82 289 -89 q 292 -64 290 -71 l 292 31 q 371 -11 332 4 q 456 -26 413 -26 q 719 82 632 -26 q 807 349 807 190 m 650 361 q 610 174 650 253 q 461 97 571 97 q 336 158 376 97 q 294 304 294 219 q 331 521 294 442 q 489 597 365 597 q 613 531 574 597 q 650 361 650 463 z "},"ß":{"ha":888,"x_min":-7,"x_max":840,"o":"m 840 238 q 757 406 840 333 q 567 550 683 469 q 646 622 567 568 q 724 761 724 675 q 646 907 724 849 q 464 965 567 965 q 225 863 274 965 q 153 692 181 767 l 68 694 q 31 676 44 694 q 15 639 15 657 q 14 624 14 635 q 31 588 14 599 q 72 572 49 574 q 103 574 89 572 q 132 575 115 575 q 142 554 140 561 q 144 540 143 547 q 147 531 147 531 l 147 178 q 150 165 149 174 q 153 156 153 160 q 154 136 154 149 q 142 121 154 121 l 40 121 q 6 103 15 121 q -7 58 -7 85 q 33 11 -7 24 q 131 -1 74 -1 q 264 15 235 -1 q 292 97 292 31 l 292 607 q 333 769 292 710 q 471 829 372 829 q 540 817 510 829 q 569 776 569 803 q 483 651 569 722 q 397 547 397 581 q 544 403 397 488 q 690 232 690 318 q 651 150 690 179 q 556 119 613 119 q 474 154 492 119 q 454 276 454 189 q 436 322 454 304 q 392 342 417 342 q 336 313 357 338 q 318 267 318 294 q 319 253 318 257 q 319 249 319 253 q 322 221 321 239 l 324 200 q 325 179 325 183 q 324 158 325 176 q 322 121 324 150 q 318 43 318 74 q 340 3 318 24 q 386 -18 364 -18 q 431 -7 417 -18 q 447 25 443 4 q 454 22 450 24 q 514 -1 500 3 q 569 -10 538 -10 q 764 53 688 -10 q 840 238 840 113 z "},"à":{"ha":811,"x_min":28,"x_max":821,"o":"m 821 129 l 821 207 q 803 278 821 256 q 757 300 785 300 q 711 282 729 300 q 690 235 690 264 l 690 169 q 686 121 690 136 q 661 106 682 106 l 658 106 q 642 114 649 106 q 633 142 633 125 l 633 465 q 582 635 633 557 q 364 714 531 714 q 160 661 249 714 q 72 511 72 607 q 100 443 72 471 q 181 415 128 415 q 238 435 206 415 q 268 471 268 453 l 268 519 q 256 535 268 526 q 240 549 243 542 q 281 579 257 571 q 358 590 310 590 q 451 567 419 590 q 482 504 482 544 q 368 401 482 424 q 303 389 314 390 q 144 357 203 368 q 28 194 28 315 q 104 40 28 99 q 283 -19 181 -19 q 408 1 349 -19 q 510 63 467 21 q 560 8 525 28 q 663 -11 596 -11 q 778 28 735 -11 q 821 129 821 67 m 481 265 q 433 154 481 193 q 296 115 386 115 q 211 139 243 115 q 179 199 179 163 q 317 290 179 272 q 481 322 457 310 l 481 265 m 447 840 l 276 964 q 247 981 260 976 q 218 985 233 985 q 163 963 183 985 q 140 908 140 940 q 185 853 140 868 l 400 789 q 421 786 408 786 q 463 814 463 786 q 447 840 463 829 z "},"á":{"ha":811,"x_min":28,"x_max":821,"o":"m 821 129 l 821 207 q 803 278 821 256 q 757 300 785 300 q 711 282 729 300 q 690 235 690 264 l 690 169 q 686 121 690 136 q 661 106 682 106 l 658 106 q 642 114 649 106 q 633 142 633 125 l 633 465 q 582 635 633 557 q 364 714 531 714 q 160 661 249 714 q 72 511 72 607 q 100 443 72 471 q 181 415 128 415 q 238 435 206 415 q 268 471 268 453 l 268 519 q 256 535 268 526 q 240 549 243 542 q 281 579 257 571 q 358 590 310 590 q 451 567 419 590 q 482 504 482 544 q 368 401 482 424 q 303 389 314 390 q 144 357 203 368 q 28 194 28 315 q 104 40 28 99 q 283 -19 181 -19 q 408 1 349 -19 q 510 63 467 21 q 560 8 525 28 q 663 -11 596 -11 q 778 28 735 -11 q 821 129 821 67 m 481 265 q 433 154 481 193 q 296 115 386 115 q 211 139 243 115 q 179 199 179 163 q 317 290 179 272 q 481 322 457 310 l 481 265 m 542 858 q 576 881 565 865 q 586 914 586 894 q 564 967 586 944 q 510 990 540 990 q 482 985 497 990 q 450 969 463 978 l 278 846 q 264 821 264 833 q 275 800 264 808 q 304 792 286 792 q 326 794 318 792 l 542 858 z "},"â":{"ha":811,"x_min":28,"x_max":821,"o":"m 821 129 l 821 207 q 803 278 821 256 q 757 300 785 300 q 711 282 729 300 q 690 235 690 264 l 690 169 q 686 121 690 136 q 661 106 682 106 l 658 106 q 642 114 649 106 q 633 142 633 125 l 633 465 q 582 635 633 557 q 364 714 531 714 q 160 661 249 714 q 72 511 72 607 q 100 443 72 471 q 181 415 128 415 q 238 435 206 415 q 268 471 268 453 l 268 519 q 256 535 268 526 q 240 549 243 542 q 281 579 257 571 q 358 590 310 590 q 451 567 419 590 q 482 504 482 544 q 368 401 482 424 q 303 389 314 390 q 144 357 203 368 q 28 194 28 315 q 104 40 28 99 q 283 -19 181 -19 q 408 1 349 -19 q 510 63 467 21 q 560 8 525 28 q 663 -11 596 -11 q 778 28 735 -11 q 821 129 821 67 m 481 265 q 433 154 481 193 q 296 115 386 115 q 211 139 243 115 q 179 199 179 163 q 317 290 179 272 q 481 322 457 310 l 481 265 m 608 831 l 394 954 q 368 965 375 965 q 339 954 364 965 l 128 831 q 101 801 101 817 q 117 782 101 789 q 151 774 132 774 q 165 775 163 774 l 365 838 q 450 813 378 835 q 546 782 504 794 q 585 772 571 772 q 615 782 606 772 q 625 804 625 792 q 608 831 625 821 z "},"ã":{"ha":811,"x_min":28,"x_max":821,"o":"m 821 129 l 821 207 q 803 278 821 256 q 757 300 785 300 q 711 282 729 300 q 690 235 690 264 l 690 169 q 686 121 690 136 q 661 106 682 106 l 658 106 q 642 114 649 106 q 633 142 633 125 l 633 465 q 582 635 633 557 q 364 714 531 714 q 160 661 249 714 q 72 511 72 607 q 100 443 72 471 q 181 415 128 415 q 238 435 206 415 q 268 471 268 453 l 268 519 q 256 535 268 526 q 240 549 243 542 q 281 579 257 571 q 358 590 310 590 q 451 567 419 590 q 482 504 482 544 q 368 401 482 424 q 303 389 314 390 q 144 357 203 368 q 28 194 28 315 q 104 40 28 99 q 283 -19 181 -19 q 408 1 349 -19 q 510 63 467 21 q 560 8 525 28 q 663 -11 596 -11 q 778 28 735 -11 q 821 129 821 67 m 481 265 q 433 154 481 193 q 296 115 386 115 q 211 139 243 115 q 179 199 179 163 q 317 290 179 272 q 481 322 457 310 l 481 265 m 592 903 q 582 926 592 913 q 556 939 572 939 q 524 917 536 925 q 483 904 506 904 q 358 926 446 904 q 265 947 269 947 q 158 915 203 947 q 113 836 113 885 q 149 800 113 807 q 178 821 160 808 q 229 833 197 833 q 332 814 257 833 q 432 794 407 794 q 539 819 485 794 q 592 903 592 844 z "},"ä":{"ha":811,"x_min":28,"x_max":821,"o":"m 821 129 l 821 207 q 803 278 821 256 q 757 300 785 300 q 711 282 729 300 q 690 235 690 264 l 690 169 q 686 121 690 136 q 661 106 682 106 l 658 106 q 642 114 649 106 q 633 142 633 125 l 633 465 q 582 635 633 557 q 364 714 531 714 q 160 661 249 714 q 72 511 72 607 q 100 443 72 471 q 181 415 128 415 q 238 435 206 415 q 268 471 268 453 l 268 519 q 256 535 268 526 q 240 549 243 542 q 281 579 257 571 q 358 590 310 590 q 451 567 419 590 q 482 504 482 544 q 368 401 482 424 q 303 389 314 390 q 144 357 203 368 q 28 194 28 315 q 104 40 28 99 q 283 -19 181 -19 q 408 1 349 -19 q 510 63 467 21 q 560 8 525 28 q 663 -11 596 -11 q 778 28 735 -11 q 821 129 821 67 m 481 265 q 433 154 481 193 q 296 115 386 115 q 211 139 243 115 q 179 199 179 163 q 317 290 179 272 q 481 322 457 310 l 481 265 m 579 868 q 550 925 579 903 q 479 947 519 947 q 408 924 439 947 q 379 868 379 901 q 410 813 379 835 q 479 789 440 789 q 550 813 519 789 q 579 868 579 836 m 338 868 q 307 925 338 903 q 236 949 275 949 q 164 925 194 949 q 135 868 135 903 q 165 813 135 835 q 236 789 196 789 q 308 813 276 789 q 338 868 338 836 z "},"å":{"ha":811,"x_min":28,"x_max":821,"o":"m 821 129 l 821 207 q 803 278 821 256 q 757 300 785 300 q 711 282 729 300 q 690 235 690 264 l 690 169 q 686 121 690 136 q 661 106 682 106 l 658 106 q 642 114 649 106 q 633 142 633 125 l 633 465 q 582 635 633 557 q 364 714 531 714 q 160 661 249 714 q 72 511 72 607 q 100 443 72 471 q 181 415 128 415 q 238 435 206 415 q 268 471 268 453 l 268 519 q 256 535 268 526 q 240 549 243 542 q 281 579 257 571 q 358 590 310 590 q 451 567 419 590 q 482 504 482 544 q 368 401 482 424 q 303 389 314 390 q 144 357 203 368 q 28 194 28 315 q 104 40 28 99 q 283 -19 181 -19 q 408 1 349 -19 q 510 63 467 21 q 560 8 525 28 q 663 -11 596 -11 q 778 28 735 -11 q 821 129 821 67 m 481 265 q 433 154 481 193 q 296 115 386 115 q 211 139 243 115 q 179 199 179 163 q 317 290 179 272 q 481 322 457 310 l 481 265 m 479 911 q 442 999 479 964 q 350 1033 403 1033 q 260 999 297 1033 q 221 911 221 964 q 260 826 221 861 q 350 790 299 790 q 442 826 401 790 q 479 911 479 863 m 386 911 q 350 878 386 878 q 314 911 314 878 q 350 946 314 946 q 386 911 386 946 z "},"æ":{"ha":1172,"x_min":28,"x_max":1149,"o":"m 1149 410 q 1058 624 1149 536 q 832 711 969 711 q 697 689 756 711 q 592 626 636 667 q 503 690 557 668 q 364 714 444 714 q 160 661 249 714 q 72 511 72 607 q 100 443 72 471 q 181 415 128 415 q 238 435 206 415 q 268 471 268 453 l 268 519 q 256 535 268 526 q 240 549 243 542 q 281 579 257 571 q 358 590 310 590 q 451 567 419 590 q 482 504 482 544 q 368 401 482 424 q 303 389 314 390 q 144 357 203 368 q 28 194 28 315 q 104 40 28 99 q 283 -19 181 -19 q 433 7 354 -19 q 561 72 514 32 q 586 56 568 67 q 683 0 629 19 q 806 -19 738 -19 q 1033 47 936 -19 q 1131 232 1131 114 q 1107 269 1125 258 q 1047 281 1089 281 q 989 190 1038 281 q 824 100 940 100 q 681 161 733 100 q 628 310 628 222 l 1079 310 q 1135 321 1124 310 q 1146 358 1146 332 l 1149 410 m 994 439 l 644 439 q 704 543 661 496 q 826 589 746 589 q 950 542 915 589 q 994 439 986 492 m 481 265 q 433 154 481 193 q 296 115 386 115 q 211 139 243 115 q 179 199 179 163 q 317 290 179 272 q 481 322 457 310 l 481 265 z "},"ç":{"ha":694,"x_min":29,"x_max":672,"o":"m 672 247 q 649 286 672 269 q 600 301 625 301 q 558 285 583 301 q 532 249 532 268 q 482 149 532 197 q 369 100 432 100 q 233 169 283 100 q 183 346 183 239 q 238 519 183 451 q 372 586 290 586 q 449 571 411 586 q 499 525 485 557 q 454 492 468 514 q 438 449 438 469 q 464 386 438 413 q 526 360 490 360 q 628 399 597 360 q 658 485 658 435 q 576 654 658 593 q 382 714 496 714 q 129 610 228 714 q 29 342 29 504 q 125 75 29 175 q 372 -25 221 -25 q 583 54 494 -25 q 672 247 672 131 m 508 -156 q 469 -86 508 -108 q 374 -65 431 -65 l 367 -65 l 389 -17 l 304 -17 l 263 -106 q 261 -114 261 -108 q 274 -135 261 -125 q 308 -151 293 -151 q 339 -143 317 -151 q 375 -136 364 -136 q 399 -158 399 -136 q 386 -179 399 -178 q 347 -183 374 -183 q 306 -174 331 -183 q 254 -156 275 -164 q 222 -165 236 -156 q 207 -187 207 -176 q 254 -233 207 -212 q 354 -254 303 -254 q 460 -226 411 -254 q 508 -156 508 -199 z "},"è":{"ha":732,"x_min":26,"x_max":704,"o":"m 704 410 q 614 624 704 536 q 388 711 525 711 q 119 599 211 711 q 26 322 26 485 q 113 81 26 179 q 361 -19 199 -19 q 589 47 492 -19 q 686 232 686 114 q 663 269 681 258 q 603 281 644 281 q 544 190 593 281 q 379 100 496 100 q 236 161 289 100 q 183 310 183 222 l 635 310 q 690 321 679 310 q 701 358 701 332 l 704 410 m 550 439 l 200 439 q 260 543 217 496 q 382 589 301 589 q 506 542 471 589 q 550 439 542 492 m 461 847 l 290 971 q 261 988 274 983 q 232 992 247 992 q 176 969 197 992 q 154 915 154 947 q 199 860 154 875 l 414 796 q 435 793 422 793 q 476 821 476 793 q 461 847 476 836 z "},"é":{"ha":732,"x_min":26,"x_max":704,"o":"m 704 410 q 614 624 704 536 q 388 711 525 711 q 119 599 211 711 q 26 322 26 485 q 113 81 26 179 q 361 -19 199 -19 q 589 47 492 -19 q 686 232 686 114 q 663 269 681 258 q 603 281 644 281 q 544 190 593 281 q 379 100 496 100 q 236 161 289 100 q 183 310 183 222 l 635 310 q 690 321 679 310 q 701 358 701 332 l 704 410 m 550 439 l 200 439 q 260 543 217 496 q 382 589 301 589 q 506 542 471 589 q 550 439 542 492 m 540 858 q 575 881 564 865 q 585 914 585 894 q 563 967 585 944 q 508 990 539 990 q 481 985 496 990 q 449 969 461 978 l 276 846 q 263 821 263 833 q 274 800 263 808 q 303 792 285 792 q 325 794 317 792 l 540 858 z "},"ê":{"ha":732,"x_min":26,"x_max":704,"o":"m 704 410 q 614 624 704 536 q 388 711 525 711 q 119 599 211 711 q 26 322 26 485 q 113 81 26 179 q 361 -19 199 -19 q 589 47 492 -19 q 686 232 686 114 q 663 269 681 258 q 603 281 644 281 q 544 190 593 281 q 379 100 496 100 q 236 161 289 100 q 183 310 183 222 l 635 310 q 690 321 679 310 q 701 358 701 332 l 704 410 m 550 439 l 200 439 q 260 543 217 496 q 382 589 301 589 q 506 542 471 589 q 550 439 542 492 m 617 849 l 403 972 q 376 983 383 983 q 347 972 372 983 l 136 849 q 110 819 110 835 q 125 800 110 807 q 160 792 140 792 q 174 793 171 792 l 374 856 q 458 831 386 853 q 554 800 513 813 q 593 790 579 790 q 624 800 614 790 q 633 822 633 810 q 617 849 633 839 z "},"ë":{"ha":732,"x_min":26,"x_max":704,"o":"m 704 410 q 614 624 704 536 q 388 711 525 711 q 119 599 211 711 q 26 322 26 485 q 113 81 26 179 q 361 -19 199 -19 q 589 47 492 -19 q 686 232 686 114 q 663 269 681 258 q 603 281 644 281 q 544 190 593 281 q 379 100 496 100 q 236 161 289 100 q 183 310 183 222 l 635 310 q 690 321 679 310 q 701 358 701 332 l 704 410 m 550 439 l 200 439 q 260 543 217 496 q 382 589 301 589 q 506 542 471 589 q 550 439 542 492 m 610 885 q 581 942 610 919 q 510 964 550 964 q 439 940 469 964 q 410 885 410 918 q 440 829 410 851 q 510 806 471 806 q 581 829 550 806 q 610 885 610 853 m 368 885 q 338 942 368 919 q 267 965 306 965 q 194 942 225 965 q 165 885 165 919 q 196 829 165 851 q 267 806 226 806 q 339 829 307 806 q 368 885 368 853 z "},"ì":{"ha":426,"x_min":-11,"x_max":444,"o":"m 444 67 l 444 69 q 428 104 444 88 q 385 122 410 122 q 349 119 374 122 q 326 117 340 118 q 311 114 315 114 q 306 122 306 114 q 307 136 306 124 l 308 150 l 308 567 q 300 657 308 626 q 253 689 289 689 l 214 686 l 88 689 q 33 672 54 689 q 11 626 11 654 l 11 624 q 26 589 11 608 q 60 568 43 568 l 153 571 q 164 551 164 571 q 163 529 164 547 q 161 515 161 522 l 161 160 l 161 140 q 153 117 161 117 l 107 121 q 67 122 92 122 q 25 108 35 122 q 7 64 15 94 q 21 25 7 47 q 56 0 36 0 q 103 1 72 1 q 150 3 135 1 q 183 4 165 4 q 215 6 208 6 q 296 1 244 6 q 382 -3 349 -3 q 425 18 404 -3 q 444 67 444 38 m 296 840 l 125 964 q 96 981 108 976 q 67 985 82 985 q 11 963 32 985 q -11 908 -11 940 q 33 853 -11 868 l 249 789 q 269 786 257 786 q 311 814 311 786 q 296 840 311 829 z "},"í":{"ha":426,"x_min":7,"x_max":444,"o":"m 444 67 l 444 69 q 428 104 444 88 q 385 122 410 122 q 349 119 374 122 q 326 117 340 118 q 311 114 315 114 q 306 122 306 114 q 307 136 306 124 l 308 150 l 308 567 q 300 657 308 626 q 253 689 289 689 l 214 686 l 88 689 q 33 672 54 689 q 11 626 11 654 l 11 624 q 26 589 11 608 q 60 568 43 568 l 153 571 q 164 551 164 571 q 163 529 164 547 q 161 515 161 522 l 161 160 l 161 140 q 153 117 161 117 l 107 121 q 67 122 92 122 q 25 108 35 122 q 7 64 15 94 q 21 25 7 47 q 56 0 36 0 q 103 1 72 1 q 150 3 135 1 q 183 4 165 4 q 215 6 208 6 q 296 1 244 6 q 382 -3 349 -3 q 425 18 404 -3 q 444 67 444 38 m 374 832 q 408 854 397 839 q 418 888 418 868 q 396 940 418 918 q 342 964 372 964 q 314 958 329 964 q 282 943 294 951 l 110 819 q 96 794 96 807 q 107 774 96 782 q 136 765 118 765 q 158 768 150 765 l 374 832 z "},"î":{"ha":426,"x_min":-47,"x_max":476,"o":"m 444 67 l 444 69 q 428 104 444 88 q 385 122 410 122 q 349 119 374 122 q 326 117 340 118 q 311 114 315 114 q 306 122 306 114 q 307 136 306 124 l 308 150 l 308 567 q 300 657 308 626 q 253 689 289 689 l 214 686 l 88 689 q 33 672 54 689 q 11 626 11 654 l 11 624 q 26 589 11 608 q 60 568 43 568 l 153 571 q 164 551 164 571 q 163 529 164 547 q 161 515 161 522 l 161 160 l 161 140 q 153 117 161 117 l 107 121 q 67 122 92 122 q 25 108 35 122 q 7 64 15 94 q 21 25 7 47 q 56 0 36 0 q 103 1 72 1 q 150 3 135 1 q 183 4 165 4 q 215 6 208 6 q 296 1 244 6 q 382 -3 349 -3 q 425 18 404 -3 q 444 67 444 38 m 460 838 l 246 961 q 219 972 226 972 q 190 961 215 972 l -21 838 q -47 808 -47 824 q -32 789 -47 796 q 3 781 -17 781 q 17 782 14 781 l 217 844 q 301 819 229 842 q 397 789 356 801 q 436 779 422 779 q 467 789 457 779 q 476 811 476 799 q 460 838 476 828 z "},"ï":{"ha":426,"x_min":-6,"x_max":444,"o":"m 444 67 l 444 69 q 428 104 444 88 q 385 122 410 122 q 349 119 374 122 q 326 117 340 118 q 311 114 315 114 q 306 122 306 114 q 307 136 306 124 l 308 150 l 308 567 q 300 657 308 626 q 253 689 289 689 l 214 686 l 88 689 q 33 672 54 689 q 11 626 11 654 l 11 624 q 26 589 11 608 q 60 568 43 568 l 153 571 q 164 551 164 571 q 163 529 164 547 q 161 515 161 522 l 161 160 l 161 140 q 153 117 161 117 l 107 121 q 67 122 92 122 q 25 108 35 122 q 7 64 15 94 q 21 25 7 47 q 56 0 36 0 q 103 1 72 1 q 150 3 135 1 q 183 4 165 4 q 215 6 208 6 q 296 1 244 6 q 382 -3 349 -3 q 425 18 404 -3 q 444 67 444 38 m 439 858 q 410 915 439 893 q 339 938 379 938 q 268 914 299 938 q 239 858 239 892 q 269 803 239 825 q 339 779 300 779 q 410 803 379 779 q 439 858 439 826 m 197 858 q 167 915 197 893 q 96 939 135 939 q 24 915 54 939 q -6 858 -6 893 q 25 803 -6 825 q 96 779 56 779 q 168 803 136 779 q 197 858 197 826 z "},"ð":{"ha":888,"x_min":51,"x_max":833,"o":"m 833 417 q 785 688 833 567 q 647 874 736 807 q 667 922 667 897 q 646 969 667 951 q 597 989 624 989 q 540 961 564 989 l 521 938 q 403 953 460 953 q 200 896 297 953 q 103 744 103 838 q 136 664 103 700 q 206 632 167 632 l 215 632 q 283 663 256 632 q 308 713 308 688 q 307 722 308 718 q 276 781 307 763 q 331 815 301 806 q 401 825 360 825 l 422 824 l 403 803 q 381 751 381 781 q 401 704 381 724 q 450 685 424 685 q 508 714 483 685 l 558 772 q 629 675 603 733 q 665 546 656 614 q 418 639 572 639 q 158 556 265 639 q 51 321 51 472 q 154 76 51 178 q 432 -24 257 -24 q 733 106 632 -24 q 833 417 833 235 m 650 311 q 596 164 650 222 q 432 106 542 106 q 272 165 328 106 q 217 313 217 225 q 279 453 217 401 q 431 503 340 503 q 588 456 526 503 q 650 311 650 408 z "},"ñ":{"ha":888,"x_min":6,"x_max":914,"o":"m 914 57 q 903 100 914 81 q 863 119 892 119 q 822 118 838 119 q 778 114 792 115 q 768 129 768 114 q 769 146 768 139 l 769 165 l 769 450 q 690 646 769 579 q 493 711 610 711 q 381 690 433 711 q 283 633 328 669 q 267 676 278 657 q 239 693 257 693 l 151 685 q 129 689 146 685 q 108 690 121 690 l 100 690 q 28 676 53 685 q 10 628 10 668 q 25 578 10 589 q 75 568 39 568 q 92 569 78 568 l 108 571 q 149 575 133 574 q 158 556 158 575 q 157 532 158 551 q 156 517 156 525 l 156 168 q 157 135 156 151 q 151 114 157 115 q 140 117 149 114 q 119 121 132 118 l 115 121 q 81 124 93 124 q 65 122 72 124 q 21 94 31 117 q 6 50 10 69 q 21 11 6 22 q 60 0 36 0 l 382 -3 q 428 18 411 -3 q 444 65 444 39 q 429 101 444 82 q 399 119 413 119 q 354 118 371 119 q 306 114 336 117 q 297 128 297 114 q 299 149 297 133 l 300 157 l 300 410 q 346 538 300 486 q 471 590 392 590 q 581 557 535 590 q 625 468 625 521 l 625 165 q 629 147 625 163 q 631 139 629 143 q 632 126 632 129 q 619 114 632 114 q 575 118 606 115 q 529 119 560 119 q 497 104 515 119 q 478 68 481 89 l 478 60 q 492 21 478 39 q 536 0 508 0 l 854 1 q 896 19 878 1 q 914 57 914 38 m 688 904 q 678 928 688 914 q 651 940 668 940 q 619 918 632 926 q 579 906 601 906 q 454 928 542 906 q 361 949 365 949 q 254 917 299 949 q 208 838 208 886 q 244 801 208 808 q 274 822 256 810 q 325 835 293 835 q 428 815 353 835 q 528 796 503 796 q 635 821 581 796 q 688 904 688 846 z "},"ò":{"ha":774,"x_min":28,"x_max":718,"o":"m 718 347 q 631 615 718 511 q 369 718 543 718 q 121 607 213 718 q 28 347 28 497 q 119 92 28 200 q 369 -18 211 -18 q 633 86 549 -18 q 718 347 718 189 m 565 347 q 519 176 565 247 q 369 106 472 106 q 231 175 279 106 q 183 347 183 243 q 231 521 183 449 q 369 593 278 593 q 522 524 478 593 q 565 347 565 456 m 456 847 l 285 971 q 256 988 268 983 q 226 992 242 992 q 171 969 192 992 q 149 915 149 947 q 193 860 149 875 l 408 796 q 429 793 417 793 q 471 821 471 793 q 456 847 471 836 z "},"ó":{"ha":774,"x_min":28,"x_max":718,"o":"m 718 347 q 631 615 718 511 q 369 718 543 718 q 121 607 213 718 q 28 347 28 497 q 119 92 28 200 q 369 -18 211 -18 q 633 86 549 -18 q 718 347 718 189 m 565 347 q 519 176 565 247 q 369 106 472 106 q 231 175 279 106 q 183 347 183 243 q 231 521 183 449 q 369 593 278 593 q 522 524 478 593 q 565 347 565 456 m 544 857 q 579 879 568 864 q 589 913 589 893 q 567 965 589 943 q 513 989 543 989 q 485 983 500 989 q 453 968 465 976 l 281 844 q 267 819 267 832 q 278 799 267 807 q 307 790 289 790 q 329 793 321 790 l 544 857 z "},"ô":{"ha":774,"x_min":28,"x_max":718,"o":"m 718 347 q 631 615 718 511 q 369 718 543 718 q 121 607 213 718 q 28 347 28 497 q 119 92 28 200 q 369 -18 211 -18 q 633 86 549 -18 q 718 347 718 189 m 565 347 q 519 176 565 247 q 369 106 472 106 q 231 175 279 106 q 183 347 183 243 q 231 521 183 449 q 369 593 278 593 q 522 524 478 593 q 565 347 565 456 m 604 843 l 390 967 q 364 978 371 978 q 335 967 360 978 l 124 843 q 97 814 97 829 q 113 794 97 801 q 147 786 128 786 q 161 788 158 786 l 361 850 q 446 825 374 847 q 542 794 500 807 q 581 785 567 785 q 611 794 601 785 q 621 817 621 804 q 604 843 621 833 z "},"õ":{"ha":774,"x_min":28,"x_max":718,"o":"m 718 347 q 631 615 718 511 q 369 718 543 718 q 121 607 213 718 q 28 347 28 497 q 119 92 28 200 q 369 -18 211 -18 q 633 86 549 -18 q 718 347 718 189 m 565 347 q 519 176 565 247 q 369 106 472 106 q 231 175 279 106 q 183 347 183 243 q 231 521 183 449 q 369 593 278 593 q 522 524 478 593 q 565 347 565 456 m 611 908 q 601 932 611 918 q 575 944 592 944 q 543 922 556 931 q 503 910 525 910 q 378 932 465 910 q 285 953 289 953 q 178 921 222 953 q 132 842 132 890 q 168 806 132 813 q 197 826 179 814 q 249 839 217 839 q 351 819 276 839 q 451 800 426 800 q 558 825 504 800 q 611 908 611 850 z "},"ö":{"ha":774,"x_min":28,"x_max":718,"o":"m 718 347 q 631 615 718 511 q 369 718 543 718 q 121 607 213 718 q 28 347 28 497 q 119 92 28 200 q 369 -18 211 -18 q 633 86 549 -18 q 718 347 718 189 m 565 347 q 519 176 565 247 q 369 106 472 106 q 231 175 279 106 q 183 347 183 243 q 231 521 183 449 q 369 593 278 593 q 522 524 478 593 q 565 347 565 456 m 594 871 q 565 928 594 906 q 494 950 535 950 q 424 926 454 950 q 394 871 394 904 q 425 815 394 838 q 494 792 456 792 q 565 815 535 792 q 594 871 594 839 m 353 871 q 322 928 353 906 q 251 951 290 951 q 179 928 210 951 q 150 871 150 906 q 181 815 150 838 q 251 792 211 792 q 324 815 292 792 q 353 871 353 839 z "},"÷":{"ha":763,"x_min":39,"x_max":724,"o":"m 481 500 q 453 567 481 539 q 381 593 425 593 q 311 567 338 593 q 282 500 282 540 q 313 433 282 458 q 382 407 342 407 q 454 435 426 407 q 481 500 481 461 m 724 265 l 724 390 l 39 390 l 39 265 l 724 265 m 481 154 q 453 222 481 194 q 382 247 424 247 q 311 221 340 247 q 282 154 282 194 q 313 88 282 113 q 382 61 342 61 q 454 89 426 61 q 481 154 481 115 z "},"ø":{"ha":774,"x_min":28,"x_max":718,"o":"m 718 347 q 707 463 718 404 q 679 542 694 515 q 660 547 660 542 q 665 557 660 551 q 706 633 706 597 q 646 685 706 685 q 574 661 613 685 q 369 718 492 718 q 121 607 213 718 q 28 347 28 497 q 72 161 28 249 l 58 146 q 36 115 43 131 q 29 86 29 99 q 47 47 29 61 q 94 33 65 33 q 128 39 115 33 q 160 53 146 44 q 256 1 201 21 q 369 -18 310 -18 q 633 86 549 -18 q 718 347 718 189 m 475 568 l 189 279 l 185 313 q 183 347 183 324 q 231 521 183 449 q 369 593 278 593 q 428 588 404 593 q 475 568 449 582 m 565 347 q 519 176 565 247 q 369 106 472 106 q 260 144 303 106 l 554 443 q 565 347 565 392 z "},"ù":{"ha":849,"x_min":-22,"x_max":878,"o":"m 878 68 q 863 107 878 94 q 819 122 844 121 q 792 121 804 122 q 771 118 783 119 q 758 115 761 115 l 751 115 q 729 129 733 115 q 725 171 725 144 q 726 211 725 179 q 728 251 726 233 q 729 364 729 281 l 736 636 q 729 676 736 660 q 697 690 724 690 l 515 692 q 481 674 493 692 q 467 629 467 656 q 481 586 467 601 q 518 568 493 568 l 581 568 q 586 546 586 564 q 585 506 586 524 l 585 371 q 558 174 585 240 q 414 104 531 104 q 290 164 317 104 q 263 328 263 226 l 263 654 q 246 681 263 667 q 210 694 228 694 q 185 693 201 694 q 178 692 181 692 l 169 690 q 149 689 154 689 q 114 690 140 689 l 100 692 l 86 693 q 51 694 60 694 q -1 678 19 694 q -22 632 -22 661 l -22 626 q -14 594 -22 622 q 42 568 -8 568 q 57 569 46 568 l 76 571 q 93 572 82 571 q 111 574 107 572 q 128 546 128 572 q 128 539 128 544 q 125 515 126 531 q 121 475 121 489 l 121 215 q 192 46 121 113 q 388 -22 260 -22 q 518 -3 451 -22 q 594 35 579 15 l 594 51 q 613 14 594 28 q 657 -1 631 -1 l 826 -1 q 878 68 878 -1 m 461 853 l 290 976 q 261 993 274 989 q 232 997 247 997 q 176 975 197 997 q 154 921 154 953 q 199 865 154 881 l 414 801 q 435 799 422 799 q 476 826 476 799 q 461 853 476 842 z "},"ú":{"ha":849,"x_min":-22,"x_max":878,"o":"m 878 68 q 863 107 878 94 q 819 122 844 121 q 792 121 804 122 q 771 118 783 119 q 758 115 761 115 l 751 115 q 729 129 733 115 q 725 171 725 144 q 726 211 725 179 q 728 251 726 233 q 729 364 729 281 l 736 636 q 729 676 736 660 q 697 690 724 690 l 515 692 q 481 674 493 692 q 467 629 467 656 q 481 586 467 601 q 518 568 493 568 l 581 568 q 586 546 586 564 q 585 506 586 524 l 585 371 q 558 174 585 240 q 414 104 531 104 q 290 164 317 104 q 263 328 263 226 l 263 654 q 246 681 263 667 q 210 694 228 694 q 185 693 201 694 q 178 692 181 692 l 169 690 q 149 689 154 689 q 114 690 140 689 l 100 692 l 86 693 q 51 694 60 694 q -1 678 19 694 q -22 632 -22 661 l -22 626 q -14 594 -22 622 q 42 568 -8 568 q 57 569 46 568 l 76 571 q 93 572 82 571 q 111 574 107 572 q 128 546 128 572 q 128 539 128 544 q 125 515 126 531 q 121 475 121 489 l 121 215 q 192 46 121 113 q 388 -22 260 -22 q 518 -3 451 -22 q 594 35 579 15 l 594 51 q 613 14 594 28 q 657 -1 631 -1 l 826 -1 q 878 68 878 -1 m 561 861 q 596 883 585 868 q 606 917 606 897 q 583 969 606 947 q 529 993 560 993 q 501 988 517 993 q 469 972 482 981 l 297 849 q 283 824 283 836 q 294 803 283 811 q 324 794 306 794 q 346 797 338 794 l 561 861 z "},"û":{"ha":849,"x_min":-22,"x_max":878,"o":"m 878 68 q 863 107 878 94 q 819 122 844 121 q 792 121 804 122 q 771 118 783 119 q 758 115 761 115 l 751 115 q 729 129 733 115 q 725 171 725 144 q 726 211 725 179 q 728 251 726 233 q 729 364 729 281 l 736 636 q 729 676 736 660 q 697 690 724 690 l 515 692 q 481 674 493 692 q 467 629 467 656 q 481 586 467 601 q 518 568 493 568 l 581 568 q 586 546 586 564 q 585 506 586 524 l 585 371 q 558 174 585 240 q 414 104 531 104 q 290 164 317 104 q 263 328 263 226 l 263 654 q 246 681 263 667 q 210 694 228 694 q 185 693 201 694 q 178 692 181 692 l 169 690 q 149 689 154 689 q 114 690 140 689 l 100 692 l 86 693 q 51 694 60 694 q -1 678 19 694 q -22 632 -22 661 l -22 626 q -14 594 -22 622 q 42 568 -8 568 q 57 569 46 568 l 76 571 q 93 572 82 571 q 111 574 107 572 q 128 546 128 572 q 128 539 128 544 q 125 515 126 531 q 121 475 121 489 l 121 215 q 192 46 121 113 q 388 -22 260 -22 q 518 -3 451 -22 q 594 35 579 15 l 594 51 q 613 14 594 28 q 657 -1 631 -1 l 826 -1 q 878 68 878 -1 m 638 844 l 424 968 q 397 979 404 979 q 368 968 393 979 l 157 844 q 131 815 131 831 q 146 796 131 803 q 181 788 161 788 q 194 789 192 788 l 394 851 q 479 826 407 849 q 575 796 533 808 q 614 786 600 786 q 644 796 635 786 q 654 818 654 806 q 638 844 654 835 z "},"ü":{"ha":849,"x_min":-22,"x_max":878,"o":"m 878 68 q 863 107 878 94 q 819 122 844 121 q 792 121 804 122 q 771 118 783 119 q 758 115 761 115 l 751 115 q 729 129 733 115 q 725 171 725 144 q 726 211 725 179 q 728 251 726 233 q 729 364 729 281 l 736 636 q 729 676 736 660 q 697 690 724 690 l 515 692 q 481 674 493 692 q 467 629 467 656 q 481 586 467 601 q 518 568 493 568 l 581 568 q 586 546 586 564 q 585 506 586 524 l 585 371 q 558 174 585 240 q 414 104 531 104 q 290 164 317 104 q 263 328 263 226 l 263 654 q 246 681 263 667 q 210 694 228 694 q 185 693 201 694 q 178 692 181 692 l 169 690 q 149 689 154 689 q 114 690 140 689 l 100 692 l 86 693 q 51 694 60 694 q -1 678 19 694 q -22 632 -22 661 l -22 626 q -14 594 -22 622 q 42 568 -8 568 q 57 569 46 568 l 76 571 q 93 572 82 571 q 111 574 107 572 q 128 546 128 572 q 128 539 128 544 q 125 515 126 531 q 121 475 121 489 l 121 215 q 192 46 121 113 q 388 -22 260 -22 q 518 -3 451 -22 q 594 35 579 15 l 594 51 q 613 14 594 28 q 657 -1 631 -1 l 826 -1 q 878 68 878 -1 m 614 874 q 585 931 614 908 q 514 953 554 953 q 443 929 474 953 q 414 874 414 907 q 444 818 414 840 q 514 794 475 794 q 585 818 554 794 q 614 874 614 842 m 372 874 q 342 931 372 908 q 271 954 310 954 q 199 931 229 954 q 169 874 169 908 q 200 818 169 840 q 271 794 231 794 q 343 818 311 794 q 372 874 372 842 z "},"ý":{"ha":869,"x_min":-49,"x_max":878,"o":"m 878 631 q 861 681 878 667 q 794 694 843 694 q 747 690 775 694 q 701 686 721 686 q 636 690 697 686 q 529 694 576 694 q 483 676 501 694 q 463 635 463 658 q 461 625 461 631 q 472 592 461 610 q 508 569 485 569 q 539 571 517 569 l 557 572 q 607 574 578 574 l 607 568 q 590 550 599 560 l 440 160 l 300 557 q 294 567 297 563 q 290 574 290 571 l 343 572 q 404 588 389 572 q 419 628 419 603 l 419 636 q 336 697 419 697 q 256 692 313 697 q 149 686 199 686 q 113 692 136 686 q 67 696 83 696 q 53 694 58 696 q -1 682 18 694 q -21 626 -21 667 q -1 582 -21 597 q 39 568 17 568 q 64 569 46 568 q 76 571 67 569 q 121 572 93 572 q 135 561 132 572 l 136 554 q 140 529 139 538 l 339 40 q 346 3 346 24 q 290 -103 346 -56 q 175 -151 233 -151 q 126 -143 139 -151 q 149 -118 138 -136 q 157 -87 157 -104 q 126 -25 157 -47 q 57 -3 96 -3 q -18 -35 14 -3 q -49 -117 -49 -65 q 22 -235 -49 -192 q 176 -279 94 -279 q 374 -204 282 -279 q 546 65 465 -131 l 735 521 q 747 549 739 529 q 767 574 753 563 l 822 569 q 839 568 829 569 q 867 581 857 568 q 878 631 878 594 m 650 858 q 685 881 674 865 q 694 914 694 894 q 672 967 694 944 q 618 990 649 990 q 590 985 606 990 q 558 969 571 978 l 386 846 q 372 821 372 833 q 383 800 372 808 q 413 792 394 792 q 435 794 426 792 l 650 858 z "},"þ":{"ha":899,"x_min":19,"x_max":832,"o":"m 53 925 q 63 890 53 903 q 100 875 72 876 l 169 875 l 169 203 q 171 189 171 196 q 172 174 171 181 q 174 144 174 164 q 151 110 174 110 l 149 110 q 117 114 139 111 l 113 114 q 82 117 92 117 q 33 97 47 117 q 19 65 19 82 q 21 57 19 60 q 33 19 21 39 q 79 3 46 3 q 90 3 82 3 q 157 6 115 4 q 199 7 181 7 q 257 8 246 8 l 363 0 q 431 13 404 0 q 457 58 457 25 q 444 97 457 83 q 390 114 429 113 q 389 114 389 114 q 361 113 376 113 l 347 111 q 333 110 335 110 l 329 110 q 314 136 314 110 q 315 147 314 142 q 317 164 315 158 l 317 249 q 396 211 357 224 q 481 197 440 197 q 744 294 657 197 q 832 532 832 390 q 753 771 832 674 q 521 868 671 868 q 408 854 467 868 q 317 808 357 840 l 317 932 q 301 970 317 961 q 264 979 285 979 l 108 979 q 97 977 106 979 q 78 969 89 975 q 60 953 68 964 q 53 925 53 942 m 675 543 q 635 376 675 446 q 486 307 596 307 q 361 363 401 307 q 319 492 319 417 q 356 686 319 614 q 514 754 390 754 q 638 694 597 754 q 675 543 675 632 z "},"ÿ":{"ha":869,"x_min":-49,"x_max":878,"o":"m 878 631 q 861 681 878 667 q 794 694 843 694 q 747 690 775 694 q 701 686 721 686 q 636 690 697 686 q 529 694 576 694 q 483 676 501 694 q 463 635 463 658 q 461 625 461 631 q 472 592 461 610 q 508 569 485 569 q 539 571 517 569 l 557 572 q 607 574 578 574 l 607 568 q 590 550 599 560 l 440 160 l 300 557 q 294 567 297 563 q 290 574 290 571 l 343 572 q 404 588 389 572 q 419 628 419 603 l 419 636 q 336 697 419 697 q 256 692 313 697 q 149 686 199 686 q 113 692 136 686 q 67 696 83 696 q 53 694 58 696 q -1 682 18 694 q -21 626 -21 667 q -1 582 -21 597 q 39 568 17 568 q 64 569 46 568 q 76 571 67 569 q 121 572 93 572 q 135 561 132 572 l 136 554 q 140 529 139 538 l 339 40 q 346 3 346 24 q 290 -103 346 -56 q 175 -151 233 -151 q 126 -143 139 -151 q 149 -118 138 -136 q 157 -87 157 -104 q 126 -25 157 -47 q 57 -3 96 -3 q -18 -35 14 -3 q -49 -117 -49 -65 q 22 -235 -49 -192 q 176 -279 94 -279 q 374 -204 282 -279 q 546 65 465 -131 l 735 521 q 747 549 739 529 q 767 574 753 563 l 822 569 q 839 568 829 569 q 867 581 857 568 q 878 631 878 594 m 667 875 q 638 932 667 910 q 567 954 607 954 q 496 931 526 954 q 467 875 467 908 q 497 819 467 842 q 567 796 528 796 q 638 819 607 796 q 667 875 667 843 m 425 875 q 394 932 425 910 q 324 956 363 956 q 251 932 282 956 q 222 875 222 910 q 253 819 222 842 q 324 796 283 796 q 396 819 364 796 q 425 875 425 843 z "}}}
